<svg fill="#fff" height="200" viewBox="0 0 725 200" width="725" xmlns="http://www.w3.org/2000/svg"><path d="m347.8 92.15c0-6.43.56-16.4 1.69-29.9l.48-5.79-2.41-.24c-3.7 13.67-6.91 24.52-9.65 32.55l-32.07 94.28h-32.07l-33.76-94.28c-3.06-7.23-5.79-16.23-8.2-27.01l-1.45-5.55-2.41.24c1.45 14.31 2.17 26.2 2.17 35.69v63.42c5.95 2.25 10.37 5.23 13.26 8.92l-2.41 18.57h-47.26l-2.41-18.57c2.89-3.7 7.31-6.67 13.26-8.92v-111.39c-6.59-2.41-11.17-5.38-13.74-8.92l2.41-18.57h54.98l35.2 97.17c4.5 10.61 7.39 20.34 8.68 29.18l.72 4.1h3.38c.64-9.8 3.53-20.89 8.68-33.28l33.52-97.17h54.01l2.41 18.57c-2.57 3.54-7.15 6.51-13.74 8.92v110.43c6.27 2.41 10.69 5.23 13.26 8.44l-2.41 20.01h-54.98l-2.41-19.77c2.57-3.21 6.99-6.03 13.26-8.44v-62.69zm61.46-11.81c0-2.41.08-4.98.24-7.72 14.95-8.04 31.02-12.06 48.22-12.06s29.54 3.26 37.01 9.77 11.21 17.32 11.21 32.43v51.36c5.62 1.13 10.04 2.49 13.26 4.1v20.98c-8.2 3.86-19.93 5.79-35.21 5.79-1.61-4.18-2.98-9.24-4.1-15.19-6.91 10.13-19.45 15.19-37.62 15.19-10.77 0-19.98-3.13-27.61-9.4-7.64-6.27-11.45-14.79-11.45-25.56s3.58-19.25 10.73-25.44 17.8-9.28 31.95-9.28h26.28v-11.57c0-12.54-6.67-18.81-20.01-18.81-4.98 0-9.08.48-12.3 1.45-.32 6.75-1.29 11.98-2.89 15.67h-23.63c-2.72-5.64-4.08-12.87-4.08-21.71zm43.4 80.05c8.2 0 14.71-2.41 19.53-7.23v-19.77h-16.88c-11.57 0-17.36 4.42-17.36 13.26 0 4.02 1.24 7.32 3.74 9.89 2.49 2.57 6.15 3.85 10.97 3.85zm145.97-68.24c-12.22 0-20.66 2.33-25.32 6.99v55.22c13.02 2.41 21.94 5.79 26.77 10.13l-2.41 18.57h-68.96l-2.41-18.57c2.25-3.05 6.67-5.79 13.26-8.2v-67.03c-5.63-1.93-10.05-4.66-13.26-8.2l2.41-18.57c8.84-1.93 16.8-2.89 23.87-2.89s12.94.16 17.6.48v15.19c3.7-4.34 8.44-7.92 14.23-10.73s11.05-4.22 15.79-4.22 8 .4 9.77 1.21l-.72 31.35c-3.22-.49-6.76-.73-10.62-.73zm66.14-9.88c-10.61 0-15.91 3.13-15.91 9.4 0 5.95 5.55 10.37 16.64 13.26l19.05 5.06c19.61 5.15 29.42 16.48 29.42 34 0 12.06-4.22 21.91-12.66 29.54-8.44 7.64-21.86 11.45-40.27 11.45s-32.76-2.57-43.04-7.72c-.16-1.77-.24-3.53-.24-5.3 0-8.84 1.77-16.8 5.3-23.87h20.01c2.09 3.86 3.46 7.88 4.1 12.06 3.21.96 7.8 1.45 13.74 1.45 14.14 0 21.22-4.02 21.22-12.06 0-2.57-.96-4.7-2.89-6.39s-5.71-3.33-11.33-4.94l-19.05-5.54c-9.81-2.73-17.44-6.79-22.91-12.18-5.47-5.38-8.2-13.34-8.2-23.87s4.26-19.17 12.78-25.92 20.7-10.13 36.53-10.13 29.21 2.33 40.15 6.99c.16 1.61.24 3.22.24 4.82 0 8.36-1.77 16.08-5.3 23.15h-19.77c-2.09-3.7-3.46-7.55-4.1-11.57-4.51-1.13-9.01-1.69-13.51-1.69z"/><path d="m50.99 139.49c-4.76 0-7.5 3.25-7.5 8.91 0 4.87 3.67 7.78 7.21 7.78 4.75 0 8.06-3.55 8.06-8.63.01-4.59-3.33-8.06-7.77-8.06z"/><path d="m21.06 23.71c3.36 0 5.8-2.44 5.8-5.8s-2.44-5.8-5.8-5.8-5.8 2.44-5.8 5.8c-.01 3.36 2.43 5.8 5.8 5.8z"/><path d="m162.84 180.44c-3.36 0-5.8 2.44-5.8 5.8s2.44 5.8 5.8 5.8 5.8-2.44 5.8-5.8-2.44-5.8-5.8-5.8z"/><path d="m92.1 126.82c.33 0 .67-.01 1.01-.02 8.13-.32 12.26-3.99 12.26-10.88 0-7.22-5.55-12.87-12.63-12.87l-.55.01c-2.8.12-5.31 1.31-7.25 3.43-2.43 2.66-3.78 6.63-3.59 10.61.3 6.63 3.72 9.72 10.75 9.72zm1.12-16.13c2.48 0 4.5 2.35 4.5 5.23 0 2.06-1.34 2.88-5.31 3.24-1.92.19-3.16-.09-3.42-2.78-.16-1.59.3-3.25 1.2-4.33.68-.81 1.58-1.27 2.69-1.36z"/><path d="m62.7 136.54c0 5.24 3.39 8.62 8.63 8.62 3.74 0 7.78-3.41 7.78-8.91 0-5.24-3.47-9.19-8.06-9.19-6.15 0-8.35 4.9-8.35 9.48zm8.63.97c-.72 0-.98-.26-.98-.98 0-1.82.42-1.82.69-1.82.17.09.41.78.41 1.54.01.28.01 1.11-.12 1.26z"/><path d="m52.12 118.33c7.71 0 15.97-7.44 15.97-18.51 0-13.17-9.72-17.95-16.25-17.95-11.23 0-16.25 9.3-16.25 18.51 0 10.58 8.71 17.95 16.53 17.95zm-8.88-17.95c0-5.01 2.25-10.86 8.6-10.86 3.57 0 8.6 3.2 8.6 10.3 0 5.79-3.89 10.86-8.32 10.86-4.29 0-8.88-4.13-8.88-10.3z"/><path d="m92.51 20.02c-21.58 0-41.99 8.53-57.48 24.02s-24.02 35.9-24.02 57.48 8.53 41.99 24.02 57.48 35.9 24.02 57.48 24.02c45.09 0 81.78-36.56 81.78-81.5s-36.68-81.5-81.78-81.5zm-18.22 9.91c6.34-1.5 12.46-2.26 18.22-2.26 8.19 0 16.22 1.35 23.9 4.01-7.63 4.14-14.33 4.73-19.95 4.73-7.47-.01-15.93-2.51-22.17-6.48zm-8.82 2.98c7.39 6.48 20.3 11.14 31 11.14 8.6 0 18.01-1.09 28.63-8.87 8.23 4.09 16 9.96 22.66 17.11-2.31-.39-4.72-.39-8.53-.37-.97.01-2.04.01-3.22.01-8.39 0-12.7 3.03-17.7 6.55-2.55 1.8-5.2 3.65-8.7 5.4-1.79.82-3.71 1.22-5.87 1.22-2.45 0-4.73-.51-6.75-.96-1.52-.34-2.83-.63-3.91-.63-3.15 0-6.37.86-6.37 7.21 0 4.18 4.46 6.63 10.64 10.01 1.55.85 3.15 1.73 4.88 2.74 4.99 2.5 8.57 7.28 10.95 10.45 3.3 4.31 7.14 11.55 9.43 15.87l.63 1.19c.59 1.22 1.16 2.41 1.71 3.56 4.18 8.74 6.94 14.51 10.96 14.8.5.05.98.07 1.42.07 5.17 0 6.1-3.16 6.84-5.7l.12-.42c.14-.41.12-.84.11-1.23-.02-.5-.02-.7.08-.8.07.22.17.44.33.64.96 1.37 3.36 2.35 5.75 2.35 1.42 0 2.64-.36 3.55-1.04 3.12-2.34 7.64-6.4 11.85-11.34-2.68 19.02-12.98 36.46-28.66 48.35-3.21-1.54-7.86-3.25-12.75-3.25-.34 0-.68.01-1.01.03-8.31.3-21.05 10.12-26 18.16-1.52.2-3.3.2-5.03.2-40.72 0-73.85-33.13-73.85-73.85.01-30.08 18.79-57.58 46.81-68.6zm84.87 83.58c-1.16-1.52-2.78-3.16-5.65-3.16-.58 0-1.19.07-1.83.21l-.11.03c-3.93 1.31-4.52 3.78-5.04 5.96-.12.49-.23.95-.37 1.39l-.14.35c-.16.43-.16.43-.54.43-1.49-.12-2.63-3.51-3.73-6.78-.76-2.27-1.63-4.84-2.79-7.05-2.21-4.7-7.04-13.56-10.85-18.55-3.14-3.99-7.43-9.46-13.31-12.69-1.51-.8-3.1-1.45-4.64-2.08-2.34-.96-4.59-1.88-6.04-3.14.53.09 1.1.19 1.69.3 2.13.4 4.78.89 7.55.89 3.08 0 5.76-.59 8.18-1.8 3.79-1.79 6.57-3.83 9.02-5.63 4.25-3.12 7.6-5.58 14.28-5.58 1.22 0 2.31-.01 3.29-.02.79-.01 1.52-.02 2.19-.02 5.4 0 6.92.37 15.26 5.41 5.69 9.56 9.01 20.46 9.88 32.41-3.95 8.22-11.95 15.74-16.3 19.12zm-20.76 48.87c-6.77 3.86-14.01 6.7-21.18 8.32 4.54-4.92 10.92-8.79 15.21-9.03 2.01 0 4.11.26 5.97.71z"/></svg>