<svg xmlns="http://www.w3.org/2000/svg" width="1000" height="500" viewBox="0 0 1000 500"><defs><style>.a{fill:#632004;}.b{fill:#ba7434;}</style></defs><title>layer-2</title><path class="a" d="M298 453.5c-45.6 0-80.8-10.7-107.6-32.6-32.7-26.8-49.3-67.9-49.3-122 0-49.8 14-107.1 37.4-153.4 30.6-60.4 73.1-93.7 119.5-93.7s88.9 33.3 119.5 93.8c23.4 46.2 37.4 103.6 37.4 153.4 0 54.1-16.6 95.1-49.3 122-26.8 21.8-62 32.5-107.6 32.5zM579.2 177.6a13.1 13.1 0 0 1 9.3 4.1l-3.3 3.6a8.2 8.2 0 0 0-6-2.7c-5.5 0-9.2 4.5-9.2 11.9s3.8 12 9.4 12a8.5 8.5 0 0 0 6.6-3.2l3.2 3.5a12.9 12.9 0 0 1-10.1 4.8c-8.4 0-15-6-15-16.9s6.4-17.1 15.1-17.1zM595.1 175.6h5.8v9.1l-.3 5.3c2.3-2.2 5-4.2 8.8-4.2 5.7 0 8.3 3.6 8.3 10v15.2h-5.8v-14.6c0-4-1.2-5.8-4.6-5.8s-4.1 1.2-6.3 3.5v16.8h-5.8v-35.3zM636 185.7c6.5 0 12.4 4.7 12.4 12.9s-5.9 12.9-12.4 12.9-12.4-4.7-12.4-12.9 5.9-12.9 12.4-12.9zm0 21.1c4 0 6.4-3.3 6.4-8.2s-2.4-8.2-6.4-8.2-6.4 3.3-6.4 8.2 2.4 8.2 6.4 8.2zM668.6 185.7a13 13 0 0 1 9.1 3.5l-2.7 3.6a9.3 9.3 0 0 0-6-2.4c-4.9 0-8.3 3.3-8.3 8.2a7.7 7.7 0 0 0 8.2 8.2 11.5 11.5 0 0 0 7-2.7l2.4 3.7a15.3 15.3 0 0 1-10 3.7c-7.7 0-13.6-4.7-13.6-12.9s6.4-12.9 13.9-12.9zM696 185.7c6.5 0 12.4 4.7 12.4 12.9s-5.9 12.9-12.4 12.9-12.4-4.7-12.4-12.9 5.9-12.9 12.4-12.9zm0 21.1c4 0 6.4-3.3 6.4-8.2s-2.4-8.2-6.4-8.2-6.4 3.3-6.4 8.2 2.4 8.2 6.4 8.2zM714.5 175.6h13.5v26.7c0 3.3 1.9 4.6 4.4 4.6a11.3 11.3 0 0 0 4.2-1l1.4 4.3a19.1 19.1 0 0 1-7 1.4c-5.7 0-8.7-3.5-8.7-9.6v-21.9h-7.8v-4.5zM761.5 195.2c-.2-2.7-1.8-4.8-5.8-4.8s-5.5 1.2-8.1 2.6l-2.1-3.9a22.8 22.8 0 0 1 11.2-3.4c6.8 0 10.6 3.8 10.6 10.6v14.6h-4.7l-.5-3h-.2c-2.6 2-5.9 3.7-9.2 3.7-4.8 0-8.2-2.9-8.2-7.2s4.9-8.4 17-9.2zm-7 11.8c2.5 0 4.8-1.2 7-3v-5.2c-8.8.6-11.4 2.4-11.4 5.1s1.9 3.1 4.4 3.1zM780.5 190.9h-6.6v-4.3l6.8-.2.8-6.7h4.8v6.7h11.2v4.5h-11.3v10.1c0 4 1.5 5.9 5.7 5.9a15.1 15.1 0 0 0 5.5-1l1 4.2a24.5 24.5 0 0 1-7.9 1.4c-7.5 0-10-4.2-10-10.5v-10.1zM816.7 185.7c7.3 0 11.4 4.9 11.4 11.7a16.6 16.6 0 0 1-.2 2.7h-17.9c.5 4.5 3.8 7 8.3 7a13.6 13.6 0 0 0 6.9-2l2 3.6a18.4 18.4 0 0 1-9.6 2.9c-7.5 0-13.4-4.8-13.4-12.9a12.5 12.5 0 0 1 12.5-13zm6.1 10.7c0-3.9-2.1-6.3-6-6.3a6.9 6.9 0 0 0-6.9 6.3h12.9zM564.8 238.2h8.5c9.7 0 15.4 5.4 15.4 16.2s-5.7 16.5-15.1 16.5h-8.8v-32.7zm8.1 28c6.3 0 9.8-3.7 9.8-11.8s-3.5-11.5-9.8-11.5h-2.3v23.3h2.3zM606.7 245.7c7.3 0 11.4 4.9 11.4 11.7a16.6 16.6 0 0 1-.2 2.7h-17.9c.5 4.5 3.8 7 8.3 7a13.6 13.6 0 0 0 6.9-2l2 3.6a18.4 18.4 0 0 1-9.6 2.9c-7.5 0-13.4-4.8-13.4-12.9a12.5 12.5 0 0 1 12.5-13zm6.1 10.7c0-3.9-2.1-6.3-6-6.3a6.9 6.9 0 0 0-6.9 6.3h12.9zM626.8 264a16 16 0 0 0 9.5 3.1c3.9 0 5.6-1.2 5.6-3s-2.3-2.7-7.3-4-9-3.4-9-7.1 3.9-7.4 10.9-7.4a19.2 19.2 0 0 1 10.2 3.3l-2.7 3.6a13.6 13.6 0 0 0-7.5-2.5c-3.8 0-5.2 1.1-5.2 2.7s3 2.7 6.9 3.7c5.7 1.5 9.4 3.3 9.4 7.4s-4 7.6-11.5 7.6a22 22 0 0 1-12.1-3.8zM655.2 246.3h16.4v24.6h-5.8v-20h-10.6v-4.5zm9-8.2a4.1 4.1 0 0 1 8.2 0 4.1 4.1 0 0 1-8.2.1zM688 270v-.2a4.6 4.6 0 0 1-2.5-4.1 6.1 6.1 0 0 1 3-4.7v-.2a7.5 7.5 0 0 1-3.2-6.3c0-5.7 4.7-8.9 10.1-8.9a11.3 11.3 0 0 1 3.9.6h10.1v4.3h-5.7a6.7 6.7 0 0 1 1.6 4.2c0 5.5-4.3 8.3-9.8 8.3a11.6 11.6 0 0 1-3.7-.7 2.7 2.7 0 0 0-1.5 2.3c0 1.7 1.6 2.4 4.7 2.4h5c6.4 0 9.7 1.8 9.7 6s-5.5 8.7-14.2 8.7c-6.7 0-11.2-2.1-11.2-6.5-.2-2 1.1-3.8 3.7-5.2zm8 8c4.8 0 7.9-1.9 7.9-4s-1.7-2.4-5-2.4h-3.9a12.8 12.8 0 0 1-3.7-.4c-1.7 1.1-2.4 2.1-2.4 3.3s2.5 3.5 7.1 3.5zm4.1-23.4a4.7 4.7 0 1 0-9.4 0 4.7 4.7 0 1 0 9.4 0zM715.1 246.3h4.8l.5 3.7h.2c2.3-2.4 5.1-4.3 8.9-4.3 5.7 0 8.3 3.6 8.3 10v15.2h-5.8v-14.5c0-4-1.2-5.8-4.6-5.8s-4.1 1.2-6.3 3.5v16.8h-5.8v-24.6zM579.2 297.6a13.1 13.1 0 0 1 9.3 4.1l-3.3 3.6a8.2 8.2 0 0 0-6-2.7c-5.5 0-9.2 4.5-9.2 11.9s3.8 12 9.4 12a8.5 8.5 0 0 0 6.6-3.2l3.2 3.5a12.9 12.9 0 0 1-10.1 4.8c-8.4 0-15-6-15-16.9s6.4-17.1 15.1-17.1zM597.3 322.7a13.8 13.8 0 0 0 8.9 3.7c4 0 6.1-1.7 6.1-4.2s-2.3-3.5-5.5-4.8l-4.5-2c-3.5-1.4-7-3.9-7-8.7s4.7-9.2 11.4-9.2a15.4 15.4 0 0 1 10.5 4.2l-3 3.7a11.5 11.5 0 0 0-7.5-2.8c-3.4 0-5.5 1.5-5.5 3.9s2.7 3.5 5.6 4.6l4.3 1.8c4.2 1.7 7.1 4.1 7.1 8.9s-4.5 9.7-12.1 9.7a17.8 17.8 0 0 1-12.2-4.8zM627.3 322.7a13.8 13.8 0 0 0 8.9 3.7c4 0 6.1-1.7 6.1-4.2s-2.3-3.5-5.5-4.8l-4.5-2c-3.5-1.4-7-3.9-7-8.7s4.7-9.2 11.4-9.2a15.4 15.4 0 0 1 10.5 4.2l-3 3.7a11.5 11.5 0 0 0-7.5-2.8c-3.4 0-5.5 1.5-5.5 3.9s2.7 3.5 5.6 4.6l4.3 1.8c4.2 1.7 7.1 4.1 7.1 8.9s-4.5 9.7-12.1 9.7a17.8 17.8 0 0 1-12.2-4.8z"/><path class="b" d="M408.7 298.9c0 85.4-49.5 108.3-110.7 108.3s-110.7-23-110.7-108.3 49.6-200.9 110.7-200.9 110.7 115.5 110.7 200.9z"/></svg>