<svg xmlns="http://www.w3.org/2000/svg" width="1000" height="500" viewBox="0 0 1000 500"><defs><style>.a{fill:#ba7434;}</style></defs><title>layer-1</title><path class="a" d="M408.7 298.9c0 85.4-49.5 108.3-110.7 108.3s-110.7-23-110.7-108.3 49.6-200.9 110.7-200.9 110.7 115.5 110.7 200.9zM565.4 178.2h11c7.2 0 12.5 2.5 12.5 10.1s-5.4 10.6-12.5 10.6h-5.2v12h-5.8v-32.7zm10.6 16.1c4.8 0 7.2-2 7.2-6s-2.5-5.5-7.2-5.5h-4.8v11.4h4.8zM606.7 185.7c7.3 0 11.4 4.9 11.4 11.7a16.6 16.6 0 0 1-.2 2.7h-17.9c.5 4.5 3.8 7 8.3 7a13.6 13.6 0 0 0 6.9-2l2 3.6a18.4 18.4 0 0 1-9.6 2.9c-7.5 0-13.4-4.8-13.4-12.9a12.5 12.5 0 0 1 12.5-13zm6.1 10.7c0-3.9-2.1-6.3-6-6.3a6.9 6.9 0 0 0-6.9 6.3h12.9zM641.5 195.2c-.2-2.7-1.8-4.8-5.8-4.8s-5.5 1.2-8.1 2.6l-2.1-3.9a22.8 22.8 0 0 1 11.2-3.4c6.8 0 10.6 3.8 10.6 10.6v14.6h-4.7l-.5-3h-.1c-2.6 2-5.9 3.7-9.2 3.7-4.8 0-8.2-2.9-8.2-7.2s4.8-8.4 16.9-9.2zm-7 11.8c2.5 0 4.8-1.2 7-3v-5.2c-8.8.6-11.4 2.4-11.4 5.1s1.9 3.1 4.4 3.1zM655.1 186.3h4.8l.5 3.7h.2c2.3-2.4 5.1-4.3 8.9-4.3 5.6 0 8.3 3.6 8.3 10v15.2h-5.8v-14.5c0-4-1.3-5.8-4.6-5.8s-4.1 1.2-6.3 3.5v16.8h-5.8v-24.6zM706.8 210.9h-4.8l-.5-3.9h-.2c-2.3 2.7-5.1 4.5-8.7 4.5-5.7 0-8.2-3.6-8.2-10v-15.2h5.8v14.5c0 4 1.2 5.8 4.6 5.8s4-1 6.2-3.7v-16.6h5.8v24.6zM720.5 190.9h-6.6v-4.3l6.8-.2.8-6.7h4.8v6.7h11.2v4.5h-11.3v10.1c0 4 1.5 5.9 5.7 5.9a15.1 15.1 0 0 0 5.5-1l1 4.2a24.5 24.5 0 0 1-7.9 1.4c-7.5 0-10-4.2-10-10.5v-10.1zM579.2 237.6a13.1 13.1 0 0 1 9.3 4.1l-3.3 3.6a8.2 8.2 0 0 0-6-2.7c-5.5 0-9.2 4.5-9.2 11.9s3.8 12 9.4 12a8.5 8.5 0 0 0 6.6-3.2l3.2 3.5a12.9 12.9 0 0 1-10.1 4.8c-8.4 0-15-6-15-16.9s6.4-17.1 15.1-17.1zM606 245.7c6.5 0 12.4 4.7 12.4 12.9s-5.9 12.9-12.4 12.9-12.4-4.7-12.4-12.9 6-12.9 12.4-12.9zm0 21.1c4 0 6.4-3.3 6.4-8.2s-2.4-8.2-6.4-8.2-6.4 3.3-6.4 8.2 2.4 8.2 6.4 8.2zM625.1 246.3h4.8l.5 3.7h.2c2.3-2.4 5.1-4.3 8.9-4.3 5.6 0 8.3 3.6 8.3 10v15.2h-5.8v-14.5c0-4-1.3-5.8-4.6-5.8s-4.1 1.2-6.3 3.5v16.8h-5.8v-24.6zM660.5 250.9h-6.6v-4.3l6.8-.2.8-6.7h4.8v6.7h11.2v4.5h-11.2v10.1c0 4 1.5 5.9 5.7 5.9a15.1 15.1 0 0 0 5.5-1l1 4.2a24.5 24.5 0 0 1-7.9 1.4c-7.5 0-10-4.2-10-10.5v-10.1zM696.7 245.7c7.3 0 11.4 4.9 11.4 11.7a16.6 16.6 0 0 1-.2 2.7h-17.9c.5 4.5 3.8 7 8.3 7a13.6 13.6 0 0 0 6.9-2l2 3.6a18.4 18.4 0 0 1-9.6 2.9c-7.5 0-13.4-4.8-13.4-12.9a12.5 12.5 0 0 1 12.5-13zm6.1 10.7c0-3.9-2.1-6.3-6-6.3a6.9 6.9 0 0 0-6.9 6.3h12.9zM715.1 246.3h4.8l.5 3.7h.2c2.3-2.4 5.1-4.3 8.9-4.3 5.7 0 8.3 3.6 8.3 10v15.2h-5.8v-14.5c0-4-1.2-5.8-4.6-5.8s-4.1 1.2-6.3 3.5v16.8h-5.8v-24.6zM750.5 250.9h-6.6v-4.3l6.8-.2.8-6.7h4.8v6.7h11.2v4.5h-11.3v10.1c0 4 1.5 5.9 5.7 5.9a15.1 15.1 0 0 0 5.5-1l1 4.2a24.5 24.5 0 0 1-7.9 1.4c-7.5 0-10-4.2-10-10.5v-10.1zM564.6 298.2h5.8v13.2h11.2v-13.2h5.8v32.7h-5.8v-14.5h-11.2v14.5h-5.8v-32.7zM603.1 303.1h-10.3v-4.9h26.4v4.9h-10.3v27.8h-5.8v-27.8zM624.6 298.2h6l4 12.7 1.4 5h.2l1.3-5 3.9-12.7h6v32.7h-4.7v-14.5c0-3.1.5-9.4.7-12.5h-.2l-2.4 8-3.5 10.2h-2.8l-3.5-10.2-2.3-8h-.1c.3 3.1.8 9.4.8 12.5v14.5h-4.7v-32.7zM657 298.2h5.8v27.8h15.4v4.9h-21.2v-32.7z"/></svg>