<svg xmlns="http://www.w3.org/2000/svg" width="1000" height="610" viewBox="0 0 1000 610"><defs><style>.a{fill:#9d35af;}.b{fill:#672373;}.c{fill:#00675a;}.d{fill:#63666a;}.e,.g{fill:none;stroke-miterlimit:10;stroke-width:2px;}.e{stroke:#dfdcda;}.f{fill:#666;}.g{stroke:#ccc;}</style></defs><title>parts-self-closing</title><path class="a" d="M935 288.8l-11 7.3v-3.1l8.2-5.3-8.2-5.3v-3.1l11 7.3v2.4zM65 286.4l11-7.3v3.1l-8.2 5.3 8.2 5.5v3.1l-11-7.3v-2.4zM81.4 282.4h9.6v14.3h-3.4v-11.6h-6.2v-2.6zm5.2-4.7a2.4 2.4 0 0 1 4.8 0 2.4 2.4 0 0 1-4.7 0zM97.8 282.4h2.5l.3 1.8h.1a3.4 3.4 0 0 1 3.1-2.2 2.6 2.6 0 0 1 2.6 2.4 3.6 3.6 0 0 1 3.2-2.4c2 0 3.2 1.7 3.2 4.5v10.1h-3.2v-9.8c0-1.3-.4-1.9-1.2-1.9s-1.3.6-1.9 1.8v10h-2.5v-9.8c0-1.3-.4-1.9-1.2-1.9s-1.2.6-1.8 1.8v10h-3.2v-14.4zM117.9 296.2a2.7 2.7 0 0 1-1.5-2.4 3.6 3.6 0 0 1 1.7-2.7 4.4 4.4 0 0 1-1.8-3.7c0-3.3 2.7-5.1 5.9-5.1a6.6 6.6 0 0 1 2.2.3h5.8v2.5h-3.2a3.9 3.9 0 0 1 1 2.4c0 3.2-2.5 4.8-5.7 4.8a6.8 6.8 0 0 1-2.2-.4 1.5 1.5 0 0 0-.9 1.3c0 1 .9 1.4 2.7 1.4h2.9c3.7 0 5.6 1 5.6 3.5s-3.2 5.1-8.2 5.1-6.5-1.2-6.5-3.8.8-2.4 2.2-3.2zm4.6 4.6c2.8 0 4.6-1.1 4.6-2.3s-1-1.4-2.9-1.4h-2.2a7.4 7.4 0 0 1-2.2-.2 2.3 2.3 0 0 0-1.4 1.9c.1 1.2 1.5 2 4.2 2zm2.4-13.6a2.7 2.7 0 1 0-5.4 0 2.7 2.7 0 1 0 5.5 0z"/><path class="b" d="M151.8 293.3a9.2 9.2 0 0 0 5.8 1.9c2.5 0 3.8-1 3.8-2.2s-1.1-1.9-4.6-2.7-5.4-2-5.4-4 2-4 5.9-4a10.6 10.6 0 0 1 5.7 1.7l-1.2 1.5a7.8 7.8 0 0 0-4.5-1.5c-2.6 0-3.5.9-3.5 2s1.7 1.9 4.3 2.5 5.6 2.1 5.6 4.2-2.2 4.2-6.3 4.2a12.3 12.3 0 0 1-6.9-2.2zM170.2 282.6h2l.2 3.3h.1a7.5 7.5 0 0 1 6.3-3.7 5.8 5.8 0 0 1 2.8.6l-.5 2.1a6.7 6.7 0 0 0-2.6-.5c-2.1 0-4.1 1.1-5.8 4v8.3h-2.4v-14.1zM193.6 282.2a7.2 7.2 0 0 1 5.1 2.1l-1.2 1.5a5.7 5.7 0 0 0-3.9-1.6 5.2 5.2 0 0 0-5.5 5.5 5.1 5.1 0 0 0 5.4 5.4 6.9 6.9 0 0 0 4.4-1.8l1 1.5a8.4 8.4 0 0 1-5.6 2.2c-4.4 0-7.7-2.7-7.7-7.4s3.7-7.4 8-7.4zM203.3 283.7h12.5v1.8h-12.5v-1.8zm0 6.2h12.5v1.8h-12.5v-1.8z"/><path class="c" d="M226.2 279.9v-3.2h3.2v3.2l-.8 6.5h-1.6zm6.7 0v-3.2h3.1v3.2l-.7 6.5h-1.6zM242.4 282.6h8.9v14.1h-2.3v-12.2h-6.6v-1.9zm5.6-4.7a1.9 1.9 0 1 1 1.9 1.8 1.8 1.8 0 0 1-1.9-1.9zM259 282.6h1.9l.2 1.9h.1a3.4 3.4 0 0 1 3.2-2.2c1.4 0 2.3.8 2.7 2.4.8-1.5 1.8-2.4 3.3-2.4s3.1 1.5 3.1 4.4v10.1h-2.3v-9.9c0-1.7-.5-2.5-1.5-2.5s-1.7.7-2.4 2.2v10.2h-1.9v-9.9c0-1.7-.6-2.5-1.6-2.5s-1.6.7-2.4 2.2v10.2h-2.4v-14.2zM287.2 287.8c-.1-1.9-1-3.5-3.7-3.5a9.8 9.8 0 0 0-4.9 1.7l-.9-1.6a12.2 12.2 0 0 1 6.3-2c3.9 0 5.7 2.3 5.7 5.8v8.7h-1.9l-.2-1.9h-.1a9.6 9.6 0 0 1-5.6 2.3c-2.6 0-4.8-1.5-4.8-4s2.8-5 10.1-5.5zm-4.8 7.4a7.6 7.6 0 0 0 4.8-2.1v-3.7c-6 .5-7.9 1.7-7.9 3.5s1.5 2.2 3.1 2.2zM296.5 296.1a2.6 2.6 0 0 1-1.5-2.3 3.4 3.4 0 0 1 1.7-2.6 4.5 4.5 0 0 1-1.7-3.7c0-3.1 2.6-5.1 5.5-5.1a5.7 5.7 0 0 1 2.1.3h5.8v1.8h-3.8a4.3 4.3 0 0 1 1.3 3c0 3-2.4 4.9-5.5 4.9a6.1 6.1 0 0 1-2.4-.5 1.9 1.9 0 0 0-1.1 1.6c0 1.1 1.1 1.6 2.9 1.6h3.2c3.6 0 5.4.9 5.4 3.3s-3.1 4.9-7.8 4.9-6.5-1.4-6.5-3.9.9-2.4 2.4-3.3zm4.4 5.4c3.3 0 5.3-1.5 5.3-2.9s-1.1-1.7-3.2-1.7h-2.8a8 8 0 0 1-2.2-.2c-1.3.7-1.8 1.5-1.8 2.4s1.6 2.5 4.7 2.5zm2.9-14.3a3.3 3.3 0 1 0-3.3 3.3 3.2 3.2 0 0 0 3.3-3.2zM318.7 282.2c4 0 6.4 2.6 6.4 6.6a8.4 8.4 0 0 1-.1 1.3h-11a5.1 5.1 0 0 0 5.4 5 7.8 7.8 0 0 0 4.3-1.3l.8 1.6a9.8 9.8 0 0 1-5.4 1.7c-4.2 0-7.6-2.8-7.6-7.4a7.2 7.2 0 0 1 7.2-7.5zm4.2 6.4c0-2.9-1.6-4.5-4.2-4.5a4.8 4.8 0 0 0-4.8 4.5h8.9zM330.2 293.3a9.2 9.2 0 0 0 5.8 1.9c2.5 0 3.8-1 3.8-2.2s-1.1-1.9-4.6-2.7-5.4-2-5.4-4 2-4 5.9-4a10.6 10.6 0 0 1 5.7 1.8l-1.2 1.5a7.8 7.8 0 0 0-4.5-1.5c-2.6 0-3.5.9-3.5 2s1.7 1.9 4.3 2.5 5.6 2.1 5.6 4.2-2.2 4.2-6.3 4.2a12.3 12.3 0 0 1-6.9-2.2zM349.4 301.3h-2.2l9.5-25.3h2.2zM366.9 297.9v4.8h-2.4v-20.1h2l.2 1.8h.1a7.4 7.4 0 0 1 4.9-2.1c3.8 0 5.8 2.8 5.8 7.2s-3 7.6-6.4 7.6a6.8 6.8 0 0 1-4.2-1.8v2.7zm3.8-2.8c2.5 0 4.4-2.1 4.4-5.6s-1.2-5.2-4-5.2a6.2 6.2 0 0 0-4.2 2.1v7a6.1 6.1 0 0 0 3.7 1.6zM385.2 284.5h-4v-1.8h4.1l.3-4h2v4h6.9v1.9h-6.9v6.7c0 2.5.8 3.9 3.6 3.9a9.2 9.2 0 0 0 3.4-.6l.5 1.7a13.3 13.3 0 0 1-4.4.8c-4.1 0-5.4-2.4-5.4-5.8v-6.7zM405.8 282.2c4 0 6.4 2.6 6.4 6.6a8.4 8.4 0 0 1-.1 1.3h-11a5.1 5.1 0 0 0 5.4 5 7.8 7.8 0 0 0 4.3-1.3l.8 1.6a9.8 9.8 0 0 1-5.4 1.7c-4.2 0-7.6-2.8-7.6-7.4a7.2 7.2 0 0 1 7.2-7.5zm4.2 6.4c0-2.9-1.6-4.5-4.2-4.5a4.8 4.8 0 0 0-4.8 4.5h9zM418.3 282.6h2l.2 3.3h.1a7.5 7.5 0 0 1 6.3-3.7 5.8 5.8 0 0 1 2.8.6l-.5 2.1a6.7 6.7 0 0 0-2.6-.5c-2.1 0-4.1 1.1-5.8 4v8.3h-2.4v-14.1zM444.1 287.8c-.1-1.9-1-3.5-3.7-3.5a9.8 9.8 0 0 0-4.9 1.7l-.9-1.6a12.2 12.2 0 0 1 6.3-2c3.9 0 5.7 2.3 5.7 5.8v8.7h-1.9l-.2-1.9h-.1a9.6 9.6 0 0 1-5.6 2.3c-2.6 0-4.8-1.5-4.8-4s2.8-5 10.1-5.5zm-4.8 7.4a7.6 7.6 0 0 0 4.8-2.1v-3.7c-6 .5-7.9 1.7-7.9 3.5s1.5 2.2 3.1 2.2zM451.6 282.6h2l.2 2.4h.1c1.5-1.6 3.1-2.8 5.3-2.8s4.9 2 4.9 5.7v8.8h-2.4v-8.5c0-2.7-.9-4-3.3-4s-2.8.8-4.5 2.6v9.8h-2.4v-14zM475.1 282.2c3.7 0 7 2.7 7 7.4s-3.3 7.4-7 7.4-7-2.7-7-7.4 3.2-7.4 7-7.4zm0 12.8c2.7 0 4.5-2.2 4.5-5.4s-1.8-5.5-4.5-5.5-4.5 2.2-4.5 5.5 1.8 5.5 4.5 5.5zM491.9 282.2a6.2 6.2 0 0 1 4.3 1.8v-8h2.4v20.7h-2l-.2-1.9h-.1a6.8 6.8 0 0 1-4.6 2.2c-3.7 0-6.1-2.7-6.1-7.4s3-7.4 6.3-7.4zm.2 12.8a5.4 5.4 0 0 0 4-2.1v-7a5.3 5.3 0 0 0-3.7-1.7c-2.4 0-4.4 2.2-4.4 5.4s1.5 5.4 4.1 5.4zM509.9 282.2c3.7 0 7 2.7 7 7.4s-3.3 7.4-7 7.4-7-2.7-7-7.4 3.3-7.4 7-7.4zm0 12.8c2.7 0 4.5-2.2 4.5-5.4s-1.8-5.5-4.5-5.5-4.5 2.2-4.5 5.5 1.8 5.5 4.5 5.5zM521.3 282.6h2l.2 2.4h.1c1.5-1.6 3.1-2.8 5.3-2.8s4.9 2 4.9 5.7v8.8h-2.4v-8.5c0-2.7-.9-4-3.3-4s-2.8.8-4.5 2.6v9.8h-2.4v-14zM544.8 292.1a2.5 2.5 0 1 1-2.4 2.5 2.3 2.3 0 0 1 2.4-2.5zM556.1 282.6h8.9v14.4c0 3.5-1.4 6-5.9 6a9.4 9.4 0 0 1-4-1l.8-1.8a7.5 7.5 0 0 0 3.2.8c2.8 0 3.6-1.4 3.6-3.8v-12.7h-6.6v-1.9zm5.6-4.7a1.9 1.9 0 1 1 1.9 1.8 1.8 1.8 0 0 1-1.9-1.9zM576 297.9v4.8h-2.4v-20.1h2l.2 1.8h.1a7.4 7.4 0 0 1 4.9-2.1c3.8 0 5.8 2.8 5.8 7.2s-3 7.6-6.4 7.6a6.8 6.8 0 0 1-4.2-1.8v2.7zm3.8-2.8c2.5 0 4.4-2.1 4.4-5.6s-1.2-5.2-4-5.2a6.2 6.2 0 0 0-4.2 2.1v7a6.1 6.1 0 0 0 3.8 1.6zM592.8 296.1a2.6 2.6 0 0 1-1.5-2.3 3.4 3.4 0 0 1 1.7-2.6 4.5 4.5 0 0 1-1.7-3.7c0-3.1 2.6-5.1 5.5-5.1a5.7 5.7 0 0 1 2.1.3h5.8v1.8h-3.8a4.3 4.3 0 0 1 1.3 3c0 3-2.4 4.9-5.5 4.9a6.1 6.1 0 0 1-2.4-.5 1.9 1.9 0 0 0-1.1 1.6c0 1.1 1.1 1.6 2.9 1.6h3.2c3.6 0 5.4.9 5.4 3.3s-3.1 4.9-7.8 4.9-6.5-1.4-6.5-3.9.8-2.4 2.4-3.3zm4.4 5.4c3.3 0 5.3-1.5 5.3-2.9s-1.1-1.7-3.2-1.7h-2.8a8 8 0 0 1-2.1-.2c-1.3.7-1.8 1.5-1.8 2.4s1.5 2.5 4.5 2.5zm2.9-14.3a3.3 3.3 0 1 0-3.3 3.3 3.2 3.2 0 0 0 3.2-3.2zM609.6 279.9v-3.2h3.2v3.2l-.8 6.5h-1.6zm6.7 0v-3.2h3.2v3.2l-.7 6.5h-1.8z"/><path class="b" d="M650.1 287.8c-.1-1.9-1-3.5-3.7-3.5a9.8 9.8 0 0 0-4.9 1.7l-.9-1.6a12.2 12.2 0 0 1 6.3-2c3.9 0 5.7 2.3 5.7 5.8v8.7h-1.9l-.2-1.9h-.1a9.6 9.6 0 0 1-5.6 2.3c-2.6 0-4.8-1.5-4.8-4s2.8-5 10.1-5.5zm-4.8 7.4a7.6 7.6 0 0 0 4.8-2.1v-3.7c-6 .5-7.9 1.7-7.9 3.5s1.5 2.2 3.1 2.2zM657.3 276h7.2v16.1c0 2.1 1.1 2.9 2.8 2.9a6.4 6.4 0 0 0 2.7-.7l.6 1.8a10 10 0 0 1-3.8.8c-3 0-4.6-1.7-4.6-5.1v-13.8h-4.8v-2zM678.3 284.5h-4v-1.8h4.1l.3-4h2v4h6.9v1.9h-6.9v6.7c0 2.5.8 3.9 3.6 3.9a9.2 9.2 0 0 0 3.4-.6l.5 1.7a13.3 13.3 0 0 1-4.4.8c-4.1 0-5.4-2.4-5.4-5.8v-6.7zM692.3 283.7h12.5v1.8h-12.5v-1.8zm0 6.2h12.5v1.8h-12.5v-1.8z"/><path class="c" d="M714.2 279.9v-3.2h3.2v3.2l-.8 6.5h-1.6zm6.7 0v-3.2h3.1v3.2l-.7 6.5h-1.6zM730.8 277.6h5.8c4.2 0 7 1.4 7 5.6s-2.8 5.9-7 5.9h-3.4v7.6h-2.4v-19.1zm5.5 9.5c3.3 0 4.9-1.2 4.9-3.9s-1.6-3.7-4.9-3.7h-3.1v7.6h3.1zM751.2 284.5h-4v-1.8h4.1l.3-4h2v4h6.9v1.9h-6.9v6.7c0 2.5.8 3.9 3.6 3.9a9.2 9.2 0 0 0 3.4-.6l.5 1.7a13.3 13.3 0 0 1-4.4.8c-4.1 0-5.4-2.4-5.4-5.8v-6.7zM771.8 282.2c4 0 6.4 2.6 6.4 6.6a8.4 8.4 0 0 1-.1 1.3h-11a5.1 5.1 0 0 0 5.4 5 7.8 7.8 0 0 0 4.3-1.3l.8 1.6a9.8 9.8 0 0 1-5.4 1.7c-4.2 0-7.6-2.8-7.6-7.4a7.2 7.2 0 0 1 7.2-7.5zm4.2 6.4c0-2.9-1.6-4.5-4.2-4.5a4.8 4.8 0 0 0-4.8 4.5h9zM784.3 282.6h2l.2 3.3h.1a7.5 7.5 0 0 1 6.3-3.7 5.8 5.8 0 0 1 2.8.6l-.5 2.1a6.7 6.7 0 0 0-2.6-.5c-2.1 0-4.1 1.1-5.8 4v8.3h-2.4v-14.1zM810.1 287.8c-.1-1.9-1-3.5-3.7-3.5a9.8 9.8 0 0 0-4.9 1.7l-.9-1.6a12.2 12.2 0 0 1 6.3-2c3.9 0 5.7 2.3 5.7 5.8v8.7h-1.9l-.2-1.9h-.1a9.6 9.6 0 0 1-5.6 2.3c-2.6 0-4.8-1.5-4.8-4s2.8-5 10.1-5.5zm-4.8 7.4a7.6 7.6 0 0 0 4.8-2.1v-3.7c-6 .5-7.9 1.7-7.9 3.5s1.5 2.2 3.1 2.2zM817.6 282.6h2l.2 2.4h.1c1.5-1.6 3.1-2.8 5.3-2.8s4.9 2 4.9 5.7v8.8h-2.4v-8.5c0-2.7-.9-4-3.3-4s-2.8.8-4.5 2.6v9.8h-2.4v-14zM841.1 282.2c3.7 0 7 2.7 7 7.4s-3.3 7.4-7 7.4-7-2.7-7-7.4 3.3-7.4 7-7.4zm0 12.8c2.7 0 4.5-2.2 4.5-5.4s-1.8-5.5-4.5-5.5-4.5 2.2-4.5 5.5 1.8 5.5 4.5 5.5zM858 282.2a6.2 6.2 0 0 1 4.3 1.8v-8h2.4v20.7h-2l-.2-1.9h-.1a6.8 6.8 0 0 1-4.6 2.2c-3.7 0-6.1-2.7-6.1-7.4s2.9-7.4 6.3-7.4zm.2 12.8a5.4 5.4 0 0 0 4-2.1v-7a5.3 5.3 0 0 0-3.7-1.7c-2.4 0-4.4 2.2-4.4 5.4s1.4 5.4 4.1 5.4zM875.9 282.2c3.7 0 7 2.7 7 7.4s-3.3 7.4-7 7.4-7-2.7-7-7.4 3.3-7.4 7-7.4zm0 12.8c2.7 0 4.5-2.2 4.5-5.4s-1.8-5.5-4.5-5.5-4.5 2.2-4.5 5.5 1.8 5.5 4.5 5.5zM887.3 282.6h2l.2 2.4h.1c1.5-1.6 3.1-2.8 5.3-2.8s4.9 2 4.9 5.7v8.8h-2.4v-8.5c0-2.7-.9-4-3.3-4s-2.8.8-4.5 2.6v9.8h-2.4v-14zM905.9 279.9v-3.2h3.1v3.2l-.8 6.5h-1.6zm6.7 0v-3.2h3.2v3.2l-.7 6.5h-1.6z"/><path class="d" d="M434 148.8a5.1 5.1 0 0 0 3.2 1.1c1.4 0 2.1-.5 2.1-1.2s-.6-1-2.5-1.5-3-1.1-3-2.2 1.1-2.2 3.3-2.2a5.8 5.8 0 0 1 3.1 1l-.6.8a4.3 4.3 0 0 0-2.5-.8c-1.5 0-1.9.5-1.9 1.1s1 1 2.4 1.4 3.1 1.1 3.1 2.3-1.2 2.3-3.5 2.3a6.8 6.8 0 0 1-3.8-1.2zM446.9 142.7a3.3 3.3 0 0 1 3.5 3.6 4.6 4.6 0 0 1 0 .7h-6.1a2.8 2.8 0 0 0 3 2.7 4.3 4.3 0 0 0 2.4-.7l.5.9a5.4 5.4 0 0 1-3 .9 4.1 4.1 0 0 1-.3-8.1zm2.3 3.5a2.2 2.2 0 0 0-2.3-2.5 2.6 2.6 0 0 0-2.6 2.5h4.9zM452.7 139.3h4v8.9a1.4 1.4 0 0 0 1.5 1.6 3.5 3.5 0 0 0 1.5-.4l.3 1a5.5 5.5 0 0 1-2.1.5c-1.6 0-2.5-1-2.5-2.8v-7.7h-2.7v-1.1zM470 140.5a4 4 0 0 0-1.8-.4 1.8 1.8 0 0 0-2 2v.7h3.3v1.2h-3.3v6.7h-1.3v-6.7h-2.2v-1h2.2v-.7a2.8 2.8 0 0 1 3.1-3.2 5.8 5.8 0 0 1 2.2.4zM472.8 145.4h5.3v1.2h-5.3v-1.2zM485.8 142.7a4 4 0 0 1 2.8 1.1l-.7.8a3.1 3.1 0 0 0-2.1-.9 2.9 2.9 0 0 0-3 3 2.8 2.8 0 0 0 3 3 3.8 3.8 0 0 0 2.4-1l.6.8a4.6 4.6 0 0 1-3.1 1.2 3.9 3.9 0 0 1-4.3-4.1 4 4 0 0 1 4.4-3.9zM491.1 139.3h4v8.9a1.4 1.4 0 0 0 1.5 1.6 3.5 3.5 0 0 0 1.5-.4l.3 1a5.5 5.5 0 0 1-2.1.5c-1.6 0-2.5-1-2.5-2.8v-7.7h-2.7v-1.1zM504.2 142.7a4.1 4.1 0 1 1-3.8 4.1 3.8 3.8 0 0 1 3.8-4.1zm0 7.1c1.5 0 2.5-1.2 2.5-3s-1-3-2.5-3-2.5 1.2-2.5 3 1 3 2.5 3zM510.8 148.8a5.1 5.1 0 0 0 3.2 1.1c1.4 0 2.1-.5 2.1-1.2s-.6-1-2.5-1.5-3-1.1-3-2.2 1.1-2.2 3.3-2.2a5.8 5.8 0 0 1 3.1 1l-.6.8a4.3 4.3 0 0 0-2.5-.8c-1.5 0-1.9.5-1.9 1.1s1 1 2.4 1.4 3.1 1.1 3.1 2.3-1.2 2.3-3.5 2.3a6.8 6.8 0 0 1-3.8-1.2zM520.1 142.9h4.9v7.8h-1.3v-6.7h-3.6v-1.1zm3.1-2.6a1.1 1.1 0 1 1 1.1 1 1 1 0 0 1-1.2-1zM529.7 142.9h1.1v1.3h.2a4 4 0 0 1 2.9-1.5c1.8 0 2.7 1.1 2.7 3.1v4.8h-1.3v-4.6c0-1.5-.5-2.2-1.8-2.2s-1.6.5-2.5 1.4v5.4h-1.3v-7.8zM540.3 150.4a1.4 1.4 0 0 1-.8-1.3 1.9 1.9 0 0 1 .9-1.5 2.5 2.5 0 0 1-1-2 2.9 2.9 0 0 1 3.1-2.8l1.2.2h3.2v1h-2.1a2.4 2.4 0 0 1 .7 1.6 2.7 2.7 0 0 1-3 2.7l-1.3-.3a1.1 1.1 0 0 0-.6.9c0 .6.6.9 1.6.9h1.7c2 0 3 .5 3 1.8s-1.7 2.7-4.3 2.7-3.6-.8-3.6-2.2a2.2 2.2 0 0 1 1.3-1.7zm2.4 3c1.8 0 2.9-.8 2.9-1.6s-.6-.9-1.8-.9h-2.7a1.5 1.5 0 0 0-1 1.3c0 .6.9 1.2 2.6 1.2zm1.6-7.9a1.8 1.8 0 1 0-1.8 1.8 1.8 1.8 0 0 0 1.8-1.8zM560.3 144h-2.2v-1h2.2l.2-2.2h1.1v2.2h3.8v1h-3.8v3.7c0 1.4.5 2.1 2 2.1a5.1 5.1 0 0 0 1.9-.4l.3 1a7.3 7.3 0 0 1-2.4.5c-2.3 0-3-1.3-3-3.2v-3.7zM573.5 145.7a1.8 1.8 0 0 0-2.1-2 5.4 5.4 0 0 0-2.7.9l-.5-.9a6.7 6.7 0 0 1 3.5-1.1 2.9 2.9 0 0 1 3.2 3.2v4.8h-1.1v-1.1a5.3 5.3 0 0 1-3.1 1.2c-1.5 0-2.6-.8-2.6-2.2s1.4-2.4 5.4-2.8zm-2.6 4.1a4.2 4.2 0 0 0 2.6-1.2v-2c-3.3.3-4.4.9-4.4 2s.9 1.2 1.8 1.2zM578.6 150.4a1.4 1.4 0 0 1-.8-1.3 1.9 1.9 0 0 1 .9-1.5 2.5 2.5 0 0 1-1-2 2.9 2.9 0 0 1 3.1-2.8l1.2.2h3.2v1h-2.1a2.4 2.4 0 0 1 .7 1.6 2.7 2.7 0 0 1-3 2.7l-1.3-.3a1.1 1.1 0 0 0-.6.9c0 .6.6.9 1.6.9h1.7c2 0 3 .5 3 1.8s-1.7 2.7-4.3 2.7-3.6-.8-3.6-2.2a2.2 2.2 0 0 1 1.3-1.7zm2.4 3c1.8 0 2.9-.8 2.9-1.6s-.6-.9-1.8-.9h-2.7a1.5 1.5 0 0 0-1 1.3c.1.6 1 1.2 2.7 1.2zm1.6-7.9a1.8 1.8 0 1 0-1.8 1.8 1.8 1.8 0 0 0 1.9-1.8z"/><path class="e" d="M942.6 291.8v-108.3h-884.2v108.3M510 160.1v23.4"/><path class="f" d="M409.8 461.7h1v1a1.9 1.9 0 0 1 1.7-1.2 1.4 1.4 0 0 1 1.5 1.3 2.1 2.1 0 0 1 1.8-1.3c1.1 0 1.7.8 1.7 2.4v5.6h-1.3v-5.5c0-.9-.3-1.4-.8-1.4a1.6 1.6 0 0 0-1.3 1.2v5.6h-1.1v-5.4c0-.9-.3-1.4-.9-1.4s-.9.4-1.3 1.2v5.6h-1.3v-7.8zM426.5 469.5h-1.1v-1.4h-.1a3.8 3.8 0 0 1-2.9 1.6c-1.9 0-2.7-1.1-2.7-3.1v-4.8h1.3v4.7c0 1.5.5 2.2 1.8 2.2a3.1 3.1 0 0 0 2.4-1.4v-5.4h1.3v7.8zM429.3 458.1h4v8.9a1.4 1.4 0 0 0 1.5 1.6 3.5 3.5 0 0 0 1.5-.4l.3 1a5.5 5.5 0 0 1-2.1.5c-1.6 0-2.5-1-2.5-2.8v-7.7h-2.7v-1.1zM440.9 462.8h-2.2v-1h2.2l.2-2.2h1.1v2.2h3.8v1.1h-3.8v3.7c0 1.4.5 2.1 2 2.1a5.1 5.1 0 0 0 1.9-.4l.3 1a7.3 7.3 0 0 1-2.4.5c-2.3 0-3-1.3-3-3.2v-3.7zM448.6 461.7h4.9v7.8h-1.3v-6.7h-3.6v-1.1zm3.1-2.6a1.1 1.1 0 1 1 1.1 1 1 1 0 0 1-1.1-1zM459.6 470.2v2.6h-1.3v-11.1h1.1v1a4.1 4.1 0 0 1 2.7-1.2c2.1 0 3.2 1.6 3.2 4s-1.7 4.2-3.5 4.2a3.7 3.7 0 0 1-2.3-1v1.5zm2.1-1.6c1.4 0 2.4-1.2 2.4-3.1s-.6-2.9-2.2-2.9a3.4 3.4 0 0 0-2.3 1.2v3.9a3.4 3.4 0 0 0 2.1.9zM467.7 458.1h4v8.9a1.4 1.4 0 0 0 1.5 1.6 3.5 3.5 0 0 0 1.5-.4l.3 1a5.5 5.5 0 0 1-2.1.5c-1.6 0-2.5-1-2.5-2.8v-7.7h-2.7v-1.1zM481.1 461.5a3.3 3.3 0 0 1 3.5 3.6 4.6 4.6 0 0 1 0 .7h-6.1a2.8 2.8 0 0 0 3 2.7 4.3 4.3 0 0 0 2.4-.7l.5.9a5.4 5.4 0 0 1-3 .9 4.1 4.1 0 0 1-.3-8.1zm2.3 3.5a2.2 2.2 0 0 0-2.3-2.5 2.6 2.6 0 0 0-2.6 2.5h4.9zM502.1 464.6a1.8 1.8 0 0 0-2.1-2 5.4 5.4 0 0 0-2.7.9l-.5-.9a6.7 6.7 0 0 1 3.5-1.1 2.9 2.9 0 0 1 3.2 3.2v4.8h-1.1v-1.1a5.3 5.3 0 0 1-3.1 1.2c-1.5 0-2.6-.8-2.6-2.2s1.4-2.5 5.4-2.8zm-2.6 4.1a4.2 4.2 0 0 0 2.6-1.2v-2c-3.3.3-4.4.9-4.4 2s.9 1.1 1.8 1.1zM508.1 462.8h-2.2v-1h2.2l.2-2.2h1.1v2.2h3.8v1.1h-3.8v3.7c0 1.4.5 2.1 2 2.1a5.1 5.1 0 0 0 1.9-.4l.3 1a7.3 7.3 0 0 1-2.4.5c-2.3 0-3-1.3-3-3.2v-3.7zM517.7 462.8h-2.2v-1h2.2l.2-2.2h1.1v2.2h3.8v1.1h-3.8v3.7c0 1.4.5 2.1 2 2.1a5.1 5.1 0 0 0 1.9-.4l.3 1a7.3 7.3 0 0 1-2.4.5c-2.3 0-3-1.3-3-3.2v-3.7zM526.3 461.7h1.1v1.8a4.1 4.1 0 0 1 3.5-2 3.2 3.2 0 0 1 1.5.3l-.3 1.1a3.7 3.7 0 0 0-1.5-.3c-1.2 0-2.3.6-3.2 2.2v4.6h-1.3v-7.8zM535 461.7h5v7.8h-1.3v-6.7h-3.7v-1.1zm3.1-2.6a1.1 1.1 0 1 1 1.1 1 1 1 0 0 1-1.1-1zM544.7 458.1h1.3v4.6a4 4 0 0 1 2.6-1.2c2.1 0 3.2 1.6 3.2 4s-1.7 4.2-3.5 4.2a3.9 3.9 0 0 1-2.4-1.1v.9h-1.1v-11.4zm3.4 10.5c1.4 0 2.4-1.2 2.4-3.1s-.6-2.9-2.2-2.9a3.4 3.4 0 0 0-2.3 1.2v3.9a3.4 3.4 0 0 0 2.1.9zM560.9 469.5h-1.1v-1.4h-.1a3.8 3.8 0 0 1-2.9 1.6c-1.9 0-2.7-1.1-2.7-3.1v-4.8h1.3v4.7c0 1.5.5 2.2 1.8 2.2a3.1 3.1 0 0 0 2.4-1.4v-5.4h1.3v7.8zM565.7 462.8h-2.2v-1h2.2l.2-2.2h1.1v2.2h3.8v1.1h-3.8v3.7c0 1.4.5 2.1 2 2.1a5.1 5.1 0 0 0 1.9-.4l.3 1a7.3 7.3 0 0 1-2.4.5c-2.3 0-3-1.3-3-3.2v-3.7zM577.1 461.5a3.3 3.3 0 0 1 3.5 3.6 4.6 4.6 0 0 1 0 .7h-6.1a2.8 2.8 0 0 0 3 2.7 4.3 4.3 0 0 0 2.4-.7l.5.9a5.4 5.4 0 0 1-3 .9 4.1 4.1 0 0 1-.3-8.1zm2.3 3.5a2.2 2.2 0 0 0-2.3-2.5 2.6 2.6 0 0 0-2.6 2.5h4.9zM583.4 467.6a5.1 5.1 0 0 0 3.2 1.1c1.4 0 2.1-.5 2.1-1.2s-.6-1-2.5-1.5-3-1.1-3-2.2 1.1-2.2 3.3-2.2a5.8 5.8 0 0 1 3.1 1l-.6.8a4.3 4.3 0 0 0-2.5-.8c-1.5 0-1.9.5-1.9 1.1s1 1 2.4 1.4 3.1 1.1 3.1 2.3-1.2 2.3-3.5 2.3a6.8 6.8 0 0 1-3.8-1.2z"/><path class="g" d="M618.1 310.1v19.2h-466.9v-19.2M922.5 310.1v19.2h-285v-19.2M384.7 329.3v26.5l115.3 90.2 280-90.2v-26.5"/></svg>