<svg xmlns="http://www.w3.org/2000/svg" width="1000" height="610" viewBox="0 0 1000 610"><defs><style>.a{fill:#9d35af;}.b{fill:#666;}.c{fill:#672373;}.d{fill:#00675a;}.e{fill:#555;}.f{fill:none;stroke:#ccc;stroke-miterlimit:10;stroke-width:2px;}</style></defs><title>parts-attr</title><path class="a" d="M586 288.8l-11 7.3v-3.1l8.2-5.3-8.2-5.3v-3.1l11 7.3v2.4zM32 286.4l11-7.3v3.1l-8.2 5.3 8.2 5.5v3.1l-11-7.3v-2.4zM57.9 287.6c-.1-1.6-1.1-2.8-3.4-2.8a10.1 10.1 0 0 0-4.7 1.5l-1.2-2.2a13.2 13.2 0 0 1 6.5-2c4 0 6.1 2.2 6.1 6.2v8.5h-2.7l-.3-1.8a9.2 9.2 0 0 1-5.3 2.1c-2.8 0-4.8-1.7-4.8-4.2s2.8-4.8 9.8-5.3zm-4.1 6.9a6.7 6.7 0 0 0 4.1-1.7v-3c-5.1.3-6.6 1.4-6.6 2.9s1.1 1.7 2.5 1.7z"/><path class="b" d="M285.7 207.3a1.8 1.8 0 0 0-2.1-2 5.4 5.4 0 0 0-2.7.9l-.5-.9a6.7 6.7 0 0 1 3.5-1.1 2.9 2.9 0 0 1 3.2 3.2v4.8h-1.1v-1.1a5.3 5.3 0 0 1-3.1 1.2c-1.5 0-2.6-.8-2.6-2.2s1.4-2.5 5.4-2.8zm-2.6 4.1a4.2 4.2 0 0 0 2.6-1.2v-2c-3.3.3-4.4.9-4.4 2s.8 1.1 1.7 1.1zM291.6 205.5h-2.2v-1h2.2l.2-2.2h1.2v2.2h3.8v1.1h-3.8v3.7c0 1.4.5 2.1 2 2.1a5.1 5.1 0 0 0 1.9-.4l.3 1a7.3 7.3 0 0 1-2.4.5c-2.3 0-3-1.3-3-3.2v-3.7zM301.2 205.5h-2.2v-1h2.2l.2-2.2h1.1v2.2h3.8v1.1h-3.8v3.7c0 1.4.5 2.1 2 2.1a5.1 5.1 0 0 0 1.9-.4l.3 1a7.3 7.3 0 0 1-2.4.5c-2.3 0-3-1.3-3-3.2v-3.7zM309.9 204.4h1.1v1.8a4.1 4.1 0 0 1 3.5-2 3.2 3.2 0 0 1 1.5.3l-.3 1.1a3.7 3.7 0 0 0-1.5-.3c-1.2 0-2.3.6-3.2 2.2v4.6h-1.3v-7.8zM318.6 204.4h4.9v7.8h-1.3v-6.7h-3.6v-1.1zm3.1-2.6a1.1 1.1 0 1 1 1.1 1 1 1 0 0 1-1.1-1zM328.2 200.8h1.3v4.6a4 4 0 0 1 2.6-1.2c2.1 0 3.2 1.6 3.2 4s-1.7 4.2-3.5 4.2a3.9 3.9 0 0 1-2.4-1.1v.9h-1.1v-11.4zm3.4 10.5c1.4 0 2.4-1.2 2.4-3.1s-.6-2.9-2.2-2.9a3.4 3.4 0 0 0-2.3 1.2v3.9a3.4 3.4 0 0 0 2.2.9zM344.4 212.2h-1.1v-1.4h-.1a3.8 3.8 0 0 1-2.9 1.6c-1.9 0-2.7-1.1-2.7-3.1v-4.8h1.3v4.7c0 1.5.5 2.2 1.8 2.2a3.1 3.1 0 0 0 2.4-1.4v-5.4h1.3v7.8zM349.2 205.5h-2.2v-1h2.2l.2-2.2h1.1v2.2h3.8v1.1h-3.8v3.7c0 1.4.5 2.1 2 2.1a5.1 5.1 0 0 0 1.9-.4l.3 1a7.3 7.3 0 0 1-2.4.5c-2.3 0-3-1.3-3-3.2v-3.7zM360.6 204.2a3.3 3.3 0 0 1 3.5 3.6 4.6 4.6 0 0 1 0 .7h-6.1a2.8 2.8 0 0 0 3 2.7 4.3 4.3 0 0 0 2.4-.7l.5.9a5.4 5.4 0 0 1-3 .9 4.1 4.1 0 0 1-.3-8.1zm2.3 3.5a2.2 2.2 0 0 0-2.3-2.5 2.6 2.6 0 0 0-2.6 2.5h4.9zM52 368.6a1.8 1.8 0 0 0-2.1-2 5.4 5.4 0 0 0-2.7.9l-.5-.9a6.7 6.7 0 0 1 3.5-1.1 2.9 2.9 0 0 1 3.2 3.2v4.8h-1.2v-1.1a5.3 5.3 0 0 1-3.1 1.2c-1.5 0-2.6-.8-2.6-2.2s1.4-2.5 5.5-2.8zm-2.6 4.1a4.2 4.2 0 0 0 2.6-1.2v-2c-3.3.3-4.4.9-4.4 2s.8 1.1 1.7 1.1zM57.9 366.8h-2.2v-1h2.3l.2-2.2h1.1v2.2h3.8v1.1h-3.9v3.7c0 1.4.5 2.1 2 2.1a5.1 5.1 0 0 0 1.9-.4l.3 1a7.3 7.3 0 0 1-2.4.5c-2.3 0-3-1.3-3-3.2v-3.7zM67.5 366.8h-2.2v-1h2.2l.2-2.2h1.1v2.2h3.8v1.1h-3.8v3.7c0 1.4.5 2.1 2 2.1a5.1 5.1 0 0 0 1.9-.4l.3 1a7.3 7.3 0 0 1-2.4.5c-2.3 0-3-1.3-3-3.2v-3.7zM76.2 365.7h1.1v1.8a4.1 4.1 0 0 1 3.5-2 3.2 3.2 0 0 1 1.5.3l-.2 1.2a3.7 3.7 0 0 0-1.5-.3c-1.2 0-2.3.6-3.2 2.2v4.6h-1.2v-7.8zM84.9 365.7h4.9v7.8h-1.3v-6.7h-3.6v-1.1zm3.1-2.6a1.1 1.1 0 1 1 1.1 1 1 1 0 0 1-1.2-1zM94.5 362.1h1.3v4.6a4 4 0 0 1 2.6-1.2c2.1 0 3.2 1.6 3.2 4s-1.7 4.2-3.5 4.2a3.9 3.9 0 0 1-2.4-1.1v.9h-1.2v-11.4zm3.4 10.5c1.4 0 2.4-1.2 2.4-3.1s-.6-2.9-2.2-2.9a3.4 3.4 0 0 0-2.3 1.2v3.9a3.4 3.4 0 0 0 2.1.9zM110.7 373.5h-1.1v-1.4h-.1a3.8 3.8 0 0 1-2.9 1.6c-1.9 0-2.7-1.1-2.7-3.1v-4.8h1.3v4.7c0 1.5.5 2.2 1.8 2.2a3.1 3.1 0 0 0 2.4-1.4v-5.4h1.3v7.8zM115.5 366.8h-2.2v-1h2.2l.2-2.2h1.1v2.2h3.8v1.1h-3.8v3.7c0 1.4.5 2.1 2 2.1a5.1 5.1 0 0 0 1.9-.4l.3 1a7.3 7.3 0 0 1-2.4.5c-2.3 0-3-1.3-3-3.2v-3.7zM126.9 365.5a3.3 3.3 0 0 1 3.5 3.6 4.6 4.6 0 0 1 0 .7h-6.1a2.8 2.8 0 0 0 3 2.7 4.3 4.3 0 0 0 2.4-.7l.5.9a5.4 5.4 0 0 1-3 .9 4.1 4.1 0 0 1-.3-8.1zm2.3 3.5a2.2 2.2 0 0 0-2.3-2.5 2.6 2.6 0 0 0-2.6 2.5h4.9zM142.5 365.7h1.1v1.3h.1a4 4 0 0 1 2.9-1.5c1.8 0 2.7 1.1 2.7 3.1v4.8h-1.3v-4.7c0-1.5-.5-2.2-1.8-2.2s-1.6.5-2.5 1.4v5.4h-1.3v-7.8zM157.6 368.6a1.8 1.8 0 0 0-2.1-2 5.4 5.4 0 0 0-2.7.9l-.5-.9a6.7 6.7 0 0 1 3.5-1.1 2.9 2.9 0 0 1 3.2 3.2v4.8h-1.1v-1.1a5.3 5.3 0 0 1-3.1 1.2c-1.5 0-2.6-.8-2.6-2.2s1.3-2.5 5.4-2.8zm-2.6 4.1a4.2 4.2 0 0 0 2.6-1.2v-2c-3.3.3-4.4.9-4.4 2s.8 1.1 1.7 1.1zM161.2 365.7h1v1a1.9 1.9 0 0 1 1.7-1.2 1.4 1.4 0 0 1 1.5 1.3 2.1 2.1 0 0 1 1.8-1.3c1.1 0 1.7.8 1.7 2.4v5.6h-1.3v-5.5c0-.9-.3-1.4-.8-1.4a1.6 1.6 0 0 0-1.3 1.2v5.6h-1.1v-5.4c0-.9-.3-1.4-.9-1.4s-.9.4-1.3 1.2v5.6h-1.3v-7.8zM174.9 365.5a3.3 3.3 0 0 1 3.5 3.6 4.6 4.6 0 0 1 0 .7h-6.1a2.8 2.8 0 0 0 3 2.7 4.3 4.3 0 0 0 2.4-.7l.5.9a5.4 5.4 0 0 1-3 .9 4.1 4.1 0 0 1-.3-8.1zm2.3 3.5a2.2 2.2 0 0 0-2.3-2.5 2.6 2.6 0 0 0-2.6 2.5h4.9zM304.6 368.6a1.8 1.8 0 0 0-2.1-2 5.4 5.4 0 0 0-2.7.9l-.5-.9a6.7 6.7 0 0 1 3.5-1.1 2.9 2.9 0 0 1 3.2 3.2v4.8h-1.1v-1.1a5.3 5.3 0 0 1-3.1 1.2c-1.5 0-2.6-.8-2.6-2.2s1.4-2.5 5.4-2.8zm-2.6 4.1a4.2 4.2 0 0 0 2.6-1.2v-2c-3.3.3-4.4.9-4.4 2s.9 1.1 1.8 1.1zM310.6 366.8h-2.2v-1h2.2l.2-2.2h1.1v2.2h3.8v1.1h-3.8v3.7c0 1.4.5 2.1 2 2.1a5.1 5.1 0 0 0 1.9-.4l.3 1a7.3 7.3 0 0 1-2.4.5c-2.3 0-3-1.3-3-3.2v-3.7zM320.2 366.8h-2.2v-1h2.2l.2-2.2h1.1v2.2h3.8v1.1h-3.8v3.7c0 1.4.5 2.1 2 2.1a5.1 5.1 0 0 0 1.9-.4l.3 1a7.3 7.3 0 0 1-2.4.5c-2.3 0-3-1.3-3-3.2v-3.7zM328.8 365.7h1.1v1.8a4.1 4.1 0 0 1 3.5-2 3.2 3.2 0 0 1 1.5.3l-.3 1.1a3.7 3.7 0 0 0-1.5-.3c-1.2 0-2.3.6-3.2 2.2v4.6h-1.3v-7.8zM337.5 365.7h4.9v7.8h-1.3v-6.7h-3.6v-1.1zm3.1-2.6a1.1 1.1 0 1 1 1.1 1 1 1 0 0 1-1.1-1zM347.1 362.1h1.3v4.6a4 4 0 0 1 2.6-1.2c2.1 0 3.2 1.6 3.2 4s-1.7 4.2-3.5 4.2a3.9 3.9 0 0 1-2.4-1.1v.9h-1.1v-11.4zm3.4 10.5c1.4 0 2.4-1.2 2.4-3.1s-.6-2.9-2.2-2.9a3.4 3.4 0 0 0-2.3 1.2v3.9a3.4 3.4 0 0 0 2.2.9zM363.3 373.5h-1.1v-1.4h-.1a3.8 3.8 0 0 1-2.9 1.6c-1.9 0-2.7-1.1-2.7-3.1v-4.8h1.3v4.7c0 1.5.5 2.2 1.8 2.2a3.1 3.1 0 0 0 2.4-1.4v-5.4h1.3v7.8zM368.2 366.8h-2.2v-1h2.2l.2-2.2h1.1v2.2h3.8v1.1h-3.8v3.7c0 1.4.5 2.1 2 2.1a5.1 5.1 0 0 0 1.9-.4l.3 1a7.3 7.3 0 0 1-2.4.5c-2.3 0-3-1.3-3-3.2v-3.7zM379.5 365.5a3.3 3.3 0 0 1 3.5 3.6 4.6 4.6 0 0 1 0 .7h-6.1a2.8 2.8 0 0 0 3 2.7 4.3 4.3 0 0 0 2.4-.7l.5.9a5.4 5.4 0 0 1-3 .9 4.1 4.1 0 0 1-.3-8.1zm2.3 3.5a2.2 2.2 0 0 0-2.3-2.5 2.6 2.6 0 0 0-2.6 2.5h4.9zM394.5 365.7h1.3l1.8 4.4.9 2.3h.1l.8-2.3 1.8-4.4h1.3l-3.2 7.8h-1.5zM410.2 368.6a1.8 1.8 0 0 0-2.1-2 5.4 5.4 0 0 0-2.7.9l-.5-.9a6.7 6.7 0 0 1 3.5-1.1 2.9 2.9 0 0 1 3.2 3.2v4.8h-1.1v-1.1a5.3 5.3 0 0 1-3.1 1.2c-1.5 0-2.6-.8-2.6-2.2s1.4-2.5 5.4-2.8zm-2.6 4.1a4.2 4.2 0 0 0 2.6-1.2v-2c-3.3.3-4.4.9-4.4 2s.9 1.1 1.7 1.1zM414.2 362.1h4v8.9a1.4 1.4 0 0 0 1.5 1.6 3.5 3.5 0 0 0 1.5-.4l.3 1a5.5 5.5 0 0 1-2.1.5c-1.6 0-2.5-1-2.5-2.8v-7.7h-2.7v-1.1zM430.5 373.5h-1.1v-1.4h-.1a3.8 3.8 0 0 1-2.9 1.6c-1.9 0-2.7-1.1-2.7-3.1v-4.8h1.3v4.7c0 1.5.5 2.2 1.8 2.2a3.1 3.1 0 0 0 2.4-1.4v-5.4h1.3v7.8zM437.1 365.5a3.3 3.3 0 0 1 3.5 3.6 4.6 4.6 0 0 1 0 .7h-6.1a2.8 2.8 0 0 0 3 2.7 4.3 4.3 0 0 0 2.4-.7l.5.9a5.4 5.4 0 0 1-3 .9 4.1 4.1 0 0 1-.3-8.1zm2.3 3.5a2.2 2.2 0 0 0-2.3-2.5 2.6 2.6 0 0 0-2.6 2.5h4.9z"/><path class="a" d="M905.1 286.4l11-7.3v3.1l-8.2 5.3 8.2 5.3v3.1l-11-7.3v-2.4zM924.5 301.3h-2.9l9.6-25.3h2.9zM948.5 287.6c-.1-1.6-1.1-2.8-3.4-2.8a10.1 10.1 0 0 0-4.7 1.5l-1.2-2.2a13.2 13.2 0 0 1 6.5-2c4 0 6.1 2.2 6.1 6.2v8.5h-2.7l-.3-1.8h-.1a9.2 9.2 0 0 1-5.3 2.1c-2.8 0-4.8-1.7-4.8-4.2s2.9-4.8 9.9-5.3zm-4.1 6.9a6.7 6.7 0 0 0 4.1-1.7v-3c-5.1.3-6.6 1.4-6.6 2.9s1.1 1.7 2.5 1.7zM968 288.8l-11 7.3v-3.1l8.2-5.3-8.2-5.3v-3.1l11 7.3v2.4z"/><path class="c" d="M80.2 276h2.4v9c1.5-1.6 3.1-2.8 5.3-2.8s4.9 2 4.9 5.7v8.8h-2.5v-8.5c0-2.7-.9-4-3.3-4s-2.8.8-4.5 2.6v9.8h-2.3v-20.6zM99.2 282.6h2l.2 3.3h.1a7.5 7.5 0 0 1 6.3-3.7 5.8 5.8 0 0 1 2.8.6l-.5 2.1a6.7 6.7 0 0 0-2.6-.5c-2.1 0-4.1 1.1-5.8 4v8.3h-2.5v-14.1zM121.5 282.2c4 0 6.4 2.6 6.4 6.6a8.4 8.4 0 0 1-.1 1.3h-11a5.1 5.1 0 0 0 5.4 5 7.8 7.8 0 0 0 4.3-1.3l.8 1.6a9.8 9.8 0 0 1-5.4 1.7c-4.2 0-7.6-2.8-7.6-7.4a7.2 7.2 0 0 1 7.2-7.5zm4.2 6.4c0-2.9-1.6-4.5-4.2-4.5a4.8 4.8 0 0 0-4.8 4.5h8.9zM146 278.3a7.2 7.2 0 0 0-3.3-.7c-2.5 0-3.6 1.4-3.6 3.7v1.3h5.9v1.9h-5.9v12.2h-2.4v-12.2h-4v-1.8h4v-1.2c0-3.5 1.8-5.7 5.7-5.7a10.5 10.5 0 0 1 4.1.8zM149.7 283.7h12.5v1.8h-12.5v-1.8zm0 6.2h12.5v1.8h-12.5v-1.8z"/><path class="d" d="M171.2 279.9v-3.2h3.2v3.2l-.8 6.5h-1.6zm6.7 0v-3.2h3.1v3.2l-.7 6.5h-1.6zM187.5 276h2.4v9c1.5-1.6 3.1-2.8 5.3-2.8s4.9 2 4.9 5.7v8.8h-2.4v-8.5c0-2.7-.9-4-3.3-4s-2.8.8-4.5 2.6v9.8h-2.4v-20.6zM208.2 284.5h-4v-1.8h4.1l.3-4h2v4h6.9v1.9h-6.9v6.7c0 2.5.8 3.9 3.6 3.9a9.2 9.2 0 0 0 3.4-.6l.5 1.7a13.3 13.3 0 0 1-4.4.8c-4.1 0-5.4-2.4-5.4-5.8v-6.7zM225.6 284.5h-4v-1.8h4.1l.3-4h2v4h6.9v1.9h-6.9v6.7c0 2.5.8 3.9 3.6 3.9a9.2 9.2 0 0 0 3.4-.6l.5 1.7a13.3 13.3 0 0 1-4.4.8c-4.1 0-5.4-2.4-5.4-5.8v-6.7zM242.2 297.9v4.8h-2.4v-20.1h2l.2 1.8a7.4 7.4 0 0 1 4.9-2.1c3.8 0 5.8 2.8 5.8 7.2s-3 7.6-6.4 7.6a6.8 6.8 0 0 1-4.2-1.8v2.7zm3.8-2.8c2.5 0 4.4-2.1 4.4-5.6s-1.2-5.2-4-5.2a6.2 6.2 0 0 0-4.2 2.1v7a6.1 6.1 0 0 0 3.7 1.6zM257.8 293.3a9.2 9.2 0 0 0 5.8 1.9c2.5 0 3.8-1 3.8-2.2s-1.1-1.9-4.6-2.7-5.4-2-5.4-4 2-4 5.9-4a10.6 10.6 0 0 1 5.7 1.7l-1.2 1.5a7.8 7.8 0 0 0-4.5-1.5c-2.6 0-3.5.9-3.5 2s1.7 1.9 4.3 2.5 5.6 2.1 5.6 4.2-2.2 4.2-6.3 4.2a12.3 12.3 0 0 1-6.9-2.2zM280.6 281.7a2.5 2.5 0 1 1-2.4 2.4 2.3 2.3 0 0 1 2.4-2.4zm0 10.4a2.5 2.5 0 1 1-2.4 2.5 2.3 2.3 0 0 1 2.4-2.5zM294.4 301.3h-2.2l9.5-25.3h2.2zM311.8 301.3h-2.2l9.5-25.3h2.2zM324.4 282.6h2.4l1.7 8.2c.3 1.3.5 2.6.7 3.9h.1l.8-3.9 1.7-7.3h2l1.8 7.3.8 3.9h.1c.3-1.3.5-2.6.7-3.9l1.7-8.2h2.3l-3.1 14.1h-2.9l-1.7-7.1-.8-4.1h-.1c-.2 1.2-.4 2.5-.8 4.1l-1.6 7.1h-2.8zM344.2 282.6h8.9v14.1h-2.4v-12.2h-6.6v-1.9zm5.6-4.7a1.9 1.9 0 1 1 1.9 1.8 1.8 1.8 0 0 1-1.9-1.9zM362.1 276h2.4v14h.1l7.6-7.4h2.8l-5.6 5.6 6.4 8.5h-2.7l-5.2-7-3.3 3.2v3.8h-2.4v-20.7zM379.1 282.6h8.9v14.1h-2.4v-12.2h-6.6v-1.9zm5.6-4.7a1.9 1.9 0 1 1 1.9 1.8 1.8 1.8 0 0 1-1.9-1.9zM399 297.9v4.8h-2.4v-20.1h2l.2 1.8h.1a7.4 7.4 0 0 1 4.9-2.1c3.8 0 5.8 2.8 5.8 7.2s-3 7.6-6.4 7.6a6.8 6.8 0 0 1-4.2-1.8v2.7zm3.8-2.8c2.5 0 4.4-2.1 4.4-5.6s-1.2-5.2-4-5.2a6.2 6.2 0 0 0-4.2 2.1v7a6.1 6.1 0 0 0 3.8 1.6zM420.5 282.2c4 0 6.4 2.6 6.4 6.6a8.4 8.4 0 0 1-.1 1.3h-11a5.1 5.1 0 0 0 5.4 5 7.8 7.8 0 0 0 4.3-1.3l.8 1.6a9.8 9.8 0 0 1-5.4 1.7c-4.2 0-7.6-2.8-7.6-7.4a7.2 7.2 0 0 1 7.2-7.5zm4.2 6.4c0-2.9-1.6-4.5-4.2-4.5a4.8 4.8 0 0 0-4.8 4.5h8.9zM436.9 282.2a6.2 6.2 0 0 1 4.3 1.8v-8h2.4v20.7h-2l-.2-1.9h-.1a6.8 6.8 0 0 1-4.6 2.2c-3.7 0-6.1-2.7-6.1-7.4s3-7.4 6.3-7.4zm.2 12.8a5.4 5.4 0 0 0 4-2.1v-7a5.3 5.3 0 0 0-3.7-1.7c-2.4 0-4.4 2.2-4.4 5.4s1.5 5.4 4.1 5.4zM448.8 282.6h8.9v14.1h-2.4v-12.2h-6.6v-1.9zm5.6-4.7a1.9 1.9 0 1 1 1.9 1.8 1.8 1.8 0 0 1-1.9-1.9zM476.2 287.8c-.1-1.9-1-3.5-3.7-3.5a9.8 9.8 0 0 0-4.9 1.7l-.9-1.6a12.2 12.2 0 0 1 6.3-2c3.9 0 5.7 2.3 5.7 5.8v8.7h-1.9l-.2-1.9h-.1a9.6 9.6 0 0 1-5.6 2.3c-2.6 0-4.8-1.5-4.8-4s2.8-5 10.1-5.5zm-4.8 7.4a7.6 7.6 0 0 0 4.8-2.1v-3.7c-6 .5-7.9 1.7-7.9 3.5s1.5 2.2 3.1 2.2zM489.8 292.1a2.5 2.5 0 1 1-2.4 2.5 2.3 2.3 0 0 1 2.4-2.5zM507.2 282.2c3.7 0 7 2.7 7 7.4s-3.3 7.4-7 7.4-7-2.7-7-7.4 3.3-7.4 7-7.4zm0 12.8c2.7 0 4.5-2.2 4.5-5.4s-1.8-5.5-4.5-5.5-4.5 2.2-4.5 5.5 1.8 5.5 4.5 5.5zM520.1 282.6h2l.2 3.3h.1a7.5 7.5 0 0 1 6.3-3.7 5.8 5.8 0 0 1 2.8.6l-.5 2.1a6.7 6.7 0 0 0-2.6-.5c-2.1 0-4.1 1.1-5.8 4v8.3h-2.4v-14.1zM537.8 296.1a2.6 2.6 0 0 1-1.5-2.3 3.4 3.4 0 0 1 1.7-2.6 4.5 4.5 0 0 1-1.7-3.7c0-3.1 2.6-5.1 5.5-5.1a5.7 5.7 0 0 1 2.1.3h5.8v1.8h-3.8a4.3 4.3 0 0 1 1.3 3c0 3-2.4 4.9-5.5 4.9a6.1 6.1 0 0 1-2.4-.5 1.9 1.9 0 0 0-1.1 1.6c0 1.1 1.1 1.6 2.9 1.6h3.2c3.6 0 5.4.9 5.4 3.3s-3.1 4.9-7.8 4.9-6.5-1.4-6.5-3.9.8-2.4 2.4-3.3zm4.4 5.4c3.3 0 5.3-1.5 5.3-2.9s-1.1-1.7-3.2-1.7h-2.8a8 8 0 0 1-2.1-.2c-1.3.7-1.8 1.5-1.8 2.4s1.5 2.5 4.5 2.5zm2.9-14.3a3.3 3.3 0 1 0-3.3 3.3 3.2 3.2 0 0 0 3.2-3.2zM554.6 279.9v-3.2h3.2v3.2l-.8 6.5h-1.6zm6.7 0v-3.2h3.2v3.2l-.7 6.5h-1.8z"/><path class="e" d="M600.4 277.6h2.4v17h9.4v2.1h-11.8v-19.1zM616.5 282.6h8.9v14.1h-2.4v-12.2h-6.6v-1.9zm5.6-4.7a1.9 1.9 0 1 1 1.9 1.8 1.8 1.8 0 0 1-1.9-1.9zM634 282.6h2l.2 2.4h.1c1.5-1.6 3.1-2.8 5.3-2.8s4.9 2 4.9 5.7v8.8h-2.4v-8.5c0-2.7-.9-4-3.3-4s-2.8.8-4.5 2.6v9.8h-2.3v-14zM651.8 276h2.4v14h.1l7.6-7.4h2.7l-5.6 5.6 6.4 8.5h-2.7l-5.2-7-3.3 3.2v3.8h-2.4v-20.7zM689.6 284.5h-4v-1.8h4.1l.3-4h2v4h6.9v1.9h-6.9v6.7c0 2.5.8 3.9 3.6 3.9a9.2 9.2 0 0 0 3.4-.6l.5 1.7a13.3 13.3 0 0 1-4.4.8c-4.1 0-5.4-2.4-5.4-5.8v-6.7zM709.8 282.2c3.7 0 7 2.7 7 7.4s-3.3 7.4-7 7.4-7-2.7-7-7.4 3.2-7.4 7-7.4zm0 12.8c2.7 0 4.5-2.2 4.5-5.4s-1.8-5.5-4.5-5.5-4.5 2.2-4.5 5.5 1.8 5.5 4.5 5.5zM736.2 277.6h2.4l1.5 12 .4 4.7h.1l1.2-4.7 2-7h1.7l2 7c.3 1.5.8 3.1 1.2 4.7h.1l.4-4.7 1.5-12h2.3l-2.8 19.1h-2.7l-2.2-8c-.3-1.1-.5-2.3-.7-3.4h-.1c-.2 1.1-.5 2.3-.8 3.4l-2.1 8h-2.6zM755.9 282.6h8.9v14.1h-2.4v-12.2h-6.6v-1.9zm5.6-4.7a1.9 1.9 0 1 1 1.9 1.8 1.8 1.8 0 0 1-1.9-1.9zM773.8 276h2.4v14h.1l7.6-7.4h2.7l-5.6 5.6 6.4 8.5h-2.7l-5.2-7-3.3 3.2v3.8h-2.4v-20.7zM790.8 282.6h8.9v14.1h-2.4v-12.2h-6.6v-1.9zm5.6-4.7a1.9 1.9 0 1 1 1.9 1.8 1.8 1.8 0 0 1-1.9-1.9zM810.7 297.9v4.8h-2.4v-20.1h2l.2 1.8h.1a7.4 7.4 0 0 1 4.9-2.1c3.8 0 5.8 2.8 5.8 7.2s-3 7.6-6.4 7.6a6.8 6.8 0 0 1-4.2-1.8v2.7zm3.8-2.8c2.5 0 4.4-2.1 4.4-5.6s-1.2-5.2-4-5.2a6.2 6.2 0 0 0-4.2 2.1v7a6.1 6.1 0 0 0 3.8 1.6zM832.2 282.2c4 0 6.4 2.6 6.4 6.6a8.5 8.5 0 0 1-.1 1.3h-11a5.1 5.1 0 0 0 5.4 5 7.8 7.8 0 0 0 4.3-1.3l.8 1.6a9.8 9.8 0 0 1-5.4 1.7c-4.2 0-7.6-2.8-7.6-7.4a7.2 7.2 0 0 1 7.2-7.5zm4.2 6.4c0-2.9-1.6-4.5-4.2-4.5a4.8 4.8 0 0 0-4.8 4.5h8.9zM848.6 282.2a6.2 6.2 0 0 1 4.3 1.8v-8h2.4v20.7h-2l-.2-1.9h-.1a6.8 6.8 0 0 1-4.6 2.2c-3.7 0-6.1-2.7-6.1-7.4s3-7.4 6.3-7.4zm.2 12.8a5.4 5.4 0 0 0 4-2.1v-7a5.3 5.3 0 0 0-3.7-1.7c-2.4 0-4.4 2.2-4.4 5.4s1.5 5.4 4.1 5.4zM860.5 282.6h8.9v14.1h-2.4v-12.2h-6.6v-1.9zm5.6-4.7a1.9 1.9 0 1 1 1.9 1.8 1.8 1.8 0 0 1-1.9-1.9zM887.9 287.8c-.1-1.9-1-3.5-3.7-3.5a9.8 9.8 0 0 0-4.9 1.7l-.9-1.6a12.2 12.2 0 0 1 6.3-2c3.9 0 5.7 2.3 5.7 5.8v8.7h-1.9l-.2-1.9h-.3a9.6 9.6 0 0 1-5.6 2.3c-2.6 0-4.8-1.5-4.8-4s3-5 10.3-5.5zm-4.8 7.4a7.6 7.6 0 0 0 4.8-2.1v-3.7c-6 .5-7.9 1.7-7.9 3.5s1.5 2.2 3.1 2.2z"/><path class="f" d="M148.3 310.1v19.2h-72.2v-19.2M556.1 310.1v19.2h-372.9v-19.2M570.7 266.8v-19.2h-497.5v19.2M322 222.4v25.2M112.2 329.3v26.5M369.7 329.3v26.5"/></svg>