<svg xmlns="http://www.w3.org/2000/svg" width="1000" height="610" viewBox="0 0 1000 610"><defs><style>.a{fill:#9d35af;}.b{fill:#555;}</style></defs><title>parts-basic</title><path class="a" d="M322.1 286.1l11.4-7.6v3.2l-8.5 5.5 8.5 5.5v3.2l-11.4-7.6v-2.5zM339 275.5h3.5v5.5l-.2 3.1a7.4 7.4 0 0 1 5.3-2.5c3.4 0 4.9 2.2 4.9 6v9.1h-3.5v-8.7c0-2.4-.7-3.5-2.8-3.5s-2.4.7-3.8 2.1v10h-3.4v-21.1zM370.6 293.9v2.8h-13.3v-2.8h5.2v-12.6h-4v-2.2a15.1 15.1 0 0 0 4.9-1.6h2.5v16.3h4.7zM387 288.6l-11.4 7.6v-3.2l8.5-5.5-8.5-5.5v-3.2l11.4 7.6v2.5zM610.3 286.1l11.4-7.6v3.2l-8.5 5.5 8.5 5.5v3.2l-11.4-7.6v-2.5zM630.3 301.5h-3l9.9-26.1h3zM645.2 275.5h3.5v5.5l-.2 3.1a7.4 7.4 0 0 1 5.3-2.5c3.4 0 4.9 2.2 4.9 6v9.1h-3.5v-8.7c0-2.4-.7-3.5-2.8-3.5s-2.4.7-3.8 2.1v10h-3.5v-21.1zM676.7 293.9v2.8h-13.3v-2.8h5.2v-12.6h-4v-2.2a15.1 15.1 0 0 0 4.9-1.6h2.5v16.3h4.7zM693.2 288.6l-11.4 7.6v-3.2l8.5-5.5-8.5-5.5v-3.2l11.4 7.6v2.5z"/><path class="b" d="M404.5 292.4a8.1 8.1 0 0 0 5.7 2.5c2.8 0 4.4-1.3 4.4-3.2s-1.5-2.6-3.5-3.5l-2.8-1.2c-2-.8-4.3-2.2-4.3-5.1s2.7-5.2 6.5-5.2a8.6 8.6 0 0 1 6.1 2.4l-1.3 1.6a6.9 6.9 0 0 0-4.7-1.9c-2.4 0-3.9 1.1-3.9 2.9s1.8 2.6 3.5 3.3l2.8 1.2c2.4 1 4.3 2.3 4.3 5.2s-2.6 5.6-7 5.6a10 10 0 0 1-7.1-2.9zM425.2 284.1h-4.1v-1.9l4.2-.2.3-4.1h2v4.1h7.1v2h-7.1v6.9c0 2.6.9 4 3.7 4a9.5 9.5 0 0 0 3.5-.7l.5 1.8a13.7 13.7 0 0 1-4.6.9c-4.2 0-5.6-2.4-5.6-6v-6.9zM446.5 281.8c4.2 0 6.6 2.7 6.6 6.8a8.8 8.8 0 0 1-.1 1.4h-11.4a5.2 5.2 0 0 0 5.6 5.1 8.1 8.1 0 0 0 4.4-1.3l.9 1.6a10.1 10.1 0 0 1-5.6 1.7c-4.3 0-7.8-2.8-7.8-7.6a7.4 7.4 0 0 1 7.4-7.7zm4.3 6.6c0-3-1.6-4.6-4.3-4.6a5 5 0 0 0-4.9 4.6h9.2zM459.6 296.1a2.6 2.6 0 0 1-1.5-2.4 3.5 3.5 0 0 1 1.7-2.7 4.6 4.6 0 0 1-1.8-4c0-3.2 2.6-5.2 5.7-5.2a5.9 5.9 0 0 1 2.2.4h6v1.8h-3.9a4.5 4.5 0 0 1 1.3 3.1c0 3.1-2.5 5-5.6 5a6.3 6.3 0 0 1-2.5-.5 2 2 0 0 0-1.1 1.7c0 1.2 1.1 1.7 3 1.7h3.3c3.8 0 5.5 1 5.5 3.4s-3.2 5.1-8.1 5.1-6.7-1.5-6.7-4 .9-2.5 2.5-3.4zm4.5 5.6c3.4 0 5.5-1.5 5.5-3s-1.1-1.8-3.3-1.8h-2.8a8.2 8.2 0 0 1-2.2-.2c-1.4.8-1.9 1.6-1.9 2.4s1.5 2.6 4.7 2.6zm3-14.7a3.4 3.4 0 1 0-3.4 3.5 3.3 3.3 0 0 0 3.4-3.5zM482 281.8c3.8 0 7.2 2.8 7.2 7.7s-3.4 7.6-7.2 7.6-7.2-2.8-7.2-7.6 3.4-7.7 7.2-7.7zm0 13.3c2.8 0 4.6-2.2 4.6-5.6s-1.9-5.6-4.6-5.6-4.7 2.3-4.7 5.6 1.9 5.5 4.7 5.5zM494.4 293.2a9.5 9.5 0 0 0 6 2c2.6 0 3.9-1 3.9-2.3s-1.2-1.9-4.7-2.8-5.5-2.1-5.5-4.1 2.1-4.1 6.1-4.1a10.9 10.9 0 0 1 5.8 1.9l-1.2 1.6a8.1 8.1 0 0 0-4.6-1.5c-2.7 0-3.6 1-3.6 2.1s1.8 1.9 4.4 2.6 5.8 2.1 5.8 4.4-2.3 4.3-6.5 4.3a12.7 12.7 0 0 1-7.1-2.3zM522 287.5c-.1-2-1-3.7-3.9-3.7a10.2 10.2 0 0 0-5.1 1.7l-1-1.7a12.6 12.6 0 0 1 6.5-2.1c4 0 5.9 2.4 5.9 6v8.9h-2l-.2-2h-.1a9.9 9.9 0 0 1-5.8 2.3c-2.7 0-5-1.5-5-4.1s3.2-4.7 10.7-5.3zm-4.9 7.6a7.9 7.9 0 0 0 4.9-2.2v-3.8c-6.2.5-8.2 1.7-8.2 3.7s1.6 2.3 3.2 2.3zM542.1 296.7h-2l-.2-2.5h-.1a7.1 7.1 0 0 1-5.4 2.9c-3.5 0-5.1-2-5.1-5.9v-9.1h2.5v8.7c0 2.8.9 4.1 3.4 4.1s2.9-.8 4.5-2.7v-10.1h2.5v14.6zM549.4 282.1h2l.2 3.5h.1a7.8 7.8 0 0 1 6.5-3.8 6 6 0 0 1 2.8.6l-.5 2.1a6.9 6.9 0 0 0-2.7-.5c-2.2 0-4.3 1.1-6 4.2v8.5h-2.5v-14.6zM578.1 296.7h-2l-.2-2.5h-.1a7.1 7.1 0 0 1-5.4 2.9c-3.5 0-5.1-2-5.1-5.9v-9.1h2.5v8.7c0 2.8.9 4.1 3.4 4.1s2.9-.8 4.5-2.7v-10.1h2.5v14.6zM584.4 293.2a9.5 9.5 0 0 0 6 2c2.6 0 3.9-1 3.9-2.3s-1.2-1.9-4.7-2.8-5.5-2.1-5.5-4.1 2.1-4.1 6.1-4.1a10.9 10.9 0 0 1 5.8 1.9l-1.2 1.6a8.1 8.1 0 0 0-4.6-1.5c-2.7 0-3.6 1-3.6 2.1s1.8 1.9 4.4 2.6 5.8 2.1 5.8 4.4-2.3 4.3-6.5 4.3a12.7 12.7 0 0 1-7.1-2.3z"/></svg>