<?xml version="1.0" encoding="UTF-8" standalone="no"?>
<!DOCTYPE svg PUBLIC "-//W3C//DTD SVG 1.1//EN" "http://www.w3.org/Graphics/SVG/1.1/DTD/svg11.dtd">
<svg width="100%" height="100%" viewBox="0 0 1152 864" version="1.1" xmlns="http://www.w3.org/2000/svg" xmlns:xlink="http://www.w3.org/1999/xlink" xml:space="preserve" xmlns:serif="http://www.serif.com/" style="fill-rule:evenodd;clip-rule:evenodd;stroke-linecap:round;stroke-linejoin:round;stroke-miterlimit:1.5;">
    <g>
        <rect x="31.282" y="112.191" width="213.206" height="213.206" style="fill:#ebebeb;stroke:#000;stroke-width:7px;"/>
        <rect x="244.488" y="112.191" width="213.206" height="213.206" style="fill:#ebebeb;stroke:#000;stroke-width:7px;"/>
        <rect x="457.694" y="112.191" width="213.206" height="213.206" style="fill:#ebebeb;stroke:#000;stroke-width:7px;"/>
    </g>
    <g>
        <path d="M1120.72,325.397l0,-213.206l-213.206,-0l0,213.206l213.206,-0Z" style="fill:#ebebeb;stroke:#000;stroke-width:7px;"/>
        <path d="M1120.72,538.603l0,-213.206l-213.206,-0l0,213.206l213.206,0Z" style="fill:#ebebeb;stroke:#000;stroke-width:7px;"/>
        <path d="M1120.72,751.809l0,-213.206l-213.206,0l0,213.206l213.206,0Z" style="fill:#ebebeb;stroke:#000;stroke-width:7px;"/>
    </g>
    <path d="M760.414,238.868c12.158,-0 22.919,-9.998 22.919,-23.381c-0,-9.919 -6.243,-16.767 -16.676,-16.767c-12.239,-0 -23,9.997 -23,23.38c-0,9.919 6.243,16.768 16.757,16.768Zm0.411,-5.038c-6.736,-0 -10.761,-4.724 -10.761,-12.123c0,-9.92 7.64,-17.949 16.101,-17.949c6.818,-0 10.843,4.644 10.843,12.123c-0,9.919 -7.722,17.949 -16.183,17.949Z" style="fill:#808080;fill-rule:nonzero;"/>
    <path d="M797.133,237.923l6.243,0l4.19,-19.916c5.503,-8.188 11.911,-13.777 18.071,-13.777c2.629,0 4.601,0.394 6.654,1.653l2.465,-5.195c-1.89,-1.26 -4.518,-1.968 -8.051,-1.968c-6.9,-0 -13.389,5.353 -17.825,11.887l-0.329,-0l1.725,-10.943l-5.175,0l-7.968,38.259Z" style="fill:#808080;fill-rule:nonzero;"/>
</svg>
