<svg xmlns="http://www.w3.org/2000/svg" width="680" height="410" viewBox="0 0 680 410"><defs><style>.a,.b,.h{fill:none;stroke-miterlimit:10;}.a,.b{stroke:#cccbcb;stroke-width:4px;}.b{stroke-dasharray:11.97 7.98;}.c{fill:#efefef;}.d{fill:#cccbcb;}.e{fill:#676767;}.f{fill:#fff;}.g{fill:#231f20;}.h{stroke:#333;}.i{fill:#989898;}</style></defs><title>dns-1</title><line class="a" x1="20.7" y1="128.5" x2="26.7" y2="128.5"/><line class="b" x1="34.7" y1="128.5" x2="649" y2="128.5"/><line class="a" x1="653" y1="128.5" x2="659" y2="128.5"/><rect class="c" x="46.5" y="27.9" width="119.6" height="76.58" rx="5.9" ry="5.9"/><path class="d" d="M160.2,27.9H52.4a5.9,5.9,0,0,0-5.9,5.9V49.7H166.1V33.8A5.9,5.9,0,0,0,160.2,27.9Z"/><polygon class="e" points="61.3 45.4 50 38.8 61.3 32.3 61.3 45.4"/><polygon class="e" points="66.7 45.4 78 38.8 66.7 32.3 66.7 45.4"/><rect class="f" x="90.1" y="32.3" width="72.2" height="13.09" rx="1.9" ry="1.9"/><path class="g" d="M69.5,69.9h4.2a5.4,5.4,0,0,1,3.3.8,2.9,2.9,0,0,1,1.1,2.5A2.5,2.5,0,0,1,75.5,76a3.3,3.3,0,0,1,2.3,1,3.5,3.5,0,0,1,.8,2.4,3.2,3.2,0,0,1-1.1,2.8,6.3,6.3,0,0,1-3.7.9H69.5V69.9ZM72,71.9v3h1.7a2.2,2.2,0,0,0,1.4-.4,1.4,1.4,0,0,0,.4-1.2,1.5,1.5,0,0,0-.4-1.2,2.1,2.1,0,0,0-1.4-.4H72ZM72,77v3.9h1.7a2.7,2.7,0,0,0,1.7-.4,1.8,1.8,0,0,0,.5-1.5,2,2,0,0,0-.5-1.5,2.5,2.5,0,0,0-1.7-.5H72Z"/><path class="g" d="M89.3,75.9l-1-.6-1.2-.2a3.3,3.3,0,0,0-1.4.3,2.1,2.1,0,0,0-.9.8,2.2,2.2,0,0,0-.3.8,9.1,9.1,0,0,0-.1,1.4V83H81.7V73.2h2.6v1.5a2.8,2.8,0,0,1,1.2-1.3,3.5,3.5,0,0,1,1.8-.5h1l1,0.4v2.5Z"/><path class="g" d="M90.9,78.1a5.5,5.5,0,0,1,1.2-3.8,4.7,4.7,0,0,1,6.6,0,6.4,6.4,0,0,1,0,7.5,4.7,4.7,0,0,1-6.6,0A5.5,5.5,0,0,1,90.9,78.1ZM95.4,75a1.6,1.6,0,0,0-1.5.8,5.1,5.1,0,0,0,0,4.5,1.7,1.7,0,0,0,2.9,0,5.1,5.1,0,0,0,0-4.5A1.7,1.7,0,0,0,95.4,75Z"/><path class="g" d="M100.9,73.2H103l1.2,7.5,1.1-5h2.1l1,5,1.2-7.5h2.1L109.9,83h-2.4l-1.2-5.1L105.1,83h-2.4Z"/><path class="g" d="M120.4,73.5v2.3l-1.5-.7-1.5-.2a2.7,2.7,0,0,0-1.3.3,0.8,0.8,0,0,0-.4.7q0,0.7,1.9,1.1h0.1l0.7,0.2a3.9,3.9,0,0,1,2.1,1.1,2.9,2.9,0,0,1,.7,2,2.7,2.7,0,0,1-1,2.3,4.9,4.9,0,0,1-3,.8l-1.8-.2-1.9-.5V80.4l1.7,0.7,1.7,0.3a2.8,2.8,0,0,0,1.4-.3,0.8,0.8,0,0,0,.5-0.8,0.9,0.9,0,0,0-.3-0.8l-1.6-.6-0.7-.2a4.2,4.2,0,0,1-2.2-1,3,3,0,0,1,.4-4.1,4.6,4.6,0,0,1,2.9-.8h1.7Z"/><path class="g" d="M132.2,82.5l-1.8.6-2,.2a5.1,5.1,0,0,1-3.8-1.3,5.2,5.2,0,0,1-1.3-3.8,5.5,5.5,0,0,1,1.3-3.8,5,5,0,0,1,6.8-.1,5.2,5.2,0,0,1,1.2,3.7v1H126a2.2,2.2,0,0,0,.7,1.7,3.1,3.1,0,0,0,2,.6l1.7-.3,1.8-.8v2.4ZM130,77a2.2,2.2,0,0,0-.5-1.5,2,2,0,0,0-1.5-.5,1.9,1.9,0,0,0-1.4.5A2.5,2.5,0,0,0,126,77H130Z"/><path class="g" d="M143.5,75.9l-1-.6-1.2-.2a3.3,3.3,0,0,0-1.4.3,2.1,2.1,0,0,0-.9.8,2.2,2.2,0,0,0-.3.8,9.1,9.1,0,0,0-.1,1.4V83h-2.6V73.2h2.6v1.5a2.8,2.8,0,0,1,1.2-1.3,3.5,3.5,0,0,1,1.8-.5h1l1,0.4v2.5Z"/><path class="g" d="M97.4,39v2H96.8V39a1.1,1.1,0,0,0-.2-0.7l-0.5-.2a0.7,0.7,0,0,0-.6.3,1.2,1.2,0,0,0-.2.8V41H94.9V36.5h0.5v1.8l0.4-.4h0.6a0.9,0.9,0,0,1,.7.3A1.7,1.7,0,0,1,97.4,39Z"/><path class="g" d="M99.7,36.8v0.9h1.2v0.4H99.7V40a0.7,0.7,0,0,0,.1.5h1.1v0.4h-0.7a1.2,1.2,0,0,1-.9-0.2,1.1,1.1,0,0,1-.2-0.8V38.2H98.3V37.8h0.9V36.8h0.5Z"/><path class="g" d="M103.3,36.9v0.9h1.2v0.4h-1.2V40a0.7,0.7,0,0,0,.1.5h1.1v0.4h-0.7a1.2,1.2,0,0,1-.9-0.2,1.1,1.1,0,0,1-.2-0.8V38.2h-0.9V37.8h0.9V36.8h0.5Z"/><path class="g" d="M106.2,40.7v1.7h-0.5V37.8h0.5v0.4l0.4-.4h0.5a1.1,1.1,0,0,1,.9.5,2.1,2.1,0,0,1,.3,1.3,2.1,2.1,0,0,1-.3,1.3,1.1,1.1,0,0,1-.9.5h-0.5Zm1.6-1.2a1.8,1.8,0,0,0-.2-0.9,0.6,0.6,0,0,0-.6-0.3,0.7,0.7,0,0,0-.6.3,2.3,2.3,0,0,0,0,1.9,0.7,0.7,0,0,0,.6.3,0.6,0.6,0,0,0,.6-0.3A1.8,1.8,0,0,0,107.8,39.4Z"/><path class="g" d="M111.6,37.9v0.5l-0.5-.2h-1a0.4,0.4,0,0,0-.2.4,0.4,0.4,0,0,0,.1.3l0.7,0.2h0.2l0.6,0.3a0.9,0.9,0,0,1,.2.6,0.9,0.9,0,0,1-.3.8,1.5,1.5,0,0,1-1,.3h-0.5l-0.6-.2V40.4l0.6,0.2H111a0.5,0.5,0,0,0,.2-0.4,0.7,0.7,0,0,0-.7-0.5h-0.2l-0.7-.3a0.8,0.8,0,0,1-.2-0.6,0.9,0.9,0,0,1,.3-0.7,1.4,1.4,0,0,1,.9-0.3h1Z"/><path class="g" d="M113.6,40h0.9v1.1h-0.9V40Zm0-2.2h0.9v1.1h-0.9V37.8Z"/><path class="g" d="M118.6,36.7h0.6l-2.3,4.9h-0.6Z"/><path class="g" d="M122.2,36.7h0.6l-2.3,4.9h-0.6Z"/><path class="g" d="M125,36.9v0.9h1.2v0.4H125V40a0.7,0.7,0,0,0,.1.5h1.1v0.4h-0.7a1.2,1.2,0,0,1-.9-0.2,1.1,1.1,0,0,1-.2-0.8V38.2h-0.9V37.8h0.9V36.9H125Z"/><path class="g" d="M129.9,39.1v2h-0.5v-2a1.1,1.1,0,0,0-.2-0.7l-0.5-.2a0.7,0.7,0,0,0-.6.3,1.3,1.3,0,0,0-.2.8v1.9h-0.5V36.6h0.5v1.8l0.4-.4h0.6a0.9,0.9,0,0,1,.7.3A1.7,1.7,0,0,1,129.9,39.1Z"/><path class="g" d="M133.7,39.2v0.3h-2.3a1.3,1.3,0,0,0,.3,1,1,1,0,0,0,.8.3h0.5l0.6-.2V41l-0.6.2h-0.6a1.6,1.6,0,0,1-1.2-.5,1.8,1.8,0,0,1-.4-1.3,1.8,1.8,0,0,1,.4-1.3,1.4,1.4,0,0,1,1.1-.5,1.2,1.2,0,0,1,1,.4A1.6,1.6,0,0,1,133.7,39.2Zm-0.5-.2a1,1,0,0,0-.2-0.6,0.8,0.8,0,0,0-.6-0.2,0.9,0.9,0,0,0-.6.3,0.9,0.9,0,0,0-.3.6h1.8Z"/><path class="g" d="M136,38.2l0.3-.3h0.4a0.6,0.6,0,0,1,.6.3,2.8,2.8,0,0,1,.2,1.2v1.9h-0.5V39.3a2.8,2.8,0,0,0-.1-0.9l-0.3-.2-0.3.2a2.5,2.5,0,0,0-.1.9v1.9h-0.5V39.3a2.6,2.6,0,0,0-.1-0.9l-0.3-.2-0.3.2a2.6,2.6,0,0,0-.1.9v1.9h-0.5V37.8h0.5v0.3l0.2-.3h0.7Z"/><path class="g" d="M138.8,40h1v1.2h-1V40Z"/><path class="g" d="M144.4,41l-0.4.2h-0.5a1.6,1.6,0,0,1-1.2-.5,2.1,2.1,0,0,1,0-2.5,1.6,1.6,0,0,1,1.2-.5h0.5l0.5,0.2v0.6l-0.4-.3h-0.5a1,1,0,0,0-.8.3,1.7,1.7,0,0,0,0,1.9,1,1,0,0,0,.8.3h0.5l0.4-.3V41Z"/><path class="g" d="M146.7,37.8a1.3,1.3,0,0,1,1,.4,2.5,2.5,0,0,1,0,2.6,1.5,1.5,0,0,1-2.1,0,2.5,2.5,0,0,1,0-2.6A1.3,1.3,0,0,1,146.7,37.8Zm0,0.5a0.7,0.7,0,0,0-.6.3,2.2,2.2,0,0,0,0,1.9,0.8,0.8,0,0,0,1.2,0,2.2,2.2,0,0,0,0-1.9A0.7,0.7,0,0,0,146.7,38.3Z"/><path class="g" d="M150.5,38.2l0.3-.3h0.4a0.6,0.6,0,0,1,.6.3,2.8,2.8,0,0,1,.2,1.2v1.9h-0.5V39.3a2.8,2.8,0,0,0-.1-0.9l-0.3-.2-0.3.2a2.5,2.5,0,0,0-.1.9v1.9H150V39.3a2.6,2.6,0,0,0-.1-0.9l-0.3-.2-0.3.2a2.6,2.6,0,0,0-.1.9v1.9h-0.5V37.9h0.5v0.3l0.2-.3h0.7Z"/><path class="f" d="M402.2,21.4h3.3v0.5h-1.4v3.9h-0.6V21.9h-1.4V21.4Z"/><path class="f" d="M407.4,22.5a1.3,1.3,0,0,1,1,.4,2,2,0,0,1,.4,1.3,2,2,0,0,1-.4,1.3,1.5,1.5,0,0,1-2.1,0,2,2,0,0,1-.4-1.3,2,2,0,0,1,.4-1.3A1.3,1.3,0,0,1,407.4,22.5Zm0,0.5a0.7,0.7,0,0,0-.6.3,2.2,2.2,0,0,0,0,1.9,0.8,0.8,0,0,0,1.2,0,2.2,2.2,0,0,0,0-1.9A0.7,0.7,0,0,0,407.4,22.9Z"/><rect class="h" x="46.5" y="27.9" width="119.6" height="76.58" rx="5.9" ry="5.9"/><path class="i" d="M565.3,104.1h1.3l2.1,3.9,2.1-3.9h1.3l-2.8,4.8v3.9h-1.2v-3.9Z"/><path class="i" d="M578.8,108.5a6.4,6.4,0,0,1-.7,3.4,2.7,2.7,0,0,1-4.4,0,8.4,8.4,0,0,1,0-6.8,2.7,2.7,0,0,1,4.4,0A6.4,6.4,0,0,1,578.8,108.5Zm-1.2,0a6.9,6.9,0,0,0-.4-2.8,1.4,1.4,0,0,0-2.6,0,9.8,9.8,0,0,0,0,5.5,1.4,1.4,0,0,0,2.6,0A6.9,6.9,0,0,0,577.6,108.5Z"/><path class="i" d="M580.4,109.5v-5.4h1.2V110a8.1,8.1,0,0,0,0,.9,1.1,1.1,0,0,0,.1.4,1.2,1.2,0,0,0,.5.5l0.9,0.2,0.9-.2a1.3,1.3,0,0,0,.5-0.5,1.1,1.1,0,0,0,.1-0.4,7.9,7.9,0,0,0,0-.9v-5.9h1.2v5.4a7.5,7.5,0,0,1-.2,1.9,2,2,0,0,1-.6.9l-0.9.5-1.1.2-1.1-.2-0.9-.5a2,2,0,0,1-.6-0.9A7.5,7.5,0,0,1,580.4,109.5Z"/><path class="i" d="M591.2,108.7l0.8,0.4a5.4,5.4,0,0,1,.8,1.3l1.2,2.4h-1.3l-1-2.2a3.5,3.5,0,0,0-.8-1.2,1.5,1.5,0,0,0-.9-0.3h-1.1v3.7h-1.2v-8.7H590a3.3,3.3,0,0,1,2.2.7,2.3,2.3,0,0,1,.8,1.9,2.1,2.1,0,0,1-.5,1.4A2.1,2.1,0,0,1,591.2,108.7Zm-2.4-3.6v3.1h1.3a1.8,1.8,0,0,0,1.3-.4,1.5,1.5,0,0,0,.4-1.2,1.5,1.5,0,0,0-.4-1.2,1.8,1.8,0,0,0-1.3-.4h-1.2Z"/><path class="i" d="M607.5,112.6l-0.9.4h-1a3.1,3.1,0,0,1-2.6-1.2,6.5,6.5,0,0,1,0-6.7,3.1,3.1,0,0,1,2.6-1.2h1l0.9,0.4v1.2l-0.9-.5-1-.2a1.9,1.9,0,0,0-1.7.9,6.6,6.6,0,0,0,0,5.4,1.9,1.9,0,0,0,1.7.9l1-.2,0.9-.5v1.2Z"/><path class="i" d="M615,108.5a6.4,6.4,0,0,1-.7,3.4,2.7,2.7,0,0,1-4.4,0,8.4,8.4,0,0,1,0-6.8,2.7,2.7,0,0,1,4.4,0A6.4,6.4,0,0,1,615,108.5Zm-1.2,0a6.9,6.9,0,0,0-.4-2.8,1.4,1.4,0,0,0-2.6,0,9.8,9.8,0,0,0,0,5.5,1.4,1.4,0,0,0,2.6,0A6.9,6.9,0,0,0,613.7,108.5Z"/><path class="i" d="M615.9,104.1h1.6l1.5,4.4,1.5-4.4h1.6v8.7H621v-7.7l-1.6,4.6h-0.9l-1.6-4.6v7.7h-1.1v-8.7Z"/><path class="i" d="M624,104.1h2.6a3.3,3.3,0,0,1,2.2.7,2.9,2.9,0,0,1,0,3.9,3.3,3.3,0,0,1-2.2.7h-1.4v3.5H624v-8.7Zm1.2,1v3.3h1.4a1.8,1.8,0,0,0,1.3-.4,1.8,1.8,0,0,0,0-2.4,1.8,1.8,0,0,0-1.3-.4h-1.4Z"/><path class="i" d="M631,109.5v-5.4h1.2V110a8.1,8.1,0,0,0,0,.9,1.1,1.1,0,0,0,.1.4,1.2,1.2,0,0,0,.5.5l0.9,0.2,0.9-.2a1.3,1.3,0,0,0,.5-0.5,1.1,1.1,0,0,0,.1-0.4,7.9,7.9,0,0,0,0-.9v-5.9h1.2v5.4a7.5,7.5,0,0,1-.2,1.9,2,2,0,0,1-.6.9l-0.9.5-1.1.2-1.1-.2-0.9-.5a2,2,0,0,1-.6-0.9A7.5,7.5,0,0,1,631,109.5Z"/><path class="i" d="M637.6,104.1h6.7v1h-2.7v7.8h-1.2v-7.8h-2.7v-1Z"/><path class="i" d="M645.7,104.1h5.2v1h-4v2.4h3.8v1h-3.8v3.4H651v1h-5.3v-8.7Z"/><path class="i" d="M656.2,108.7l0.8,0.4a5.4,5.4,0,0,1,.8,1.3l1.2,2.4h-1.3l-1-2.2a3.5,3.5,0,0,0-.8-1.2,1.5,1.5,0,0,0-.9-0.3h-1.1v3.7h-1.2v-8.7h2.4a3.3,3.3,0,0,1,2.2.7,2.3,2.3,0,0,1,.8,1.9,2.1,2.1,0,0,1-.5,1.4A2.1,2.1,0,0,1,656.2,108.7Zm-2.4-3.6v3.1h1.3a1.8,1.8,0,0,0,1.3-.4,1.5,1.5,0,0,0,.4-1.2,1.5,1.5,0,0,0-.4-1.2,1.8,1.8,0,0,0-1.3-.4h-1.2Z"/><path class="i" d="M572.6,144.1h6.7v1h-2.7v7.8h-1.2v-7.8h-2.7v-1Z"/><path class="i" d="M580.3,144.1h1.2v3.4h3.2v-3.4H586v8.7h-1.2v-4.4h-3.2v4.4h-1.2v-8.7Z"/><path class="i" d="M587.9,144.1h5.2v1h-4v2.4h3.8v1h-3.8v3.4h4.1v1h-5.3v-8.7Z"/><path class="i" d="M602.4,144.1h4.9v1h-1.8v6.8h1.8v1h-4.9v-1h1.8v-6.8h-1.8v-1Z"/><path class="i" d="M608.5,144.1h1.6l3.4,7.2v-7.2h1.3v8.7h-1.6l-3.4-7.2v7.2h-1.3v-8.7Z"/><path class="i" d="M615.9,144.1h6.7v1h-2.7v7.8h-1.2v-7.8h-2.7v-1Z"/><path class="i" d="M624,144.1h5.2v1h-4v2.4H629v1h-3.8v3.4h4.1v1H624v-8.7Z"/><path class="i" d="M634.6,148.7l0.8,0.4a5.4,5.4,0,0,1,.8,1.3l1.2,2.4h-1.3l-1-2.2a3.5,3.5,0,0,0-.8-1.2,1.5,1.5,0,0,0-.9-0.3h-1.1v3.7h-1.2v-8.7h2.4a3.3,3.3,0,0,1,2.2.7,2.3,2.3,0,0,1,.8,1.9,2.1,2.1,0,0,1-.5,1.4A2.1,2.1,0,0,1,634.6,148.7Zm-2.4-3.6v3.1h1.3a1.8,1.8,0,0,0,1.3-.4,1.5,1.5,0,0,0,.4-1.2,1.5,1.5,0,0,0-.4-1.2,1.9,1.9,0,0,0-1.3-.4h-1.2Z"/><path class="i" d="M637.4,144.1h1.6l3.4,7.2v-7.2h1.3v8.7h-1.6l-3.4-7.2v7.2h-1.3v-8.7Z"/><path class="i" d="M645.7,144.1h5.2v1h-4v2.4h3.8v1h-3.8v3.4H651v1h-5.3v-8.7Z"/><path class="i" d="M652.1,144.1h6.7v1H656v7.8h-1.2v-7.8h-2.7v-1Z"/></svg>