<?xml version="1.0" encoding="UTF-8" standalone="no"?>
<!DOCTYPE svg PUBLIC "-//W3C//DTD SVG 1.1//EN" "http://www.w3.org/Graphics/SVG/1.1/DTD/svg11.dtd">
<svg width="100%" height="100%" viewBox="0 0 1000 600" version="1.1" xmlns="http://www.w3.org/2000/svg" xmlns:xlink="http://www.w3.org/1999/xlink" xml:space="preserve" xmlns:serif="http://www.serif.com/" style="fill-rule:evenodd;clip-rule:evenodd;stroke-linecap:round;stroke-linejoin:round;stroke-miterlimit:1.5;">
    <rect id="Artboard1" x="0" y="0" width="1000" height="600" style="fill:none;"/>
    <rect x="177.549" y="163.136" width="641.928" height="320.964" style="fill:#ebebeb;"/>
    <path d="M177.549,73.222l0,500.792" style="fill:none;stroke:#00675a;stroke-width:7px;stroke-dasharray:7,14,0,0;"/>
    <path d="M338.031,73.222l0,500.792" style="fill:none;stroke:#00675a;stroke-width:7px;stroke-dasharray:7,14,0,0;"/>
    <path d="M498.513,73.222l0,500.792" style="fill:none;stroke:#00675a;stroke-width:7px;stroke-dasharray:7,14,0,0;"/>
    <path d="M658.995,73.222l0,500.792" style="fill:none;stroke:#00675a;stroke-width:7px;stroke-dasharray:7,14,0,0;"/>
    <path d="M819.477,73.222l0,500.792" style="fill:none;stroke:#00675a;stroke-width:7px;stroke-dasharray:7,14,0,0;"/>
    <path d="M920.574,163.136l-844.121,0" style="fill:none;stroke:#00675a;stroke-width:7px;stroke-dasharray:7,14,0,0;"/>
    <path d="M920.574,323.618l-844.121,0" style="fill:none;stroke:#00675a;stroke-width:7px;stroke-dasharray:7,14,0,0;"/>
    <path d="M920.574,484.1l-844.121,0" style="fill:none;stroke:#00675a;stroke-width:7px;stroke-dasharray:7,14,0,0;"/>
    <path d="M180.781,45.313l0,-20.842l-4.363,0c-1.898,1.091 -3.877,1.818 -6.866,2.343l0,3.676l5.291,0l0,14.823l-6.624,0l0,4.807l18.378,0l0,-4.807l-5.816,0Z" style="fill:#00deaf;fill-rule:nonzero;"/>
    <path d="M53.603,171.214l0,-20.842l-4.362,0c-1.898,1.09 -3.877,1.817 -6.866,2.342l0,3.676l5.291,0l0,14.824l-6.624,0l0,4.806l18.378,0l0,-4.806l-5.817,0Z" style="fill:#00deaf;fill-rule:nonzero;"/>
    <path d="M40.072,336.502l19.267,0l0,-5.008l-6.099,0c-1.333,0 -3.191,0.161 -4.645,0.323c4.968,-4.362 9.411,-8.967 9.411,-13.289c0,-4.928 -3.675,-8.159 -9.048,-8.159c-3.958,0 -6.503,1.373 -9.169,4.08l3.191,3.191c1.455,-1.374 3.111,-2.626 5.171,-2.626c2.665,0 4.2,1.373 4.2,3.878c0,3.675 -4.927,8.038 -12.279,14.218l0,3.392Z" style="fill:#00deaf;fill-rule:nonzero;"/>
    <path d="M39.426,493.834c1.979,2.181 5.17,3.635 9.573,3.635c5.412,0 10.179,-2.706 10.179,-7.472c0,-3.312 -2.505,-5.413 -5.736,-6.261l0,-0.162c3.07,-1.171 4.887,-3.029 4.887,-5.695c0,-4.483 -3.877,-7.028 -9.451,-7.028c-3.312,0 -6.221,1.252 -8.725,3.272l2.989,3.635c1.777,-1.414 3.433,-2.262 5.453,-2.262c2.343,0 3.797,1.05 3.797,2.828c0,2.06 -1.858,3.433 -6.907,3.433l0,4.201c6.018,0 7.755,1.413 7.755,3.675c0,1.939 -2.02,3.03 -4.807,3.03c-2.342,0 -4.564,-1.091 -6.26,-2.585l-2.747,3.756Z" style="fill:#00deaf;fill-rule:nonzero;"/>
    <path d="M327.732,50.12l19.266,0l0,-5.009l-6.099,0c-1.333,0 -3.191,0.162 -4.645,0.323c4.968,-4.362 9.411,-8.966 9.411,-13.288c0,-4.928 -3.675,-8.16 -9.047,-8.16c-3.959,0 -6.503,1.374 -9.169,4.08l3.191,3.191c1.454,-1.373 3.11,-2.625 5.17,-2.625c2.666,0 4.201,1.373 4.201,3.877c0,3.676 -4.928,8.038 -12.279,14.218l0,3.393Z" style="fill:#00deaf;fill-rule:nonzero;"/>
    <path d="M487.567,46.969c1.979,2.181 5.17,3.636 9.573,3.636c5.413,0 10.179,-2.707 10.179,-7.473c0,-3.312 -2.505,-5.412 -5.736,-6.261l0,-0.161c3.07,-1.172 4.888,-3.03 4.888,-5.695c0,-4.484 -3.878,-7.029 -9.452,-7.029c-3.312,0 -6.22,1.253 -8.725,3.272l2.989,3.635c1.778,-1.413 3.434,-2.261 5.453,-2.261c2.343,0 3.797,1.05 3.797,2.827c0,2.06 -1.858,3.433 -6.907,3.433l0,4.201c6.018,0 7.755,1.414 7.755,3.676c0,1.938 -2.019,3.029 -4.806,3.029c-2.343,0 -4.565,-1.091 -6.261,-2.585l-2.747,3.756Z" style="fill:#00deaf;fill-rule:nonzero;"/>
    <path d="M653.502,39.456l3.878,-5.574c0.888,-1.454 1.939,-2.908 2.787,-4.362l0.161,0c-0.08,1.616 -0.202,3.999 -0.202,5.615l0,4.321l-6.624,0Zm15.389,0l-3.231,0l0,-14.985l-7.19,0l-10.703,15.43l0,4.079l12.359,0l0,6.14l5.534,0l0,-6.14l3.231,0l0,-4.524Z" style="fill:#00deaf;fill-rule:nonzero;"/>
    <path d="M808.693,47.01c2.1,2.019 5.13,3.595 9.573,3.595c5.291,0 10.057,-3.272 10.057,-8.967c0,-5.453 -4.079,-7.958 -8.805,-7.958c-1.293,0 -2.222,0.162 -3.393,0.606l0.444,-4.806l10.583,0l0,-5.009l-15.713,0l-0.686,12.966l2.625,1.696c1.737,-0.969 2.626,-1.292 4.322,-1.292c2.706,0 4.686,1.373 4.686,3.958c0,2.626 -2.06,3.999 -4.969,3.999c-2.423,0 -4.362,-1.131 -6.058,-2.545l-2.666,3.757Z" style="fill:#00deaf;fill-rule:nonzero;"/>
</svg>
