<?xml version="1.0" encoding="UTF-8" standalone="no"?>
<!DOCTYPE svg PUBLIC "-//W3C//DTD SVG 1.1//EN" "http://www.w3.org/Graphics/SVG/1.1/DTD/svg11.dtd">
<svg width="100%" height="100%" viewBox="0 0 587 623" version="1.1" xmlns="http://www.w3.org/2000/svg" xmlns:xlink="http://www.w3.org/1999/xlink" xml:space="preserve" xmlns:serif="http://www.serif.com/" style="fill-rule:evenodd;clip-rule:evenodd;stroke-linecap:round;stroke-linejoin:round;stroke-miterlimit:1.5;">
    <rect id="Artboard2" x="0" y="0" width="587" height="623" style="fill:none;"/>
    <rect x="115.003" y="146.706" width="367.943" height="124.794" style="fill:#ebebeb;"/>
    <rect x="115.003" y="269.872" width="122.272" height="247.191" style="fill:#ccc;"/>
    <rect x="237.555" y="269.872" width="122.272" height="124.794" style="fill:#9b9b9b;"/>
    <rect x="237.555" y="394.789" width="122.272" height="124.794" style="fill:#4b4b4b;"/>
    <path d="M115.937,79.927l0,506.146" style="fill:none;stroke:#00675a;stroke-width:7px;stroke-dasharray:7,14,0,0;"/>
    <path d="M238.719,79.927l-0,506.146" style="fill:none;stroke:#00675a;stroke-width:7px;stroke-dasharray:7,14,0,0;"/>
    <path d="M361.5,79.927l0,506.146" style="fill:none;stroke:#00675a;stroke-width:7px;stroke-dasharray:7,14,0,0;"/>
    <path d="M484.281,79.927l0,506.146" style="fill:none;stroke:#00675a;stroke-width:7px;stroke-dasharray:7,14,0,0;"/>
    <path d="M548.41,148.719l-509.82,-0" style="fill:none;stroke:#00675a;stroke-width:7px;stroke-dasharray:7,14,0,0;"/>
    <path d="M548.41,271.5l-509.82,0" style="fill:none;stroke:#00675a;stroke-width:7px;stroke-dasharray:7,14,0,0;"/>
    <path d="M548.41,394.281l-509.82,0" style="fill:none;stroke:#00675a;stroke-width:7px;stroke-dasharray:7,14,0,0;"/>
    <path d="M548.41,517.063l-509.82,-0" style="fill:none;stroke:#00675a;stroke-width:7px;stroke-dasharray:7,14,0,0;"/>
    <path d="M117.584,59.516l-0,-15.946l-3.338,0c-1.452,0.834 -2.966,1.391 -5.253,1.792l-0,2.813l4.048,-0l0,11.341l-5.068,-0l-0,3.677l14.061,0l-0,-3.677l-4.45,-0Z" style="fill:#00deaf;fill-rule:nonzero;"/>
    <path d="M17.71,152.84l0,-15.946l-3.337,0c-1.453,0.834 -2.967,1.391 -5.254,1.792l0,2.813l4.049,-0l-0,11.341l-5.068,-0l-0,3.677l14.06,0l0,-3.677l-4.45,-0Z" style="fill:#00deaf;fill-rule:nonzero;"/>
    <path d="M7.358,279.299l14.741,-0l-0,-3.832l-4.667,-0c-1.02,-0 -2.441,0.123 -3.554,0.247c3.801,-3.337 7.201,-6.86 7.201,-10.167c-0,-3.77 -2.812,-6.242 -6.922,-6.242c-3.029,-0 -4.976,1.05 -7.015,3.121l2.441,2.441c1.112,-1.051 2.379,-2.009 3.955,-2.009c2.04,0 3.214,1.051 3.214,2.967c0,2.812 -3.77,6.15 -9.394,10.878l-0,2.596Z" style="fill:#00deaf;fill-rule:nonzero;"/>
    <path d="M6.863,399.67c1.515,1.669 3.956,2.781 7.324,2.781c4.141,0 7.788,-2.07 7.788,-5.717c-0,-2.534 -1.916,-4.141 -4.388,-4.79l-0,-0.124c2.348,-0.896 3.739,-2.317 3.739,-4.357c-0,-3.43 -2.967,-5.377 -7.231,-5.377c-2.534,0 -4.759,0.958 -6.675,2.503l2.286,2.781c1.36,-1.081 2.627,-1.73 4.172,-1.73c1.793,-0 2.905,0.803 2.905,2.163c0,1.576 -1.421,2.627 -5.284,2.627l-0,3.214c4.604,-0 5.933,1.081 5.933,2.812c0,1.483 -1.545,2.318 -3.677,2.318c-1.793,-0 -3.492,-0.835 -4.79,-1.978l-2.102,2.874Z" style="fill:#00deaf;fill-rule:nonzero;"/>
    <path d="M11.035,518.716l2.967,-4.264c0.68,-1.113 1.483,-2.225 2.132,-3.338l0.124,0c-0.062,1.236 -0.155,3.059 -0.155,4.296l0,3.306l-5.068,0Zm11.774,0l-2.472,0l0,-11.465l-5.501,0l-8.189,11.805l0,3.121l9.456,0l0,4.698l4.234,-0l0,-4.698l2.472,0l0,-3.461Z" style="fill:#00deaf;fill-rule:nonzero;"/>
    <path d="M230.013,63.193l14.74,0l0,-3.832l-4.666,0c-1.02,0 -2.441,0.124 -3.554,0.248c3.801,-3.338 7.201,-6.861 7.201,-10.167c-0,-3.771 -2.813,-6.243 -6.923,-6.243c-3.028,0 -4.975,1.051 -7.015,3.121l2.442,2.442c1.112,-1.051 2.379,-2.009 3.955,-2.009c2.04,0 3.214,1.051 3.214,2.967c0,2.812 -3.77,6.149 -9.394,10.878l-0,2.595Z" style="fill:#00deaf;fill-rule:nonzero;"/>
    <path d="M352.3,60.783c1.514,1.669 3.955,2.781 7.324,2.781c4.141,0 7.787,-2.07 7.787,-5.717c0,-2.534 -1.916,-4.141 -4.388,-4.79l0,-0.123c2.349,-0.897 3.739,-2.318 3.739,-4.358c0,-3.43 -2.966,-5.377 -7.231,-5.377c-2.534,0 -4.759,0.958 -6.675,2.503l2.287,2.782c1.36,-1.082 2.627,-1.731 4.172,-1.731c1.792,0 2.905,0.804 2.905,2.163c-0,1.576 -1.422,2.627 -5.285,2.627l0,3.214c4.605,-0 5.934,1.082 5.934,2.812c-0,1.483 -1.546,2.318 -3.678,2.318c-1.792,-0 -3.492,-0.835 -4.79,-1.978l-2.101,2.874Z" style="fill:#00deaf;fill-rule:nonzero;"/>
    <path d="M479.253,55.035l2.967,-4.265c0.68,-1.112 1.483,-2.225 2.132,-3.337l0.124,-0c-0.062,1.236 -0.155,3.059 -0.155,4.295l0,3.307l-5.068,0Zm11.774,0l-2.472,0l-0,-11.465l-5.501,0l-8.189,11.805l-0,3.121l9.456,0l0,4.697l4.234,0l-0,-4.697l2.472,0l0,-3.461Z" style="fill:#00deaf;fill-rule:nonzero;"/>
    <path d="M272.929,217.371l2.76,-0l0.288,-1.296l0.096,-0c0.984,1.032 2.136,1.584 3.24,1.584c2.664,-0 5.16,-2.352 5.16,-6.456c0,-3.648 -1.824,-6.024 -4.8,-6.024c-1.152,-0 -2.376,0.504 -3.312,1.368l0.096,-1.872l0,-4.128l-3.528,-0l0,16.824Zm3.528,-3.384l0,-4.824c0.744,-0.768 1.44,-1.104 2.208,-1.104c1.488,-0 2.184,1.08 2.184,3.216c0,2.448 -1.032,3.504 -2.328,3.504c-0.624,-0 -1.392,-0.216 -2.064,-0.792Z" style="fill-rule:nonzero;"/>
    <path d="M286.729,211.419c0,3.96 2.928,6.24 6.072,6.24c3.144,-0 6.072,-2.28 6.072,-6.24c0,-3.96 -2.928,-6.24 -6.072,-6.24c-3.144,-0 -6.072,2.28 -6.072,6.24Zm3.624,-0c0,-2.064 0.816,-3.384 2.448,-3.384c1.632,-0 2.448,1.32 2.448,3.384c0,2.064 -0.816,3.384 -2.448,3.384c-1.632,-0 -2.448,-1.32 -2.448,-3.384Z" style="fill-rule:nonzero;"/>
    <path d="M300.889,217.371l3.696,-0l1.176,-1.968c0.36,-0.696 0.744,-1.392 1.104,-2.064l0.096,-0c0.432,0.672 0.936,1.392 1.368,2.064l1.368,1.968l3.792,-0l-4.128,-5.784l3.888,-6.12l-3.696,-0l-1.056,1.92c-0.312,0.648 -0.672,1.368 -0.984,2.04l-0.096,-0c-0.408,-0.672 -0.888,-1.368 -1.248,-2.04l-1.224,-1.92l-3.792,-0l3.864,5.712l-4.128,6.192Z" style="fill-rule:nonzero;"/>
    <path d="M323.833,214.515l0,-12.384l-2.592,-0c-1.128,0.648 -2.304,1.08 -4.08,1.392l0,2.184l3.144,-0l0,8.808l-3.936,-0l0,2.856l10.92,-0l0,-2.856l-3.456,-0Z" style="fill-rule:nonzero;"/>
    <path d="M148.959,340.152l2.76,0l0.288,-1.296l0.096,0c0.984,1.032 2.136,1.584 3.24,1.584c2.664,0 5.16,-2.352 5.16,-6.456c0,-3.648 -1.824,-6.024 -4.8,-6.024c-1.152,0 -2.376,0.504 -3.312,1.368l0.096,-1.872l0,-4.128l-3.528,0l0,16.824Zm3.528,-3.384l0,-4.824c0.744,-0.768 1.44,-1.104 2.208,-1.104c1.488,0 2.184,1.08 2.184,3.216c0,2.448 -1.032,3.504 -2.328,3.504c-0.624,0 -1.392,-0.216 -2.064,-0.792Z" style="fill-rule:nonzero;"/>
    <path d="M162.759,334.2c0,3.96 2.928,6.24 6.072,6.24c3.144,0 6.072,-2.28 6.072,-6.24c0,-3.96 -2.928,-6.24 -6.072,-6.24c-3.144,0 -6.072,2.28 -6.072,6.24Zm3.624,0c0,-2.064 0.816,-3.384 2.448,-3.384c1.632,0 2.448,1.32 2.448,3.384c0,2.064 -0.816,3.384 -2.448,3.384c-1.632,0 -2.448,-1.32 -2.448,-3.384Z" style="fill-rule:nonzero;"/>
    <path d="M176.919,340.152l3.696,0l1.176,-1.968c0.36,-0.696 0.744,-1.392 1.104,-2.064l0.096,0c0.432,0.672 0.936,1.392 1.368,2.064l1.368,1.968l3.792,0l-4.128,-5.784l3.888,-6.12l-3.696,0l-1.056,1.92c-0.312,0.648 -0.672,1.368 -0.984,2.04l-0.096,0c-0.408,-0.672 -0.888,-1.368 -1.248,-2.04l-1.224,-1.92l-3.792,0l3.864,5.712l-4.128,6.192Z" style="fill-rule:nonzero;"/>
    <path d="M191.823,340.152l11.448,0l0,-2.976l-3.624,0c-0.792,0 -1.896,0.096 -2.76,0.192c2.952,-2.592 5.592,-5.328 5.592,-7.896c0,-2.928 -2.184,-4.848 -5.376,-4.848c-2.352,0 -3.864,0.816 -5.448,2.424l1.896,1.896c0.864,-0.816 1.848,-1.56 3.072,-1.56c1.584,0 2.496,0.816 2.496,2.304c0,2.184 -2.928,4.776 -7.296,8.448l0,2.016Z" style="fill-rule:nonzero;"/>
    <path d="M270.297,340.152l2.76,0l0.288,-1.296l0.096,0c0.984,1.032 2.136,1.584 3.24,1.584c2.664,0 5.16,-2.352 5.16,-6.456c-0,-3.648 -1.824,-6.024 -4.8,-6.024c-1.152,0 -2.376,0.504 -3.312,1.368l0.096,-1.872l-0,-4.128l-3.528,0l-0,16.824Zm3.528,-3.384l-0,-4.824c0.744,-0.768 1.44,-1.104 2.208,-1.104c1.488,0 2.184,1.08 2.184,3.216c-0,2.448 -1.032,3.504 -2.328,3.504c-0.624,0 -1.392,-0.216 -2.064,-0.792Z" style="fill-rule:nonzero;"/>
    <path d="M284.097,334.2c-0,3.96 2.928,6.24 6.072,6.24c3.144,0 6.072,-2.28 6.072,-6.24c-0,-3.96 -2.928,-6.24 -6.072,-6.24c-3.144,0 -6.072,2.28 -6.072,6.24Zm3.624,0c-0,-2.064 0.816,-3.384 2.448,-3.384c1.632,0 2.448,1.32 2.448,3.384c-0,2.064 -0.816,3.384 -2.448,3.384c-1.632,0 -2.448,-1.32 -2.448,-3.384Z" style="fill-rule:nonzero;"/>
    <path d="M298.257,340.152l3.696,0l1.176,-1.968c0.36,-0.696 0.744,-1.392 1.104,-2.064l0.096,0c0.432,0.672 0.936,1.392 1.368,2.064l1.368,1.968l3.792,0l-4.128,-5.784l3.888,-6.12l-3.696,0l-1.056,1.92c-0.312,0.648 -0.672,1.368 -0.984,2.04l-0.096,0c-0.408,-0.672 -0.888,-1.368 -1.248,-2.04l-1.224,-1.92l-3.792,0l3.864,5.712l-4.128,6.192Z" style="fill-rule:nonzero;"/>
    <path d="M312.777,338.28c1.176,1.296 3.072,2.16 5.688,2.16c3.216,0 6.048,-1.608 6.048,-4.44c-0,-1.968 -1.488,-3.216 -3.408,-3.72l-0,-0.096c1.824,-0.696 2.904,-1.8 2.904,-3.384c-0,-2.664 -2.304,-4.176 -5.616,-4.176c-1.968,0 -3.696,0.744 -5.184,1.944l1.776,2.16c1.056,-0.84 2.04,-1.344 3.24,-1.344c1.392,0 2.256,0.624 2.256,1.68c-0,1.224 -1.104,2.04 -4.104,2.04l-0,2.496c3.576,0 4.608,0.84 4.608,2.184c-0,1.152 -1.2,1.8 -2.856,1.8c-1.392,0 -2.712,-0.648 -3.72,-1.536l-1.632,2.232Z" style="fill-rule:nonzero;"/>
    <path d="M271.867,465.454l2.76,0l0.288,-1.296l0.096,0c0.984,1.032 2.136,1.584 3.24,1.584c2.664,0 5.16,-2.352 5.16,-6.456c-0,-3.648 -1.824,-6.024 -4.8,-6.024c-1.152,0 -2.376,0.504 -3.312,1.368l0.096,-1.872l-0,-4.128l-3.528,0l-0,16.824Zm3.528,-3.384l-0,-4.824c0.744,-0.768 1.44,-1.104 2.208,-1.104c1.488,0 2.184,1.08 2.184,3.216c-0,2.448 -1.032,3.504 -2.328,3.504c-0.624,0 -1.392,-0.216 -2.064,-0.792Z" style="fill:#fff;fill-rule:nonzero;"/>
    <path d="M285.667,459.502c-0,3.96 2.928,6.24 6.072,6.24c3.144,0 6.072,-2.28 6.072,-6.24c-0,-3.96 -2.928,-6.24 -6.072,-6.24c-3.144,0 -6.072,2.28 -6.072,6.24Zm3.624,0c-0,-2.064 0.816,-3.384 2.448,-3.384c1.632,0 2.448,1.32 2.448,3.384c-0,2.064 -0.816,3.384 -2.448,3.384c-1.632,0 -2.448,-1.32 -2.448,-3.384Z" style="fill:#fff;fill-rule:nonzero;"/>
    <path d="M299.827,465.454l3.696,0l1.176,-1.968c0.36,-0.696 0.744,-1.392 1.104,-2.064l0.096,0c0.432,0.672 0.936,1.392 1.368,2.064l1.368,1.968l3.792,0l-4.128,-5.784l3.888,-6.12l-3.696,0l-1.056,1.92c-0.312,0.648 -0.672,1.368 -0.984,2.04l-0.096,0c-0.408,-0.672 -0.888,-1.368 -1.248,-2.04l-1.224,-1.92l-3.792,0l3.864,5.712l-4.128,6.192Z" style="fill:#fff;fill-rule:nonzero;"/>
    <path d="M317.587,459.118l2.304,-3.312c0.528,-0.864 1.152,-1.728 1.656,-2.592l0.096,0c-0.048,0.96 -0.12,2.376 -0.12,3.336l-0,2.568l-3.936,0Zm9.144,0l-1.92,0l-0,-8.904l-4.272,0l-6.36,9.168l-0,2.424l7.344,0l-0,3.648l3.288,0l-0,-3.648l1.92,0l-0,-2.688Z" style="fill:#fff;fill-rule:nonzero;"/>
</svg>
