<svg xmlns="http://www.w3.org/2000/svg" width="1000" height="950" viewBox="0 0 1000 950"><defs><style>.a{fill:#9d35af;}.b{fill:#672373;}.c,.d,.e,.h,.i,.j,.k,.l{fill:none;}.c,.d,.e,.i{stroke:#c883d4;}.c,.d,.e,.i,.k,.l{stroke-linecap:round;stroke-linejoin:round;}.c,.d,.e,.i,.k{stroke-width:3px;}.d{stroke-dasharray:1.97 8.87;}.e{stroke-dasharray:1.99 8.96;}.f{fill:#fff;}.g{fill:#63666a;}.h,.k{stroke:#d9d8e3;}.h,.j{stroke-miterlimit:10;}.h,.j,.l{stroke-width:2px;}.i{stroke-dasharray:2.04 9.16;}.j{stroke:#ccc;}.k{stroke-dasharray:2 9;}.l{stroke:#00deaf;}</style></defs><title>border-box</title><path class="a" d="M729 54.8v310h-458v-310z"/><path class="b" d="M712 72.8v274h-424v-274z"/><path class="c" d="M673.4 307.3v1h-1"/><path class="d" d="M663.5 308.3h-331.7"/><path class="c" d="M327.3 308.3h-1v-1"/><path class="e" d="M326.3 298.4v-181.7"/><path class="c" d="M326.3 112.2v-1h1"/><path class="d" d="M336.2 111.2h331.8"/><path class="c" d="M672.4 111.2h1v1"/><path class="e" d="M673.4 121.2v181.6"/><path class="f" d="M430.4 205.7h1.6l1.7 7.8 1.4-5h1.4l1.4 5 1.7-7.8h1.6l-2.3 9.7h-1.5l-1.6-5.3-1.5 5.3h-1.5zM443.9 205.8h4.1v8.4h3.2v1.2h-7.9v-1.2h3.2v-7.2h-2.5v-1.2zm2.5-3.8h1.6v2h-1.6v-2zM459.2 207v-5h1.6v13.5h-1.6v-1.2a2.8 2.8 0 0 1-1.1 1.1 3 3 0 0 1-1.5.4 3.3 3.3 0 0 1-2.8-1.4 6.2 6.2 0 0 1-1-3.8 6 6 0 0 1 1-3.7 3.3 3.3 0 0 1 2.8-1.3 3.1 3.1 0 0 1 1.5.4 2.6 2.6 0 0 1 1.1 1zm-4.7 3.6a5.4 5.4 0 0 0 .6 2.8 1.9 1.9 0 0 0 1.7.9 1.9 1.9 0 0 0 1.8-1 6.8 6.8 0 0 0 0-5.6 1.9 1.9 0 0 0-1.8-.9 1.9 1.9 0 0 0-1.7.9 5.3 5.3 0 0 0-.6 2.9zM467.8 203v2.8h3.6v1.2h-3.6v5.3a2.2 2.2 0 0 0 .4 1.5 1.9 1.9 0 0 0 1.4.4h1.8v1.3h-1.9a3.6 3.6 0 0 1-2.5-.7 3.4 3.4 0 0 1-.7-2.5v-5.3h-2.6v-1.2h2.6v-2.8h1.6zM482.3 209.4v6h-1.6v-6a3.2 3.2 0 0 0-.5-1.9 1.7 1.7 0 0 0-1.4-.6 2 2 0 0 0-1.7.8 3.7 3.7 0 0 0-.6 2.3v5.5h-1.6v-13.5h1.6v5.2a3 3 0 0 1 1.2-1.3 3.3 3.3 0 0 1 1.7-.4 2.6 2.6 0 0 1 2.2 1 4.9 4.9 0 0 1 .7 2.9zM487.6 205.7h2.7v3.1h-2.7v-3.1zm0 6.5h2.7v3.2h-2.7v-3.2zM507.5 214h2.7v-9.8l-3.3 1.6v-1.7l3.2-1.5h1.9v11.4h2.7v1.5h-7.1v-1.5zM521.2 202.3a3.5 3.5 0 0 1 3.1 1.7 12.3 12.3 0 0 1 0 10 3.7 3.7 0 0 1-6.3 0 12.4 12.4 0 0 1 0-10 3.5 3.5 0 0 1 3.2-1.7zm0 1.4a1.9 1.9 0 0 0-1.8 1.3 10 10 0 0 0-.6 4 15 15 0 0 0 .2 2.3l4-6.4a2 2 0 0 0-1.8-1.2zm0 10.6a1.9 1.9 0 0 0 1.8-1.3 10 10 0 0 0 .6-4 17.5 17.5 0 0 0-.2-2.6l-4.1 6.5a2 2 0 0 0 1.9 1.4zM531.9 202.3a3.5 3.5 0 0 1 3.1 1.7 12.3 12.3 0 0 1 0 10 3.7 3.7 0 0 1-6.3 0 12.4 12.4 0 0 1 0-10 3.5 3.5 0 0 1 3.2-1.7zm0 1.4a1.9 1.9 0 0 0-1.8 1.3 10 10 0 0 0-.6 4 15 15 0 0 0 .2 2.3l4-6.4a2 2 0 0 0-1.8-1.2zm0 10.6a1.9 1.9 0 0 0 1.8-1.3 10 10 0 0 0 .6-4 17.5 17.5 0 0 0-.2-2.6l-4.1 6.5a2 2 0 0 0 1.9 1.4zM540.5 214.2v4.9h-1.6v-13.4h1.6v1.3a2.8 2.8 0 0 1 1.1-1.1 3 3 0 0 1 1.5-.4 3.2 3.2 0 0 1 2.8 1.4 6.2 6.2 0 0 1 1 3.8 6.1 6.1 0 0 1-1 3.7 3.3 3.3 0 0 1-2.8 1.3 3.1 3.1 0 0 1-1.5-.4 2.7 2.7 0 0 1-1.1-1.1zm4.7-3.6a5.4 5.4 0 0 0-.6-2.8 1.9 1.9 0 0 0-1.7-.9 1.9 1.9 0 0 0-1.8.9 6.8 6.8 0 0 0 0 5.6 1.9 1.9 0 0 0 1.8 1 1.9 1.9 0 0 0 1.7-.9 5.4 5.4 0 0 0 .6-2.9zM557.6 205.7l-3.5 4.6 3.8 5.1h-1.8l-2.8-3.9-2.8 3.9h-1.8l3.8-5.1-3.5-4.6h1.8l2.6 3.5 2.6-3.5h1.8zM562.4 212.3h2.7v2.3l-1.7 3.3h-1.9l.9-3.3v-2.3zm-.1-6.6h2.7v3.1h-2.7v-3.1zM428.2 96.2v4.9h-1.6v-13.4h1.6v1.3a2.8 2.8 0 0 1 1.1-1.1 3 3 0 0 1 1.5-.4 3.2 3.2 0 0 1 2.8 1.4 6.2 6.2 0 0 1 1 3.8 6.1 6.1 0 0 1-1 3.7 3.3 3.3 0 0 1-2.8 1.3 3.1 3.1 0 0 1-1.5-.4 2.7 2.7 0 0 1-1.1-1.1zm4.7-3.6a5.4 5.4 0 0 0-.6-2.8 1.9 1.9 0 0 0-1.7-.9 1.9 1.9 0 0 0-1.8.9 6.8 6.8 0 0 0 0 5.6 1.9 1.9 0 0 0 1.8 1 1.9 1.9 0 0 0 1.7-.9 5.4 5.4 0 0 0 .5-2.9zM444.8 91.9v5.5h-1.6v-1.4a3.3 3.3 0 0 1-1.3 1.3 4 4 0 0 1-1.9.4 3.3 3.3 0 0 1-2.4-.8 3.3 3.3 0 0 1 .2-4.7 5.1 5.1 0 0 1 3.2-.8h2.1v-.3a2.2 2.2 0 0 0-.6-1.7 2.7 2.7 0 0 0-1.9-.5l-1.6.2-1.6.7v-1.6l1.7-.5 1.6-.2a5.3 5.3 0 0 1 2.1.4 3.2 3.2 0 0 1 1.4 1.1 2.7 2.7 0 0 1 .5 1.1 9.7 9.7 0 0 1 .1 1.8zm-3.1.7h-.5a3.7 3.7 0 0 0-2.1.5 1.7 1.7 0 0 0-.7 1.5 1.8 1.8 0 0 0 .5 1.4 2.1 2.1 0 0 0 1.5.5 2.5 2.5 0 0 0 2.1-.9 3.9 3.9 0 0 0 .8-2.5v-.5h-1.5zM453.7 89v-5h1.6v13.4h-1.6v-1.2a2.8 2.8 0 0 1-1.1 1.1 3 3 0 0 1-1.5.4 3.3 3.3 0 0 1-2.8-1.4 6.2 6.2 0 0 1-1-3.8 6 6 0 0 1 1-3.7 3.3 3.3 0 0 1 2.8-1.3 3.1 3.1 0 0 1 1.5.4 2.6 2.6 0 0 1 1.1 1.1zm-4.7 3.6a5.4 5.4 0 0 0 .6 2.8 1.9 1.9 0 0 0 1.7.9 1.9 1.9 0 0 0 1.8-1 6.8 6.8 0 0 0 0-5.6 1.9 1.9 0 0 0-1.8-.9 1.9 1.9 0 0 0-1.7.9 5.3 5.3 0 0 0-.6 2.9zM464.4 89v-5h1.6v13.4h-1.6v-1.2a2.8 2.8 0 0 1-1.1 1.1 3 3 0 0 1-1.5.4 3.3 3.3 0 0 1-2.8-1.4 6.2 6.2 0 0 1-1-3.8 6 6 0 0 1 1-3.7 3.3 3.3 0 0 1 2.8-1.3 3.1 3.1 0 0 1 1.5.4 2.6 2.6 0 0 1 1.1 1.1zm-4.7 3.6a5.4 5.4 0 0 0 .6 2.8 1.9 1.9 0 0 0 1.7.9 1.9 1.9 0 0 0 1.8-1 6.8 6.8 0 0 0 0-5.6 1.9 1.9 0 0 0-1.8-.9 1.9 1.9 0 0 0-1.7.9 5.3 5.3 0 0 0-.6 2.9zM470.7 87.8h4.1v8.4h3.2v1.2h-7.9v-1.2h3.2v-7.2h-2.5v-1.2zm2.5-3.8h1.6v2h-1.6v-2zM487.8 91.4v6h-1.6v-6a3.2 3.2 0 0 0-.5-1.9 1.7 1.7 0 0 0-1.4-.6 2 2 0 0 0-1.7.8 3.7 3.7 0 0 0-.6 2.3v5.5h-1.6v-9.8h1.6v1.5a3 3 0 0 1 1.2-1.3 3.3 3.3 0 0 1 1.7-.4 2.6 2.6 0 0 1 2.2 1 4.9 4.9 0 0 1 .7 2.9zM498.4 96.8a4.7 4.7 0 0 1-1 3.3 3.9 3.9 0 0 1-3 1.1h-1.4l-1.4-.4v-1.6l1.5.6 1.3.2a2.3 2.3 0 0 0 1.9-.7 3.4 3.4 0 0 0 .6-2.2v-1.2a2.7 2.7 0 0 1-1 1.2 3 3 0 0 1-1.6.4 3.2 3.2 0 0 1-2.7-1.4 7.1 7.1 0 0 1 0-7.3 3.2 3.2 0 0 1 2.7-1.4 3.1 3.1 0 0 1 1.6.4 2.7 2.7 0 0 1 1.1 1.2v-1.2h1.6v9zm-1.6-4.3a5.2 5.2 0 0 0-.6-2.7 1.9 1.9 0 0 0-1.7-.9 2 2 0 0 0-1.8.9 6.3 6.3 0 0 0 0 5.5 2 2 0 0 0 1.8.9 1.9 1.9 0 0 0 1.7-.9 5.2 5.2 0 0 0 .6-2.8zM503.8 87.7h2.7v3.1h-2.7v-3.1zm0 6.5h2.7v3.2h-2.7v-3.1zM523.7 96h2.7v-9.8l-3.3 1.6v-1.7l3.2-1.5h1.8v11.4h2.7v1.5h-7.1v-1.5zM537.4 84.3a3.5 3.5 0 0 1 3.1 1.7 9.5 9.5 0 0 1 1.1 5 9.5 9.5 0 0 1-1.1 5 3.7 3.7 0 0 1-6.3 0 9.5 9.5 0 0 1-1.1-5 9.5 9.5 0 0 1 1.1-5 3.5 3.5 0 0 1 3.2-1.7zm0 1.4a1.9 1.9 0 0 0-1.8 1.3 10 10 0 0 0-.6 4 15 15 0 0 0 .2 2.3l4-6.4a2 2 0 0 0-1.8-1.2zm0 10.6a1.9 1.9 0 0 0 1.8-1.3 10 10 0 0 0 .6-4 17.5 17.5 0 0 0-.2-2.6l-4.1 6.5a2 2 0 0 0 1.9 1.4zM546 96.2v4.9h-1.6v-13.4h1.6v1.3a2.8 2.8 0 0 1 1.1-1.1 3 3 0 0 1 1.5-.4 3.2 3.2 0 0 1 2.8 1.4 6.2 6.2 0 0 1 1 3.8 6.1 6.1 0 0 1-1 3.7 3.3 3.3 0 0 1-2.8 1.3 3.1 3.1 0 0 1-1.5-.4 2.7 2.7 0 0 1-1.1-1.1zm4.7-3.6a5.4 5.4 0 0 0-.6-2.8 1.9 1.9 0 0 0-1.7-.9 1.9 1.9 0 0 0-1.8.9 6.8 6.8 0 0 0 0 5.6 1.9 1.9 0 0 0 1.8 1 1.9 1.9 0 0 0 1.7-.9 5.4 5.4 0 0 0 .6-2.9zM563.1 87.7l-3.5 4.6 3.8 5.1h-1.8l-2.8-3.9-2.8 3.9h-1.8l3.8-5.1-3.5-4.6h1.8l2.6 3.5 2.6-3.5h1.8zM568 94.3h2.7v2.3l-1.7 3.3h-1.9l.9-3.3v-2.3zm-.1-6.6h2.7v3.1h-2.7v-3.1zM407 62a2.7 2.7 0 0 1 1.1-1.1 3.1 3.1 0 0 1 1.6-.4 3.3 3.3 0 0 1 2.8 1.3 6.1 6.1 0 0 1 1 3.7 6.2 6.2 0 0 1-1 3.8 3.3 3.3 0 0 1-2.8 1.4 3 3 0 0 1-1.5-.4 2.8 2.8 0 0 1-1.1-1.1v1.2h-1.6v-13.4h1.5v5zm4.7 3.6a5.3 5.3 0 0 0-.6-2.8 1.9 1.9 0 0 0-1.7-.9 1.9 1.9 0 0 0-1.8.9 5.3 5.3 0 0 0-.6 2.8 5.3 5.3 0 0 0 .6 2.8 1.9 1.9 0 0 0 1.8 1 1.9 1.9 0 0 0 1.7-.9 5.4 5.4 0 0 0 .6-2.9zM419.7 60.5a3.8 3.8 0 0 1 3.1 1.3 5.9 5.9 0 0 1 1.1 3.8 5.9 5.9 0 0 1-1.1 3.8 4.3 4.3 0 0 1-6.2 0 5.9 5.9 0 0 1-1.1-3.8 5.9 5.9 0 0 1 1.1-3.8 3.7 3.7 0 0 1 3.1-1.3zm0 1.4a2.1 2.1 0 0 0-1.8.9 5.1 5.1 0 0 0-.6 2.8 5.1 5.1 0 0 0 .6 2.8 2.3 2.3 0 0 0 3.7 0 5.1 5.1 0 0 0 .6-2.8 5.1 5.1 0 0 0-.6-2.8 2.1 2.1 0 0 0-1.9-.9zM435.1 62.7l-1-.6-1.2-.2a2.8 2.8 0 0 0-2.3.9 4.1 4.1 0 0 0-.8 2.7v4.8h-1.6v-9.6h1.6v1.9a3.2 3.2 0 0 1 1.2-1.6 3.5 3.5 0 0 1 2-.6h1.1l1 .5v1.6zM443.2 62v-5h1.6v13.4h-1.6v-1.2a2.8 2.8 0 0 1-1.1 1.1 3 3 0 0 1-1.5.4 3.3 3.3 0 0 1-2.8-1.4 6.2 6.2 0 0 1-1-3.8 6 6 0 0 1 1-3.7 3.3 3.3 0 0 1 2.8-1.3 3.1 3.1 0 0 1 1.5.4 2.6 2.6 0 0 1 1.1 1.1zm-4.7 3.6a5.4 5.4 0 0 0 .6 2.8 1.9 1.9 0 0 0 1.7.9 1.9 1.9 0 0 0 1.8-1 6.8 6.8 0 0 0 0-5.6 1.9 1.9 0 0 0-1.8-.9 1.9 1.9 0 0 0-1.7.9 5.3 5.3 0 0 0-.6 2.9zM456.2 64.8v.8h-6.9a3.8 3.8 0 0 0 .8 2.9 3.1 3.1 0 0 0 2.3.9l1.6-.2 1.8-.7v1.6l-1.8.6-1.6.2a4.6 4.6 0 0 1-3.5-1.4 5.2 5.2 0 0 1-1.3-3.7 5.3 5.3 0 0 1 1.2-3.7 4.3 4.3 0 0 1 3.3-1.4 3.6 3.6 0 0 1 2.9 1.3 4.8 4.8 0 0 1 1.2 2.8zm-1.6-.5a3.1 3.1 0 0 0-.7-1.7 2.3 2.3 0 0 0-1.8-.7 2.5 2.5 0 0 0-1.9.8 2.7 2.7 0 0 0-.8 1.7h5.2zM467.1 62.7l-1-.6-1.2-.2a2.8 2.8 0 0 0-2.3.9 4.1 4.1 0 0 0-.8 2.7v4.8h-1.6v-9.6h1.6v1.9a3.2 3.2 0 0 1 1.2-1.6 3.5 3.5 0 0 1 2-.6h1.1l1 .5v1.6zM468.7 64.2h9.2v1.5h-9.2v-1.5zM478.5 60.7h1.6l1.7 7.8 1.4-5h1.4l1.4 5 1.7-7.8h1.6l-2.3 9.7h-1.5l-1.6-5.3-1.5 5.3h-1.5zM491.9 60.8h4.1v8.4h3.2v1.2h-7.9v-1.2h3.2v-7.2h-2.5v-1.2zm2.5-3.8h1.6v2h-1.6v-2zM507.3 62v-5h1.6v13.4h-1.6v-1.2a2.8 2.8 0 0 1-1.1 1.1 3 3 0 0 1-1.5.4 3.3 3.3 0 0 1-2.8-1.4 6.2 6.2 0 0 1-1-3.8 6 6 0 0 1 1-3.7 3.3 3.3 0 0 1 2.8-1.3 3.1 3.1 0 0 1 1.5.4 2.6 2.6 0 0 1 1.1 1.1zm-4.7 3.6a5.4 5.4 0 0 0 .6 2.8 1.9 1.9 0 0 0 1.7.9 1.9 1.9 0 0 0 1.8-1 5.3 5.3 0 0 0 .6-2.8 5.3 5.3 0 0 0-.6-2.8 2 2 0 0 0-1.8-.9 1.9 1.9 0 0 0-1.7.9 5.4 5.4 0 0 0-.6 2.9zM515.9 58v2.8h3.6v1.2h-3.6v5.3a2.2 2.2 0 0 0 .4 1.5 1.9 1.9 0 0 0 1.4.4h1.8v1.3h-1.9a3.6 3.6 0 0 1-2.5-.7 3.4 3.4 0 0 1-.7-2.5v-5.3h-2.6v-1.3h2.6v-2.7h1.6zM530.3 64.4v6h-1.6v-6a3.2 3.2 0 0 0-.5-1.9 1.7 1.7 0 0 0-1.4-.6 2 2 0 0 0-1.7.8 3.7 3.7 0 0 0-.6 2.3v5.5h-1.6v-13.5h1.6v5.2a3 3 0 0 1 1.2-1.3 3.3 3.3 0 0 1 1.7-.4 2.6 2.6 0 0 1 2.2 1 4.9 4.9 0 0 1 .7 2.9zM535.6 60.7h2.7v3.1h-2.7v-3.1zm0 6.5h2.7v3.2h-2.7v-3.1zM555.1 57.5h6.5v1.5h-5v3.2l.7-.2h.8a4.3 4.3 0 0 1 3.2 1.2 4.4 4.4 0 0 1 1.2 3.2 4.2 4.2 0 0 1-1.2 3.2 4.7 4.7 0 0 1-3.4 1.2h-1.9l-1.5-.4v-2l1.6.6 1.6.2a3.1 3.1 0 0 0 2.2-.8 2.9 2.9 0 0 0 .8-2.2 2.8 2.8 0 0 0-.8-2.2 3.1 3.1 0 0 0-2.3-.8l-1.4.2-1.3.5v-6.4zM567.2 69.2v4.9h-1.6v-13.4h1.6v1.3a2.8 2.8 0 0 1 1.1-1.1 3 3 0 0 1 1.5-.4 3.2 3.2 0 0 1 2.8 1.4 6.2 6.2 0 0 1 1 3.8 6.1 6.1 0 0 1-1 3.7 3.3 3.3 0 0 1-2.8 1.3 3.1 3.1 0 0 1-1.5-.4 2.7 2.7 0 0 1-1.1-1.1zm4.7-3.6a5.4 5.4 0 0 0-.6-2.8 1.9 1.9 0 0 0-1.7-.9 1.9 1.9 0 0 0-1.8.9 5.3 5.3 0 0 0-.6 2.8 5.3 5.3 0 0 0 .6 2.8 1.9 1.9 0 0 0 1.8 1 1.9 1.9 0 0 0 1.7-.9 5.4 5.4 0 0 0 .6-2.9zM584.3 60.7l-3.5 4.6 3.8 5.1h-1.8l-2.8-3.8-2.8 3.9h-1.8l3.8-5.1-3.5-4.6h1.8l2.6 3.5 2.6-3.5h1.8zM589.1 67.3h2.7v2.3l-1.7 3.3h-1.9l.9-3.3v-2.3zm-.1-6.6h2.7v3.1h-2.7v-3.1z"/><path class="g" d="M360.5 23.9a3.4 3.4 0 0 1 2.4 1v-4.4h1.3v11.4h-1.2v-1a3.7 3.7 0 0 1-2.5 1.2c-2 0-3.4-1.5-3.4-4.1s1.6-4.1 3.4-4.1zm.1 7.1a3 3 0 0 0 2.2-1.2v-3.9a2.9 2.9 0 0 0-2-.9c-1.3 0-2.4 1.2-2.4 3s.8 3 2.2 3zM370.7 23.9a3.3 3.3 0 0 1 3.5 3.7 4.6 4.6 0 0 1 0 .7h-6.1a2.8 2.8 0 0 0 3 2.7 4.3 4.3 0 0 0 2.4-.7l.5.9a5.4 5.4 0 0 1-3 .9 4.1 4.1 0 0 1-.3-8.2zm2.3 3.5a2.2 2.2 0 0 0-2.3-2.5 2.6 2.6 0 0 0-2.6 2.5h4.9zM384.1 21.7a4 4 0 0 0-1.8-.4 1.8 1.8 0 0 0-2 2v.7h3.3v1.1h-3.3v6.7h-1.3v-6.6h-2.2v-1h2.2v-.8a2.8 2.8 0 0 1 3.1-3.2 5.8 5.8 0 0 1 2.2.4zM391.7 26.9a1.8 1.8 0 0 0-2.1-2 5.4 5.4 0 0 0-2.7.9l-.5-.9a6.7 6.7 0 0 1 3.5-1.1 2.9 2.9 0 0 1 3.2 3.2v4.8h-1.1v-1a5.3 5.3 0 0 1-3.1 1.2c-1.5 0-2.6-.8-2.6-2.2s1.4-2.5 5.4-2.9zm-2.6 4.1a4.2 4.2 0 0 0 2.6-1.2v-2c-3.3.3-4.4.9-4.4 2s.9 1.2 1.8 1.2zM402.5 31.9h-1.1v-1.4h-.1a3.8 3.8 0 0 1-2.9 1.6c-1.9 0-2.7-1.1-2.7-3.1v-4.9h1.3v4.7c0 1.5.5 2.2 1.8 2.2a3.1 3.1 0 0 0 2.4-1.4v-5.5h1.3v7.8zM405.3 20.5h4v8.9a1.4 1.4 0 0 0 1.5 1.6 3.5 3.5 0 0 0 1.5-.4l.3 1a5.5 5.5 0 0 1-2.1.5c-1.6 0-2.5-1-2.5-2.8v-7.8h-2.7v-1zM416.9 25.2h-2.2v-1h2.2l.2-2.2h1.1v2.2h3.8v1.1h-3.8v3.7c0 1.4.5 2.1 2 2.1a5.1 5.1 0 0 0 1.9-.4l.3 1a7.3 7.3 0 0 1-2.4.5c-2.3 0-3-1.3-3-3.2v-3.8zM434.3 20.5h1.3v4.6a4 4 0 0 1 2.6-1.2c2.1 0 3.2 1.6 3.2 4s-1.7 4.2-3.5 4.2a3.9 3.9 0 0 1-2.4-1.1v.9h-1.1v-11.4zm3.4 10.5c1.4 0 2.4-1.2 2.4-3.1s-.6-2.9-2.2-2.9a3.4 3.4 0 0 0-2.3 1.2v3.8a3.4 3.4 0 0 0 2.1 1zM447.2 23.9a3.8 3.8 0 0 1 3.8 4.1 3.8 3.8 0 1 1-7.7 0 3.8 3.8 0 0 1 3.9-4.1zm0 7.1c1.5 0 2.5-1.2 2.5-3s-1-3-2.5-3-2.5 1.2-2.5 3 1 3 2.5 3zM456 27.8l-2.7-3.7h1.5l1.2 1.7.9 1.3h.1l.9-1.3 1.2-1.7h1.4l-2.8 3.9 3 3.9h-1.4l-1.4-1.8-1-1.4h-.1l-1 1.4-1.3 1.8h-1.5zM472.2 24.1h1v1a1.9 1.9 0 0 1 1.7-1.2 1.4 1.4 0 0 1 1.5 1.3 2.1 2.1 0 0 1 1.8-1.3c1.1 0 1.7.8 1.7 2.4v5.6h-1.3v-5.5c0-.9-.3-1.4-.8-1.4a1.6 1.6 0 0 0-1.3 1.2v5.6h-1.1v-5.4c0-.9-.3-1.4-.9-1.4s-.9.4-1.3 1.2v5.6h-1.3v-7.7zM485.6 23.9a3.8 3.8 0 0 1 3.8 4.1 3.8 3.8 0 1 1-7.7 0 3.8 3.8 0 0 1 3.9-4.1zm0 7.1c1.5 0 2.5-1.2 2.5-3s-1-3-2.5-3-2.5 1.2-2.5 3 1 3 2.5 3zM494.9 23.9a3.4 3.4 0 0 1 2.4 1v-4.4h1.3v11.4h-1.1v-1a3.7 3.7 0 0 1-2.5 1.2c-2 0-3.4-1.5-3.4-4.1s1.5-4.1 3.3-4.1zm.1 7.1a3 3 0 0 0 2.2-1.2v-3.9a2.9 2.9 0 0 0-2-.9c-1.3 0-2.4 1.2-2.4 3s.8 3 2.2 3zM505.1 23.9a3.3 3.3 0 0 1 3.5 3.7 4.6 4.6 0 0 1 0 .7h-6.1a2.8 2.8 0 0 0 3 2.7 4.3 4.3 0 0 0 2.4-.7l.5.9a5.4 5.4 0 0 1-3 .9 4.1 4.1 0 0 1-.3-8.2zm2.3 3.5a2.2 2.2 0 0 0-2.3-2.5 2.6 2.6 0 0 0-2.6 2.5h4.9zM510.9 20.5h4v8.9a1.4 1.4 0 0 0 1.5 1.6 3.5 3.5 0 0 0 1.5-.4l.3 1a5.5 5.5 0 0 1-2.1.5c-1.6 0-2.5-1-2.5-2.8v-7.8h-2.7v-1zM524 23.6a1.4 1.4 0 1 1-1.3 1.3 1.3 1.3 0 0 1 1.3-1.3zm0 5.7a1.4 1.4 0 1 1-1.3 1.4 1.3 1.3 0 0 1 1.3-1.3zM544 23.9a4 4 0 0 1 2.8 1.1l-.7.8a3.2 3.2 0 0 0-2.1-.9 2.9 2.9 0 0 0-3 3 2.8 2.8 0 0 0 3 3 3.8 3.8 0 0 0 2.4-1l.6.8a4.6 4.6 0 0 1-3.1 1.2 3.9 3.9 0 0 1-4.3-4.1 4 4 0 0 1 4.4-3.9zM552.8 23.9a3.8 3.8 0 0 1 3.8 4.1 3.8 3.8 0 1 1-7.7 0 3.8 3.8 0 0 1 3.9-4.1zm0 7.1c1.5 0 2.5-1.2 2.5-3s-1-3-2.5-3-2.5 1.2-2.5 3 1 3 2.5 3zM559.1 24.1h1.1v1.3h.1a4 4 0 0 1 2.9-1.5c1.8 0 2.7 1.1 2.7 3.1v4.8h-1.3v-4.6c0-1.5-.5-2.2-1.8-2.2s-1.6.5-2.5 1.4v5.4h-1.3v-7.7zM570.5 25.2h-2.2v-1h2.2l.2-2.2h1.1v2.2h3.8v1.1h-3.8v3.7c0 1.4.5 2.1 2 2.1a5.1 5.1 0 0 0 1.9-.4l.3 1a7.3 7.3 0 0 1-2.4.5c-2.3 0-3-1.3-3-3.2v-3.8zM581.9 23.9a3.3 3.3 0 0 1 3.5 3.7 4.6 4.6 0 0 1 0 .7h-6.1a2.8 2.8 0 0 0 3 2.7 4.3 4.3 0 0 0 2.4-.7l.5.9a5.4 5.4 0 0 1-3 .9 4.1 4.1 0 0 1-.3-8.2zm2.3 3.5a2.2 2.2 0 0 0-2.3-2.5 2.6 2.6 0 0 0-2.6 2.5h4.9zM587.9 24.1h1.1v1.3h.1a4 4 0 0 1 2.9-1.5c1.8 0 2.7 1.1 2.7 3.1v4.8h-1.3v-4.6c0-1.5-.5-2.2-1.8-2.2s-1.6.5-2.5 1.4v5.4h-1.3v-7.7zM599.3 25.2h-2.2v-1h2.2l.2-2.2h1.1v2.2h3.8v1.1h-3.8v3.7c0 1.4.5 2.1 2 2.1a5.1 5.1 0 0 0 1.9-.4l.3 1a7.3 7.3 0 0 1-2.4.5c-2.3 0-3-1.3-3-3.2v-3.8zM607.7 26.6h5.3v1.2h-5.3v-1.2zM616.7 20.5h1.3v4.6a4 4 0 0 1 2.6-1.2c2.1 0 3.2 1.6 3.2 4s-1.7 4.2-3.5 4.2a3.9 3.9 0 0 1-2.4-1.1v.9h-1.1v-11.4zm3.4 10.5c1.4 0 2.4-1.2 2.4-3.1s-.6-2.9-2.2-2.9a3.4 3.4 0 0 0-2.3 1.2v3.8a3.4 3.4 0 0 0 2.1 1zM629.6 23.9a3.8 3.8 0 0 1 3.8 4.1 3.8 3.8 0 1 1-7.7 0 3.8 3.8 0 0 1 3.9-4.1zm0 7.1c1.5 0 2.5-1.2 2.5-3s-1-3-2.5-3-2.5 1.2-2.5 3 1 3 2.5 3zM638.4 27.8l-2.7-3.7h1.5l1.2 1.7.9 1.3h.1l.9-1.3 1.2-1.7h1.4l-2.9 3.8 3 3.9h-1.4l-1.4-1.8-1-1.4h-.1l-1 1.4-1.3 1.8h-1.4zM407.3 424.4h-2.2v-1h2.2l.2-2.2h1.1v2.2h3.8v1.1h-3.8v3.7c0 1.4.5 2.1 2 2.1a5.1 5.1 0 0 0 1.9-.4l.3 1a7.3 7.3 0 0 1-2.4.5c-2.3 0-3-1.3-3-3.2v-3.7zM418.4 423.1a4.1 4.1 0 1 1-3.8 4.1 3.8 3.8 0 0 1 3.8-4.1zm0 7.1c1.5 0 2.5-1.2 2.5-3s-1-3-2.5-3-2.5 1.2-2.5 3 1 3 2.5 3zM426.5 424.4h-2.2v-1h2.2l.2-2.2h1.1v2.2h3.8v1.1h-3.8v3.7c0 1.4.5 2.1 2 2.1a5.1 5.1 0 0 0 1.9-.4l.3 1a7.3 7.3 0 0 1-2.4.5c-2.3 0-3-1.3-3-3.2v-3.7zM439.7 426.1a1.8 1.8 0 0 0-2.1-2 5.4 5.4 0 0 0-2.7.9l-.5-.9a6.7 6.7 0 0 1 3.5-1.1 2.9 2.9 0 0 1 3.2 3.2v4.8h-1.1v-1a5.3 5.3 0 0 1-3.1 1.2c-1.5 0-2.6-.8-2.6-2.2s1.4-2.5 5.4-2.9zm-2.6 4.1a4.2 4.2 0 0 0 2.6-1.2v-2c-3.3.3-4.4.9-4.4 2s.9 1.2 1.8 1.2zM443.7 419.7h4v8.9a1.4 1.4 0 0 0 1.5 1.6 3.5 3.5 0 0 0 1.5-.4l.3 1a5.5 5.5 0 0 1-2.1.5c-1.6 0-2.5-1-2.5-2.8v-7.7h-2.7v-1.1zM461.7 423.3h1.3l1 4.5.4 2.2h.1l.5-2.2 1-4h1l1 4 .5 2.2h.1l.4-2.2.9-4.5h1.2l-1.7 7.8h-1.6l-.9-3.9-.4-2.3h-.1c-.1.7-.2 1.4-.4 2.3l-.9 3.9h-1.6zM472.6 423.3h4.9v7.8h-1.3v-6.7h-3.6v-1.1zm3.1-2.6a1.1 1.1 0 1 1 1.1 1 1 1 0 0 1-1.1-1zM485.3 423.1a3.4 3.4 0 0 1 2.4 1v-4.4h1.3v11.4h-1.1v-1a3.7 3.7 0 0 1-2.5 1.2c-2 0-3.4-1.5-3.4-4.1s1.5-4.1 3.3-4.1zm.1 7.1a3 3 0 0 0 2.2-1.2v-3.9a2.9 2.9 0 0 0-2-.9c-1.3 0-2.4 1.2-2.4 3s.8 3 2.2 3zM493.7 424.4h-2.2v-1h2.2l.2-2.2h1.1v2.2h3.8v1.1h-3.8v3.7c0 1.4.5 2.1 2 2.1a5.1 5.1 0 0 0 1.9-.4l.3 1a7.3 7.3 0 0 1-2.4.5c-2.3 0-3-1.3-3-3.2v-3.7zM501.5 419.7h1.3v4.9a4.1 4.1 0 0 1 2.9-1.5c1.8 0 2.7 1.1 2.7 3.1v4.8h-1.3v-4.7c0-1.5-.5-2.2-1.8-2.2s-1.6.5-2.5 1.4v5.4h-1.3v-11.2zM520.6 423.3h4.9v7.8h-1.3v-6.7h-3.6v-1.1zm3.1-2.6a1.1 1.1 0 1 1 1.1 1 1 1 0 0 1-1.1-1zM530.6 429.2a5.1 5.1 0 0 0 3.2 1.1c1.4 0 2.1-.5 2.1-1.2s-.6-1-2.5-1.5-3-1.1-3-2.2 1.1-2.2 3.3-2.2a5.8 5.8 0 0 1 3.1 1l-.6.8a4.3 4.3 0 0 0-2.5-.8c-1.5 0-1.9.5-1.9 1.1s1 1 2.4 1.4 3.1 1.1 3.1 2.3-1.2 2.3-3.5 2.3a6.8 6.8 0 0 1-3.8-1.3zM556.6 429.2v1.9h-7.3v-1.9h2.6v-5.9h-2.1v-1.5a7.8 7.8 0 0 0 2.7-.9h1.7v8.3h2.3zM559.4 428.3a3.8 3.8 0 0 0 2.5 1c1.1 0 1.9-.4 1.9-1.2s-.7-1.5-3.1-1.5v-1.6c2 0 2.7-.5 2.7-1.4s-.6-1.1-1.5-1.1a3.4 3.4 0 0 0-2.2.9l-1.2-1.4a5.4 5.4 0 0 1 3.5-1.3c2.2 0 3.7 1 3.7 2.8a2.5 2.5 0 0 1-1.9 2.3 2.7 2.7 0 0 1 2.3 2.5c0 1.9-1.9 3-4 3a4.9 4.9 0 0 1-3.8-1.4zM568.1 425.9c0-3.5 1.6-5.2 3.9-5.2s3.9 1.8 3.9 5.2-1.6 5.3-3.9 5.3-3.9-1.8-3.9-5.3zm2.1 0c0 2.6.8 3.5 1.8 3.5s1.8-.8 1.8-3.5-.8-3.4-1.8-3.4-1.8.8-1.8 3.4zm.6 0a1.2 1.2 0 1 1 1.2 1.2 1.2 1.2 0 0 1-1.2-1.2zM580.3 431.7v2.3h-2.3v-10.9h1.9l.2.8a3.7 3.7 0 0 1 2.4-1c2 0 3.2 1.6 3.2 4s-1.7 4.3-3.4 4.3a2.9 2.9 0 0 1-2-.9v1.3zm1.4-2.4c.9 0 1.6-.7 1.6-2.3s-.5-2.1-1.5-2.1a2 2 0 0 0-1.5.7v3.2a2.1 2.1 0 0 0 1.4.5zM589.7 426.9l-2.6-3.8h2.5l.8 1.3.8 1.4h.1l.7-1.4.7-1.3h2.5l-2.6 4.1 2.8 3.9h-2.5l-.9-1.3-.9-1.4h-.1l-.7 1.4-.8 1.3h-2.5zM369.3 442.1a6.7 6.7 0 0 1 2.7-5.4l.5.5a6.4 6.4 0 0 0 0 9.9l-.5.5a6.7 6.7 0 0 1-2.7-5.5zM374.1 439.6h1l.7 3.4.3 1.6.3-1.6.7-3h.9l.7 3 .3 1.6.3-1.6.7-3.4h.9l-1.3 5.8h-1.2l-.7-3-.3-1.7-.3 1.7-.7 2.9h-1.2zM382.3 439.6h3.7v5.8h-1v-5h-2.7v-.8zm2.3-2a.8.8 0 1 1 .8.8.7.7 0 0 1-.8-.7zM391.8 439.5a2.6 2.6 0 0 1 1.8.8v-3.3h1v8.5h-.8v-.8a2.8 2.8 0 0 1-1.9.9c-1.5 0-2.5-1.1-2.5-3a2.8 2.8 0 0 1 2.4-3.1zm.1 5.3a2.2 2.2 0 0 0 1.6-.9v-2.9a2.2 2.2 0 0 0-1.5-.7 2 2 0 0 0-1.8 2.2c-.1 1.4.6 2.3 1.7 2.3zM398.1 440.4h-1.6v-.7h1.7v-1.7h.8v1.6h2.9v.8h-2.9v2.8c0 1 .3 1.6 1.5 1.6a3.8 3.8 0 0 0 1.4-.3l.2.7a5.5 5.5 0 0 1-1.8.3c-1.7 0-2.2-1-2.2-2.4v-2.8zM403.9 436.9h1v3.7a3 3 0 0 1 2.2-1.1c1.4 0 2 .8 2 2.4v3.6h-1v-3.5c0-1.1-.4-1.6-1.3-1.6a2.5 2.5 0 0 0-1.8 1.1v4.1h-1v-8.5zM420.4 442.1h-2.2v-.7h2.2v-2.4h.8v2.3h2.2v.7h-2.2v2.3h-.8v-2.3zM433.7 446v2h-1v-8.3h.8v.7a3.1 3.1 0 0 1 2-.9c1.6 0 2.4 1.2 2.4 3s-1.2 3.1-2.7 3.1a2.8 2.8 0 0 1-1.8-.8v1.2zm1.6-1.2c1 0 1.8-.9 1.8-2.3s-.5-2.1-1.6-2.1a2.5 2.5 0 0 0-1.7.9v2.9a2.5 2.5 0 0 0 1.5.6zM444 441.8a1.4 1.4 0 0 0-1.5-1.5 4.1 4.1 0 0 0-2 .7l-.4-.7a5 5 0 0 1 2.6-.8 2.2 2.2 0 0 1 2.4 2.4v3.6h-.8v-.8a4 4 0 0 1-2.3.9 1.8 1.8 0 0 1-2-1.7c-.2-1.2 1-1.9 4-2.1zm-2 3a3.2 3.2 0 0 0 2-.9v-1.5c-2.5.2-3.3.7-3.3 1.5a1.1 1.1 0 0 0 1.3.9zM449.4 439.5a2.6 2.6 0 0 1 1.8.8v-3.3h1v8.5h-.8v-.8a2.8 2.8 0 0 1-1.9.9c-1.5 0-2.5-1.1-2.5-3a2.8 2.8 0 0 1 2.4-3.1zm.1 5.3a2.2 2.2 0 0 0 1.6-.9v-2.9a2.2 2.2 0 0 0-1.5-.7 2 2 0 0 0-1.8 2.2c-.1 1.4.6 2.3 1.7 2.3zM456.6 439.5a2.6 2.6 0 0 1 1.8.8v-3.3h1v8.5h-.8v-.8a2.8 2.8 0 0 1-1.9.9c-1.5 0-2.5-1.1-2.5-3a2.8 2.8 0 0 1 2.4-3.1zm.1 5.3a2.2 2.2 0 0 0 1.6-.9v-2.9a2.2 2.2 0 0 0-1.5-.7 2 2 0 0 0-1.8 2.2c-.1 1.4.6 2.3 1.7 2.3zM461.5 439.6h3.7v5.8h-1v-5h-2.7v-.8zm2.3-2a.8.8 0 1 1 .8.8.7.7 0 0 1-.8-.7zM468.7 439.6h.8v1a3 3 0 0 1 2.2-1.1c1.4 0 2 .8 2 2.4v3.6h-1v-3.5c0-1.1-.4-1.6-1.3-1.6a2.5 2.5 0 0 0-1.8 1.1v4.1h-1v-5.8zM476.6 445.2a1.1 1.1 0 0 1-.6-1 1.4 1.4 0 0 1 .7-1.1 1.9 1.9 0 0 1-.7-1.5 2.1 2.1 0 0 1 2.3-2.1h3.3v.8h-1.6a1.8 1.8 0 0 1 .5 1.2 2 2 0 0 1-2.3 2l-1-.2a.8.8 0 0 0-.5.7c0 .5.4.7 1.2.7h1.3c1.5 0 2.2.4 2.2 1.4s-1.3 2-3.2 2-2.7-.6-2.7-1.6a1.6 1.6 0 0 1 1.1-1.3zm1.8 2.2c1.4 0 2.2-.6 2.2-1.2s-.4-.7-1.3-.7h-2a1.1 1.1 0 0 0-.7 1c-.1.6.6 1 1.8 1zm1.2-5.9a1.3 1.3 0 1 0-1.3 1.4 1.3 1.3 0 0 0 1.3-1.3zM483.6 441.5h4v.9h-4v-.9zM490.2 436.9h3v6.7a1 1 0 0 0 1.1 1.2l1.1-.3.3.7a4.1 4.1 0 0 1-1.6.3 1.8 1.8 0 0 1-1.9-2.1v-5.8h-2v-.8zM500.2 439.5a2.5 2.5 0 0 1 2.7 2.7 3.4 3.4 0 0 1 0 .5h-4.6a2.1 2.1 0 0 0 2.2 2.1 3.2 3.2 0 0 0 1.8-.5l.3.6a4 4 0 0 1-2.2.7 3.1 3.1 0 0 1-.2-6.1zm1.7 2.6a1.6 1.6 0 0 0-1.7-1.8 2 2 0 0 0-2 1.8h3.7zM510.3 437.9a3 3 0 0 0-1.4-.3 1.3 1.3 0 0 0-1.5 1.5v.5h2.4v.8h-2.4v5h-1v-5h-1.7v-.7h1.7v-.5a2.1 2.1 0 0 1 2.4-2.4 4.3 4.3 0 0 1 1.7.3zM513.3 440.4h-1.6v-.7h1.7v-1.7h.8v1.6h2.9v.8h-2.9v2.8c0 1 .3 1.6 1.5 1.6a3.8 3.8 0 0 0 1.4-.3l.2.7a5.5 5.5 0 0 1-1.8.3c-1.7 0-2.2-1-2.2-2.4v-2.8zM528.4 442.1h-2.2v-.7h2.2v-2.4h.8v2.3h2.2v.7h-2.2v2.3h-.8v-2.3zM541.7 446v2h-1v-8.3h.8v.7a3.1 3.1 0 0 1 2-.9c1.6 0 2.4 1.2 2.4 3s-1.2 3.1-2.7 3.1a2.8 2.8 0 0 1-1.8-.8v1.2zm1.6-1.2c1 0 1.8-.9 1.8-2.3s-.5-2.1-1.6-2.1a2.5 2.5 0 0 0-1.7.9v2.9a2.5 2.5 0 0 0 1.5.6zM552 441.8a1.4 1.4 0 0 0-1.5-1.5 4.1 4.1 0 0 0-2 .7l-.4-.7a5 5 0 0 1 2.6-.8 2.2 2.2 0 0 1 2.4 2.4v3.6h-.8v-.8a4 4 0 0 1-2.3.9 1.8 1.8 0 0 1-2-1.7c-.2-1.2 1-1.9 4-2.1zm-2 3a3.1 3.1 0 0 0 2-.9v-1.5c-2.5.2-3.3.7-3.3 1.5a1.1 1.1 0 0 0 1.3.9zM557.4 439.5a2.6 2.6 0 0 1 1.8.8v-3.3h1v8.5h-.8v-.8a2.8 2.8 0 0 1-1.9.9c-1.5 0-2.5-1.1-2.5-3a2.8 2.8 0 0 1 2.4-3.1zm.1 5.3a2.2 2.2 0 0 0 1.6-.9v-2.9a2.2 2.2 0 0 0-1.5-.7 2 2 0 0 0-1.8 2.2c-.1 1.4.6 2.3 1.7 2.3zM564.6 439.5a2.6 2.6 0 0 1 1.8.8v-3.3h1v8.5h-.8v-.8a2.8 2.8 0 0 1-1.9.9c-1.5 0-2.5-1.1-2.5-3a2.8 2.8 0 0 1 2.4-3.1zm.1 5.3a2.2 2.2 0 0 0 1.6-.9v-2.9a2.2 2.2 0 0 0-1.5-.7 2 2 0 0 0-1.8 2.2c-.1 1.4.6 2.3 1.7 2.3zM569.5 439.6h3.7v5.8h-1v-5h-2.7v-.8zm2.3-2a.8.8 0 1 1 .8.8.7.7 0 0 1-.8-.7zM576.7 439.6h.8v1a3 3 0 0 1 2.2-1.1c1.4 0 2 .8 2 2.4v3.6h-1v-3.5c0-1.1-.4-1.6-1.3-1.6a2.5 2.5 0 0 0-1.8 1.1v4.1h-1v-5.8zM584.6 445.2a1.1 1.1 0 0 1-.6-1 1.4 1.4 0 0 1 .7-1.1 1.9 1.9 0 0 1-.7-1.5 2.1 2.1 0 0 1 2.3-2.1h3.3v.8h-1.6a1.8 1.8 0 0 1 .5 1.2 2 2 0 0 1-2.3 2l-1-.2a.8.8 0 0 0-.5.7c0 .5.4.7 1.2.7h1.3c1.5 0 2.2.4 2.2 1.4s-1.3 2-3.2 2-2.7-.6-2.7-1.6a1.6 1.6 0 0 1 1.1-1.3zm1.8 2.2c1.4 0 2.2-.6 2.2-1.2s-.4-.7-1.3-.7h-2a1.1 1.1 0 0 0-.7 1c-.1.6.6 1 1.8 1zm1.2-5.9a1.3 1.3 0 1 0-1.3 1.4 1.3 1.3 0 0 0 1.3-1.3zM591.6 441.5h4v.9h-4v-.9zM598.9 439.6h.8v1.4a3.1 3.1 0 0 1 2.6-1.5 2.4 2.4 0 0 1 1.1.2l-.2.9-1.1-.2a2.8 2.8 0 0 0-2.4 1.7v3.4h-1v-5.8zM605.5 439.6h3.7v5.8h-1v-5h-2.7v-.8zm2.3-2a.8.8 0 1 1 .8.8.7.7 0 0 1-.8-.7zM613.4 445.2a1.1 1.1 0 0 1-.6-1 1.4 1.4 0 0 1 .7-1.1 1.9 1.9 0 0 1-.7-1.5 2.1 2.1 0 0 1 2.3-2.1h3.3v.8h-1.6a1.8 1.8 0 0 1 .5 1.2 2 2 0 0 1-2.3 2l-1-.2a.8.8 0 0 0-.5.7c0 .5.4.7 1.2.7h1.3c1.5 0 2.2.4 2.2 1.4s-1.3 2-3.2 2-2.7-.6-2.7-1.6a1.6 1.6 0 0 1 1.1-1.3zm1.8 2.2c1.4 0 2.2-.6 2.2-1.2s-.4-.7-1.3-.7h-2a1.1 1.1 0 0 0-.7 1c-.1.6.6 1 1.8 1zm1.2-5.9a1.3 1.3 0 1 0-1.3 1.4 1.3 1.3 0 0 0 1.3-1.3zM619.9 436.9h1v3.7a3 3 0 0 1 2.2-1.1c1.4 0 2 .8 2 2.4v3.6h-1v-3.5c0-1.1-.4-1.6-1.3-1.6a2.5 2.5 0 0 0-1.8 1.1v4.1h-1v-8.5zM628.5 440.4h-1.6v-.7h1.7v-1.7h.8v1.6h2.9v.8h-2.9v2.8c0 1 .3 1.6 1.5 1.6a3.8 3.8 0 0 0 1.4-.3l.2.7a5.5 5.5 0 0 1-1.8.3c-1.7 0-2.2-1-2.2-2.4v-2.8zM398.8 456.5h-2.2v-.7h2.2v-2.3h.8v2.3h2.2v.7h-2.2v2.3h-.8v-2.3zM411.1 451.3h1v3.5a3 3 0 0 1 2-.9c1.6 0 2.4 1.2 2.4 3s-1.2 3.2-2.6 3.2a2.9 2.9 0 0 1-1.8-.8v.6h-.8v-8.5zm2.6 7.9c1 0 1.8-.9 1.8-2.3s-.5-2.1-1.6-2.1a2.5 2.5 0 0 0-1.7.9v2.9a2.5 2.5 0 0 0 1.5.6zM420.8 453.9a3.1 3.1 0 1 1-2.9 3.1 2.9 2.9 0 0 1 2.9-3.1zm0 5.3a2.3 2.3 0 1 0-1.9-2.2 2 2 0 0 0 1.9 2.2zM426.2 454h.8v1.4a3.1 3.1 0 0 1 2.6-1.5 2.4 2.4 0 0 1 1.1.2l-.2.9-1.1-.2a2.8 2.8 0 0 0-2.4 1.7v3.4h-1v-5.9zM435 453.9a2.6 2.6 0 0 1 1.8.8v-3.3h1v8.5h-.8v-.8a2.8 2.8 0 0 1-1.9.9c-1.5 0-2.5-1.1-2.5-3a2.8 2.8 0 0 1 2.4-3.1zm.1 5.3a2.2 2.2 0 0 0 1.6-.9v-2.9a2.2 2.2 0 0 0-1.5-.7 2 2 0 0 0-1.8 2.2c-.1 1.4.6 2.3 1.7 2.3zM442.6 453.9a2.5 2.5 0 0 1 2.7 2.7 3.4 3.4 0 0 1 0 .5h-4.6a2.1 2.1 0 0 0 2.2 2.1 3.2 3.2 0 0 0 1.8-.5l.3.6a4 4 0 0 1-2.2.7 3.1 3.1 0 0 1-.2-6.1zm1.7 2.6a1.6 1.6 0 0 0-1.7-1.8 2 2 0 0 0-2 1.8h3.7zM447.8 454h.8v1.4a3.1 3.1 0 0 1 2.6-1.5 2.4 2.4 0 0 1 1.1.2l-.2.9-1.1-.2a2.8 2.8 0 0 0-2.4 1.7v3.4h-1v-5.9zM454.8 455.9h4v.9h-4v-.9zM461.4 451.3h3v6.7a1 1 0 0 0 1.1 1.2l1.1-.3.3.7a4.1 4.1 0 0 1-1.6.3 1.8 1.8 0 0 1-1.9-2.1v-5.8h-2v-.8zM471.4 453.9a2.5 2.5 0 0 1 2.7 2.7 3.4 3.4 0 0 1 0 .5h-4.6a2.1 2.1 0 0 0 2.2 2.1 3.2 3.2 0 0 0 1.8-.5l.3.6a4 4 0 0 1-2.2.7 3.1 3.1 0 0 1-.2-6.1zm1.7 2.6a1.6 1.6 0 0 0-1.7-1.8 2 2 0 0 0-2 1.8h3.7zM481.5 452.3a3 3 0 0 0-1.4-.3 1.3 1.3 0 0 0-1.5 1.5v.5h2.4v.8h-2.4v5h-1v-5h-1.6v-.7h1.7v-.5a2.1 2.1 0 0 1 2.4-2.4 4.3 4.3 0 0 1 1.7.3zM484.5 454.8h-1.6v-.7h1.7v-1.6h.8v1.5h2.9v.8h-2.9v2.8c0 1 .3 1.6 1.5 1.6a3.8 3.8 0 0 0 1.4-.3l.2.7a5.5 5.5 0 0 1-1.8.3c-1.7 0-2.2-1-2.2-2.4v-2.8zM499.6 456.5h-2.2v-.7h2.2v-2.3h.8v2.3h2.2v.7h-2.2v2.3h-.8v-2.3zM511.9 451.3h1v3.5a3 3 0 0 1 2-.9c1.6 0 2.4 1.2 2.4 3s-1.2 3.2-2.6 3.2a2.9 2.9 0 0 1-1.8-.8v.6h-.8v-8.5zm2.6 7.9c1 0 1.8-.9 1.8-2.3s-.5-2.1-1.6-2.1a2.5 2.5 0 0 0-1.7.9v2.9a2.5 2.5 0 0 0 1.5.6zM521.6 453.9a3.1 3.1 0 1 1-2.9 3.1 2.9 2.9 0 0 1 2.9-3.1zm0 5.3a2.3 2.3 0 1 0-1.9-2.2 2 2 0 0 0 1.9 2.2zM527 454h.8v1.4a3.1 3.1 0 0 1 2.6-1.5 2.4 2.4 0 0 1 1.1.2l-.2.9-1.1-.2a2.8 2.8 0 0 0-2.4 1.7v3.4h-1v-5.9zM535.8 453.9a2.6 2.6 0 0 1 1.8.8v-3.3h1v8.5h-.8v-.8a2.8 2.8 0 0 1-1.9.9c-1.5 0-2.5-1.1-2.5-3a2.8 2.8 0 0 1 2.4-3.1zm.1 5.3a2.2 2.2 0 0 0 1.6-.9v-2.9a2.2 2.2 0 0 0-1.5-.7 2 2 0 0 0-1.8 2.2c-.1 1.4.6 2.3 1.7 2.3zM543.4 453.9a2.5 2.5 0 0 1 2.7 2.7 3.4 3.4 0 0 1 0 .5h-4.6a2.1 2.1 0 0 0 2.2 2.1 3.2 3.2 0 0 0 1.8-.5l.3.6a4 4 0 0 1-2.2.7 3.1 3.1 0 0 1-.2-6.1zm1.7 2.6a1.6 1.6 0 0 0-1.7-1.8 2 2 0 0 0-2 1.8h3.7zM548.5 454h.8v1.4a3.1 3.1 0 0 1 2.6-1.5 2.4 2.4 0 0 1 1.1.2l-.2.9-1.1-.2a2.8 2.8 0 0 0-2.4 1.7v3.4h-1v-5.9zM555.6 455.9h4v.9h-4v-.9zM563 454h.8v1.4a3.1 3.1 0 0 1 2.6-1.5 2.4 2.4 0 0 1 1.1.2l-.2.9-1.1-.2a2.8 2.8 0 0 0-2.4 1.7v3.4h-1v-5.9zM569.5 454h3.7v5.8h-1v-5h-2.7v-.8zm2.3-2a.8.8 0 1 1 .8.8.7.7 0 0 1-.8-.7zM577.4 459.6a1.1 1.1 0 0 1-.6-1 1.4 1.4 0 0 1 .7-1.1 1.9 1.9 0 0 1-.7-1.5 2.1 2.1 0 0 1 2.3-2.1h3.3v.8h-1.6a1.8 1.8 0 0 1 .5 1.2 2 2 0 0 1-2.3 2l-1-.2a.8.8 0 0 0-.5.7c0 .5.4.7 1.2.7h1.3c1.5 0 2.2.4 2.2 1.4s-1.3 2-3.2 2-2.7-.6-2.7-1.6a1.6 1.6 0 0 1 1.1-1.3zm1.8 2.2c1.4 0 2.2-.6 2.2-1.2s-.4-.7-1.3-.7h-2a1.1 1.1 0 0 0-.7 1c-.1.6.6 1 1.8 1zm1.2-5.9a1.3 1.3 0 1 0-1.3 1.4 1.3 1.3 0 0 0 1.3-1.3zM583.9 451.3h1v3.7a3 3 0 0 1 2.2-1.1c1.4 0 2 .8 2 2.4v3.6h-1v-3.5c0-1.1-.4-1.6-1.3-1.6a2.5 2.5 0 0 0-1.8 1.1v4.1h-1v-8.5zM592.5 454.8h-1.6v-.7h1.7v-1.6h.8v1.5h2.9v.8h-2.9v2.8c0 1 .3 1.6 1.5 1.6a3.8 3.8 0 0 0 1.4-.3l.2.7a5.5 5.5 0 0 1-1.8.3c-1.7 0-2.2-1-2.2-2.4v-2.8zM598.7 461.5a6.4 6.4 0 0 0 0-9.9l.5-.5a6.8 6.8 0 0 1 0 10.9z"/><path class="h" d="M729.4 374.5v17.5h-458.8v-17.5M500 392v23"/><path class="a" d="M673 536.8v310h-347v-310z"/><path class="b" d="M655 554.8v274h-311v-274z"/><path class="c" d="M617 789.3v1h-1"/><path class="i" d="M606.9 790.3h-219.4"/><path class="c" d="M383 790.3h-1v-1"/><path class="e" d="M382 780.4v-181.7"/><path class="c" d="M382 594.2v-1h1"/><path class="i" d="M392.1 593.2h219.3"/><path class="c" d="M616 593.2h1v1"/><path class="e" d="M617 603.2v181.6"/><path class="f" d="M406.8 544a2.7 2.7 0 0 1 1.1-1.1 3.1 3.1 0 0 1 1.6-.4 3.3 3.3 0 0 1 2.8 1.3 6.1 6.1 0 0 1 1 3.7 6.2 6.2 0 0 1-1 3.8 3.3 3.3 0 0 1-2.8 1.4 3 3 0 0 1-1.5-.4 2.8 2.8 0 0 1-1.1-1.1v1.2h-1.6v-13.4h1.6v5zm4.7 3.6a5.3 5.3 0 0 0-.6-2.8 1.9 1.9 0 0 0-1.7-.9 1.9 1.9 0 0 0-1.8.9 6.8 6.8 0 0 0 0 5.6 1.9 1.9 0 0 0 1.8 1 1.9 1.9 0 0 0 1.7-.9 5.3 5.3 0 0 0 .5-2.9zM419.5 542.5a3.8 3.8 0 0 1 3.1 1.3 7.3 7.3 0 0 1 0 7.6 4.3 4.3 0 0 1-6.2 0 7.3 7.3 0 0 1 0-7.6 3.7 3.7 0 0 1 3.1-1.3zm0 1.4a2.1 2.1 0 0 0-1.8.9 6.6 6.6 0 0 0 0 5.6 2.3 2.3 0 0 0 3.7 0 6.6 6.6 0 0 0 0-5.6 2.1 2.1 0 0 0-1.9-.9zM434.9 544.7l-1-.6-1.2-.2a2.8 2.8 0 0 0-2.3.9 4.1 4.1 0 0 0-.8 2.7v4.8h-1.6v-9.7h1.6v1.9a3.2 3.2 0 0 1 1.2-1.6 3.5 3.5 0 0 1 2-.5h1.1l1 .5v1.6zM443 544v-5h1.6v13.5h-1.6v-1.2a2.8 2.8 0 0 1-1.1 1.1 3 3 0 0 1-1.5.4 3.3 3.3 0 0 1-2.8-1.4 6.2 6.2 0 0 1-1-3.8 6.1 6.1 0 0 1 1-3.7 3.3 3.3 0 0 1 2.8-1.3 3.1 3.1 0 0 1 1.5.4 2.6 2.6 0 0 1 1.1 1zm-4.7 3.6a5.3 5.3 0 0 0 .6 2.8 1.9 1.9 0 0 0 1.7.9 1.9 1.9 0 0 0 1.8-1 6.8 6.8 0 0 0 0-5.6 1.9 1.9 0 0 0-1.8-.9 1.9 1.9 0 0 0-1.7.9 5.3 5.3 0 0 0-.6 2.9zM455.9 546.8v.8h-6.9a3.8 3.8 0 0 0 .8 2.8 3.1 3.1 0 0 0 2.3.9l1.6-.2 1.8-.7v1.6l-1.8.6-1.6.2a4.6 4.6 0 0 1-3.5-1.4 5.2 5.2 0 0 1-1.3-3.7 5.3 5.3 0 0 1 1.2-3.7 4.3 4.3 0 0 1 3.3-1.4 3.6 3.6 0 0 1 2.9 1.3 4.8 4.8 0 0 1 1.2 2.9zm-1.6-.5a3.1 3.1 0 0 0-.7-1.7 2.3 2.3 0 0 0-1.8-.7 2.5 2.5 0 0 0-1.9.8 2.7 2.7 0 0 0-.8 1.7h5.2zM466.9 544.7l-1-.6-1.2-.2a2.8 2.8 0 0 0-2.3.9 4.1 4.1 0 0 0-.8 2.7v4.8h-1.6v-9.7h1.6v1.9a3.2 3.2 0 0 1 1.2-1.6 3.5 3.5 0 0 1 2-.5h1.1l1 .5v1.6zM468.5 546.2h9.2v1.5h-9.2v-1.5zM478.3 542.7h1.6l1.7 7.8 1.4-5h1.4l1.4 5 1.7-7.8h1.6l-2.3 9.7h-1.5l-1.6-5.3-1.5 5.3h-1.5zM491.7 542.8h4.1v8.4h3.2v1.2h-8v-1.2h3.2v-7.2h-2.5v-1.2zm2.5-3.8h1.6v2h-1.6v-2zM507.1 544v-5h1.6v13.5h-1.6v-1.2a2.8 2.8 0 0 1-1.1 1.1 3 3 0 0 1-1.5.4 3.3 3.3 0 0 1-2.8-1.4 6.2 6.2 0 0 1-1-3.8 6.1 6.1 0 0 1 1-3.7 3.3 3.3 0 0 1 2.8-1.3 3.1 3.1 0 0 1 1.5.4 2.6 2.6 0 0 1 1.1 1zm-4.7 3.6a5.4 5.4 0 0 0 .6 2.8 1.9 1.9 0 0 0 1.7.9 1.9 1.9 0 0 0 1.8-1 6.8 6.8 0 0 0 0-5.6 2 2 0 0 0-1.8-.9 1.9 1.9 0 0 0-1.7.9 5.4 5.4 0 0 0-.6 2.9zM515.6 540v2.8h3.6v1.2h-3.6v5.3a2.2 2.2 0 0 0 .4 1.5 1.9 1.9 0 0 0 1.4.4h1.8v1.3h-1.9a3.6 3.6 0 0 1-2.5-.7 3.4 3.4 0 0 1-.7-2.5v-5.3h-2.6v-1.2h2.5v-2.8h1.6zM530.1 546.4v6h-1.6v-6a3.2 3.2 0 0 0-.5-1.9 1.7 1.7 0 0 0-1.4-.6 2 2 0 0 0-1.7.8 3.7 3.7 0 0 0-.6 2.3v5.5h-1.6v-13.5h1.6v5.2a3 3 0 0 1 1.2-1.3 3.3 3.3 0 0 1 1.7-.4 2.6 2.6 0 0 1 2.2 1 4.9 4.9 0 0 1 .7 2.9zM535.4 542.7h2.7v3.1h-2.7v-3.1zm0 6.5h2.7v3.2h-2.7v-3.2zM554.8 539.5h6.5v1.5h-5v3.2l.7-.2h.8a4.3 4.3 0 0 1 3.2 1.2 4.4 4.4 0 0 1 1.2 3.2 4.2 4.2 0 0 1-1.2 3.2 4.7 4.7 0 0 1-3.4 1.2h-1.9l-1.5-.4v-1.8l1.6.6 1.6.2a3.1 3.1 0 0 0 2.2-.8 2.9 2.9 0 0 0 .8-2.2 2.8 2.8 0 0 0-.8-2.2 3.1 3.1 0 0 0-2.3-.8l-1.4.2-1.3.5v-6.5zM567 551.2v4.9h-1.6v-13.4h1.6v1.3a2.8 2.8 0 0 1 1.1-1.1 3 3 0 0 1 1.5-.4 3.2 3.2 0 0 1 2.8 1.4 6.2 6.2 0 0 1 1 3.8 6.1 6.1 0 0 1-1 3.7 3.3 3.3 0 0 1-2.8 1.3 3.1 3.1 0 0 1-1.5-.4 2.7 2.7 0 0 1-1.1-1.1zm4.7-3.6a5.4 5.4 0 0 0-.6-2.8 1.9 1.9 0 0 0-1.7-.9 1.9 1.9 0 0 0-1.8.9 6.8 6.8 0 0 0 0 5.6 1.9 1.9 0 0 0 1.8 1 1.9 1.9 0 0 0 1.7-.9 5.4 5.4 0 0 0 .5-2.9zM584.1 542.7l-3.5 4.6 3.8 5.1h-1.8l-2.8-3.9-2.8 3.9h-1.8l3.8-5.1-3.5-4.6h1.8l2.6 3.5 2.6-3.5h1.8zM588.9 549.3h2.7v2.3l-1.7 3.3h-1.9l.9-3.3v-2.3zm-.1-6.6h2.7v3.1h-2.7v-3.1zM427.8 578.2v4.9h-1.6v-13.4h1.6v1.3a2.8 2.8 0 0 1 1.1-1.1 3 3 0 0 1 1.5-.4 3.2 3.2 0 0 1 2.8 1.4 6.2 6.2 0 0 1 1 3.8 6.1 6.1 0 0 1-1 3.7 3.3 3.3 0 0 1-2.8 1.3 3.1 3.1 0 0 1-1.5-.4 2.7 2.7 0 0 1-1.1-1.1zm4.7-3.6a5.4 5.4 0 0 0-.6-2.8 1.9 1.9 0 0 0-1.7-.9 1.9 1.9 0 0 0-1.8.9 6.8 6.8 0 0 0 0 5.6 1.9 1.9 0 0 0 1.8 1 1.9 1.9 0 0 0 1.7-.9 5.4 5.4 0 0 0 .6-2.9zM444.4 573.9v5.5h-1.6v-1.4a3.3 3.3 0 0 1-1.3 1.3 4 4 0 0 1-1.9.4 3.3 3.3 0 0 1-2.4-.8 3.3 3.3 0 0 1 .2-4.7 5.1 5.1 0 0 1 3.2-.8h2.1v-.3a2.2 2.2 0 0 0-.6-1.7 2.7 2.7 0 0 0-1.9-.5l-1.6.2-1.6.7v-1.6l1.7-.5 1.6-.2a5.3 5.3 0 0 1 2.1.4 3.2 3.2 0 0 1 1.4 1.1 2.7 2.7 0 0 1 .5 1.1 9.7 9.7 0 0 1 .1 1.8zm-3.1.7h-.5a3.7 3.7 0 0 0-2.1.5 1.7 1.7 0 0 0-.7 1.5 1.8 1.8 0 0 0 .5 1.4 2.1 2.1 0 0 0 1.5.5 2.5 2.5 0 0 0 2.1-.9 3.9 3.9 0 0 0 .8-2.5v-.4h-1.5zM453.3 571v-5h1.6v13.5h-1.6v-1.2a2.8 2.8 0 0 1-1.1 1.1 3 3 0 0 1-1.5.4 3.3 3.3 0 0 1-2.8-1.4 6.2 6.2 0 0 1-1-3.8 6.1 6.1 0 0 1 1-3.7 3.3 3.3 0 0 1 2.8-1.3 3.1 3.1 0 0 1 1.5.4 2.6 2.6 0 0 1 1.1 1zm-4.7 3.6a5.3 5.3 0 0 0 .6 2.8 1.9 1.9 0 0 0 1.7.9 1.9 1.9 0 0 0 1.8-1 6.8 6.8 0 0 0 0-5.6 1.9 1.9 0 0 0-1.8-.9 1.9 1.9 0 0 0-1.7.9 5.3 5.3 0 0 0-.6 2.9zM464 571v-5h1.6v13.5h-1.6v-1.2a2.8 2.8 0 0 1-1.1 1.1 3 3 0 0 1-1.5.4 3.3 3.3 0 0 1-2.8-1.4 6.2 6.2 0 0 1-1-3.8 6.1 6.1 0 0 1 1-3.7 3.3 3.3 0 0 1 2.8-1.3 3.1 3.1 0 0 1 1.5.4 2.6 2.6 0 0 1 1.1 1zm-4.7 3.6a5.3 5.3 0 0 0 .6 2.8 1.9 1.9 0 0 0 1.7.9 1.9 1.9 0 0 0 1.8-1 6.8 6.8 0 0 0 0-5.6 1.9 1.9 0 0 0-1.8-.9 1.9 1.9 0 0 0-1.7.9 5.3 5.3 0 0 0-.6 2.9zM470.4 569.8h4.1v8.4h3.2v1.2h-7.9v-1.2h3.2v-7.2h-2.5v-1.2zm2.5-3.8h1.6v2h-1.6v-2zM487.4 573.4v6h-1.6v-6a3.2 3.2 0 0 0-.5-1.9 1.7 1.7 0 0 0-1.4-.6 2 2 0 0 0-1.7.8 3.7 3.7 0 0 0-.6 2.3v5.5h-1.6v-9.7h1.6v1.5a3 3 0 0 1 1.2-1.3 3.3 3.3 0 0 1 1.7-.4 2.6 2.6 0 0 1 2.2 1 4.9 4.9 0 0 1 .7 2.8zM498 578.8a4.7 4.7 0 0 1-1 3.3 3.9 3.9 0 0 1-3 1.1h-1.4l-1.4-.4v-1.6l1.5.6 1.3.2a2.3 2.3 0 0 0 1.9-.7 3.4 3.4 0 0 0 .6-2.2v-1.1a2.7 2.7 0 0 1-1 1.2 3 3 0 0 1-1.6.4 3.2 3.2 0 0 1-2.7-1.4 7.1 7.1 0 0 1 0-7.3 3.2 3.2 0 0 1 2.7-1.4 3.1 3.1 0 0 1 1.6.4 2.7 2.7 0 0 1 1.1 1.2v-1.3h1.4v9zm-1.6-4.3a5.2 5.2 0 0 0-.6-2.7 1.9 1.9 0 0 0-1.7-.9 2 2 0 0 0-1.8.9 6.3 6.3 0 0 0 0 5.5 2 2 0 0 0 1.8.9 1.9 1.9 0 0 0 1.7-.9 5.2 5.2 0 0 0 .6-2.8zM503.4 569.7h2.7v3.1h-2.7v-3.1zm0 6.5h2.7v3.2h-2.7v-3.2zM523.4 578h2.7v-9.8l-3.3 1.6v-1.7l3.2-1.5h1.8v11.4h2.7v1.5h-7.1v-1.5zM537 566.3a3.5 3.5 0 0 1 3.1 1.7 12.3 12.3 0 0 1 0 10 3.7 3.7 0 0 1-6.3 0 12.4 12.4 0 0 1 0-10 3.5 3.5 0 0 1 3.2-1.7zm0 1.4a1.9 1.9 0 0 0-1.8 1.3 10 10 0 0 0-.6 4 15.1 15.1 0 0 0 .2 2.3l4-6.4a2 2 0 0 0-1.8-1.2zm0 10.6a1.9 1.9 0 0 0 1.8-1.3 10 10 0 0 0 .6-4 17.5 17.5 0 0 0-.2-2.6l-4.1 6.5a2 2 0 0 0 1.9 1.4zM545.6 578.2v4.9h-1.6v-13.4h1.6v1.3a2.8 2.8 0 0 1 1.1-1.1 3 3 0 0 1 1.5-.4 3.2 3.2 0 0 1 2.8 1.4 6.2 6.2 0 0 1 1 3.8 6.1 6.1 0 0 1-1 3.7 3.3 3.3 0 0 1-2.8 1.3 3.1 3.1 0 0 1-1.5-.4 2.7 2.7 0 0 1-1.1-1.1zm4.7-3.6a5.4 5.4 0 0 0-.6-2.8 1.9 1.9 0 0 0-1.7-.9 1.9 1.9 0 0 0-1.8.9 6.8 6.8 0 0 0 0 5.6 1.9 1.9 0 0 0 1.8 1 1.9 1.9 0 0 0 1.7-.9 5.4 5.4 0 0 0 .6-2.9zM562.8 569.7l-3.5 4.6 3.8 5.1h-1.8l-2.8-3.9-2.8 3.9h-1.8l3.8-5.1-3.5-4.6h1.8l2.6 3.5 2.6-3.5h1.8zM567.6 576.3h2.7v2.3l-1.7 3.3h-1.9l.9-3.3v-2.3zm-.1-6.6h2.7v3.1h-2.7v-3.1zM430.2 687.7h1.6l1.7 7.8 1.4-5h1.4l1.4 5 1.7-7.8h1.6l-2.3 9.7h-1.5l-1.6-5.3-1.5 5.3h-1.5zM443.6 687.8h4.1v8.4h3.2v1.2h-7.9v-1.2h3.2v-7.2h-2.5v-1.2zm2.5-3.8h1.6v2h-1.6v-2zM459 689v-5h1.6v13.5h-1.6v-1.2a2.8 2.8 0 0 1-1.1 1.1 3 3 0 0 1-1.5.4 3.3 3.3 0 0 1-2.8-1.4 6.2 6.2 0 0 1-1-3.8 6.1 6.1 0 0 1 1-3.7 3.3 3.3 0 0 1 2.8-1.3 3.1 3.1 0 0 1 1.5.4 2.6 2.6 0 0 1 1.1 1zm-4.7 3.6a5.3 5.3 0 0 0 .6 2.8 1.9 1.9 0 0 0 1.7.9 1.9 1.9 0 0 0 1.8-1 6.8 6.8 0 0 0 0-5.6 1.9 1.9 0 0 0-1.8-.9 1.9 1.9 0 0 0-1.7.9 5.3 5.3 0 0 0-.6 2.9zM467.6 685v2.8h3.6v1.2h-3.6v5.3a2.2 2.2 0 0 0 .4 1.5 1.9 1.9 0 0 0 1.4.4h1.8v1.3h-1.9a3.6 3.6 0 0 1-2.5-.7 3.4 3.4 0 0 1-.7-2.5v-5.3h-2.6v-1.2h2.5v-2.8h1.6zM482 691.4v6h-1.6v-6a3.2 3.2 0 0 0-.5-1.9 1.7 1.7 0 0 0-1.4-.6 2 2 0 0 0-1.7.8 3.7 3.7 0 0 0-.6 2.3v5.5h-1.6v-13.5h1.6v5.2a3 3 0 0 1 1.2-1.3 3.3 3.3 0 0 1 1.7-.4 2.6 2.6 0 0 1 2.2 1 4.9 4.9 0 0 1 .7 2.9zM487.3 687.7h2.7v3.1h-2.7v-3.1zm0 6.5h2.7v3.2h-2.7v-3.2zM507.3 696h2.7v-9.8l-3.3 1.6v-1.7l3.2-1.5h1.8v11.4h2.7v1.5h-7.1v-1.5zM521 684.3a3.5 3.5 0 0 1 3.1 1.7 12.3 12.3 0 0 1 0 10 3.7 3.7 0 0 1-6.3 0 12.4 12.4 0 0 1 0-10 3.5 3.5 0 0 1 3.2-1.7zm0 1.4a1.9 1.9 0 0 0-1.8 1.3 10 10 0 0 0-.6 4 15.1 15.1 0 0 0 .2 2.3l4-6.4a2 2 0 0 0-1.8-1.2zm0 10.6a1.9 1.9 0 0 0 1.8-1.3 10 10 0 0 0 .6-4 17.5 17.5 0 0 0-.2-2.6l-4.1 6.5a2 2 0 0 0 1.9 1.4zM531.7 684.3a3.5 3.5 0 0 1 3.1 1.7 12.3 12.3 0 0 1 0 10 3.7 3.7 0 0 1-6.3 0 12.4 12.4 0 0 1 0-10 3.5 3.5 0 0 1 3.2-1.7zm0 1.4a1.9 1.9 0 0 0-1.8 1.3 10 10 0 0 0-.6 4 15.1 15.1 0 0 0 .2 2.3l4-6.4a2 2 0 0 0-1.8-1.2zm0 10.6a1.9 1.9 0 0 0 1.8-1.3 10 10 0 0 0 .6-4 17.5 17.5 0 0 0-.2-2.6l-4.1 6.5a2 2 0 0 0 1.9 1.4zM540.3 696.2v4.9h-1.6v-13.4h1.6v1.3a2.8 2.8 0 0 1 1.1-1.1 3 3 0 0 1 1.5-.4 3.2 3.2 0 0 1 2.8 1.4 6.2 6.2 0 0 1 1 3.8 6.1 6.1 0 0 1-1 3.7 3.3 3.3 0 0 1-2.8 1.3 3.1 3.1 0 0 1-1.5-.4 2.7 2.7 0 0 1-1.1-1.1zm4.7-3.6a5.4 5.4 0 0 0-.6-2.8 1.9 1.9 0 0 0-1.7-.9 1.9 1.9 0 0 0-1.8.9 6.8 6.8 0 0 0 0 5.6 1.9 1.9 0 0 0 1.8 1 1.9 1.9 0 0 0 1.7-.9 5.4 5.4 0 0 0 .5-2.9zM557.4 687.7l-3.5 4.6 3.8 5.1h-1.8l-2.8-3.9-2.8 3.9h-1.8l3.8-5.1-3.5-4.6h1.8l2.6 3.5 2.6-3.5h1.8zM562.2 694.3h2.7v2.3l-1.7 3.3h-1.9l.9-3.3v-2.3zm-.1-6.6h2.7v3.1h-2.7v-3.1z"/><path class="g" d="M453.1 502.5h1.3v4.6a4 4 0 0 1 2.6-1.2c2.1 0 3.2 1.6 3.2 4s-1.7 4.2-3.5 4.2a3.9 3.9 0 0 1-2.4-1.1v.9h-1.1v-11.4zm3.4 10.5c1.4 0 2.4-1.2 2.4-3.1s-.6-2.9-2.2-2.9a3.4 3.4 0 0 0-2.3 1.2v3.8a3.4 3.4 0 0 0 2.1 1zM466 505.9a4.1 4.1 0 1 1-3.8 4.1 3.8 3.8 0 0 1 3.8-4.1zm0 7.1c1.5 0 2.5-1.2 2.5-3s-1-3-2.5-3-2.5 1.2-2.5 3 1 3 2.5 3zM473.2 506.1h1.1v1.8a4.1 4.1 0 0 1 3.5-2 3.2 3.2 0 0 1 1.5.3l-.3 1.1a3.7 3.7 0 0 0-1.5-.3c-1.2 0-2.3.6-3.2 2.2v4.6h-1.3v-7.8zM484.9 505.9a3.4 3.4 0 0 1 2.4 1v-4.4h1.3v11.4h-1.1v-1a3.7 3.7 0 0 1-2.5 1.2c-2 0-3.4-1.5-3.4-4.1s1.5-4.1 3.3-4.1zm.1 7.1a3 3 0 0 0 2.2-1.2v-3.9a2.9 2.9 0 0 0-2-.9c-1.3 0-2.4 1.2-2.4 3s.8 3 2.2 3zM495.1 505.9a3.3 3.3 0 0 1 3.5 3.7 4.6 4.6 0 0 1 0 .7h-6.1a2.8 2.8 0 0 0 3 2.7 4.3 4.3 0 0 0 2.4-.7l.5.9a5.4 5.4 0 0 1-3 .9 4.1 4.1 0 0 1-.3-8.2zm2.3 3.5a2.2 2.2 0 0 0-2.3-2.5 2.6 2.6 0 0 0-2.6 2.5h4.9zM502 506.1h1v1.8a4.1 4.1 0 0 1 3.5-2 3.2 3.2 0 0 1 1.5.3l-.3 1.1a3.7 3.7 0 0 0-1.5-.3c-1.2 0-2.3.6-3.2 2.2v4.6h-1v-7.8zM511.4 508.6h5.3v1.2h-5.3v-1.2zM520.3 502.5h1.3v4.6a4 4 0 0 1 2.6-1.2c2.1 0 3.2 1.6 3.2 4s-1.7 4.2-3.5 4.2a3.9 3.9 0 0 1-2.4-1.1v.9h-1.1v-11.4zm3.4 10.5c1.4 0 2.4-1.2 2.4-3.1s-.6-2.9-2.2-2.9a3.4 3.4 0 0 0-2.3 1.2v3.8a3.4 3.4 0 0 0 2.1 1zM533.2 505.9a4.1 4.1 0 1 1-3.8 4.1 3.8 3.8 0 0 1 3.8-4.1zm0 7.1c1.5 0 2.5-1.2 2.5-3s-1-3-2.5-3-2.5 1.2-2.5 3 1 3 2.5 3zM542 509.8l-2.7-3.7h1.5l1.2 1.7.9 1.3h.1l.9-1.3 1.2-1.7h1.4l-2.8 3.9 3 3.9h-1.4l-1.4-1.8-1-1.4h-.1l-1 1.4-1.3 1.8h-1.5zM406.9 906.4h-2.2v-1h2.3l.2-2.2h1.1v2.2h3.7v1.1h-3.8v3.7c0 1.4.5 2.1 2 2.1a5.1 5.1 0 0 0 1.9-.4l.3 1a7.3 7.3 0 0 1-2.4.5c-2.3 0-3-1.3-3-3.2v-3.7zM418 905.1a4.1 4.1 0 1 1-3.8 4.1 3.8 3.8 0 0 1 3.8-4.1zm0 7.1c1.5 0 2.5-1.2 2.5-3s-1-3-2.5-3-2.5 1.2-2.5 3 1 3 2.5 3zM426.1 906.4h-2.2v-1h2.2l.2-2.2h1.1v2.2h3.8v1.1h-3.8v3.7c0 1.4.5 2.1 2 2.1a5.1 5.1 0 0 0 1.9-.4l.3 1a7.3 7.3 0 0 1-2.4.5c-2.3 0-3-1.3-3-3.2v-3.7zM439.4 908.1a1.8 1.8 0 0 0-2.1-2 5.4 5.4 0 0 0-2.7.9l-.5-.9a6.7 6.7 0 0 1 3.5-1.1 2.9 2.9 0 0 1 3.2 3.2v4.8h-1.1v-1a5.3 5.3 0 0 1-3.1 1.2c-1.5 0-2.6-.8-2.6-2.2s1.3-2.5 5.4-2.9zm-2.6 4.1a4.2 4.2 0 0 0 2.6-1.2v-2c-3.3.3-4.4.9-4.4 2s.8 1.2 1.7 1.2zM443.3 901.7h4v8.9a1.4 1.4 0 0 0 1.5 1.6 3.5 3.5 0 0 0 1.5-.4l.3 1a5.5 5.5 0 0 1-2.1.5c-1.6 0-2.5-1-2.5-2.8v-7.7h-2.7v-1.1zM461.4 905.3h1.3l1 4.5.4 2.2h.1l.5-2.2 1-4h1.1l1 4 .5 2.2h.1l.4-2.2.9-4.5h1.2l-1.7 7.8h-1.6l-.9-3.9-.4-2.3h-.3c-.1.7-.2 1.4-.4 2.3l-.9 3.9h-1.6zM472.3 905.3h4.9v7.8h-1.3v-6.7h-3.6v-1.1zm3.1-2.6a1.1 1.1 0 1 1 1.1 1 1 1 0 0 1-1.2-1zM484.9 905.1a3.4 3.4 0 0 1 2.4 1v-4.4h1.3v11.4h-1.1v-1a3.7 3.7 0 0 1-2.5 1.2c-2 0-3.4-1.5-3.4-4.1s1.5-4.1 3.3-4.1zm.1 7.1a3 3 0 0 0 2.2-1.2v-3.9a2.9 2.9 0 0 0-2-.9c-1.3 0-2.4 1.2-2.4 3s.8 3 2.2 3zM493.3 906.4h-2.2v-1h2.2l.2-2.2h1.1v2.2h3.8v1.1h-3.8v3.7c0 1.4.5 2.1 2 2.1a5.1 5.1 0 0 0 1.9-.4l.3 1a7.3 7.3 0 0 1-2.4.5c-2.3 0-3-1.3-3-3.2v-3.7zM501.1 901.7h1.3v4.9a4.1 4.1 0 0 1 2.9-1.5c1.8 0 2.7 1.1 2.7 3.1v4.8h-1.3v-4.7c0-1.5-.5-2.2-1.8-2.2s-1.6.5-2.5 1.4v5.4h-1.3v-11.2zM520.3 905.3h4.9v7.8h-1.3v-6.7h-3.6v-1.1zm3.1-2.6a1.1 1.1 0 1 1 1.1 1 1 1 0 0 1-1.2-1zM530.2 911.2a5.1 5.1 0 0 0 3.2 1.1c1.4 0 2.1-.5 2.1-1.2s-.6-1-2.5-1.5-3-1.1-3-2.2 1.1-2.2 3.3-2.2a5.8 5.8 0 0 1 3.1 1l-.6.8a4.3 4.3 0 0 0-2.5-.8c-1.5 0-1.9.5-1.9 1.1s1 1 2.4 1.4 3.1 1.1 3.1 2.3-1.2 2.3-3.5 2.3a6.8 6.8 0 0 1-3.8-1.2zM556.2 911.2v1.9h-7.3v-1.9h2.6v-5.9h-2.1v-1.5a7.8 7.8 0 0 0 2.7-.9h1.7v8.3h2.3zM558.1 907.9c0-3.5 1.6-5.2 3.9-5.2s3.9 1.8 3.9 5.2-1.6 5.3-3.9 5.3-3.9-1.8-3.9-5.3zm2.1 0c0 2.6.8 3.5 1.8 3.5s1.8-.8 1.8-3.5-.8-3.4-1.8-3.4-1.8.8-1.8 3.4zm.6 0a1.2 1.2 0 1 1 1.2 1.2 1.2 1.2 0 0 1-1.2-1.2zM567.7 907.9c0-3.5 1.6-5.2 3.9-5.2s3.9 1.8 3.9 5.2-1.6 5.3-3.9 5.3-3.9-1.8-3.9-5.3zm2.1 0c0 2.6.8 3.5 1.8 3.5s1.8-.8 1.8-3.5-.8-3.4-1.8-3.4-1.8.8-1.8 3.4zm.6 0a1.2 1.2 0 1 1 1.2 1.2 1.2 1.2 0 0 1-1.2-1.2zM579.9 913.7v2.3h-2.4v-10.9h1.9l.2.8a3.7 3.7 0 0 1 2.4-1c2 0 3.2 1.6 3.2 4s-1.7 4.3-3.4 4.3a2.9 2.9 0 0 1-2-.9v1.3zm1.4-2.4c.9 0 1.6-.7 1.6-2.3s-.5-2.1-1.5-2.1a2 2 0 0 0-1.5.7v3.2a2.1 2.1 0 0 0 1.4.5zM589.4 908.9l-2.6-3.8h2.5l.8 1.3.8 1.4h.1l.7-1.4.7-1.3h2.5l-2.6 4.1 2.8 3.9h-2.5l-.9-1.3-.9-1.4h-.1l-.7 1.4-.8 1.3h-2.5zM448.1 924.1a6.7 6.7 0 0 1 2.7-5.4l.5.5a6.4 6.4 0 0 0 0 9.9l-.5.5a6.7 6.7 0 0 1-2.7-5.5zM454.2 926.1a3.8 3.8 0 0 0 2.4.8c1 0 1.6-.4 1.6-.9s-.5-.8-1.9-1.1-2.2-.8-2.2-1.7.8-1.7 2.4-1.7a4.4 4.4 0 0 1 2.3.7l-.5.6a3.2 3.2 0 0 0-1.9-.6c-1.1 0-1.4.4-1.4.8s.7.8 1.8 1 2.3.9 2.3 1.7-.9 1.7-2.6 1.7a5.1 5.1 0 0 1-2.9-.9zM465.2 923.8a1.4 1.4 0 0 0-1.5-1.5 4.1 4.1 0 0 0-2 .7l-.4-.7a5 5 0 0 1 2.6-.8 2.2 2.2 0 0 1 2.4 2.4v3.6h-.8v-.8a4 4 0 0 1-2.3.9 1.8 1.8 0 0 1-2-1.7c-.2-1.2 1-1.9 4-2.1zm-2 3a3.2 3.2 0 0 0 2-.9v-1.5c-2.5.2-3.3.7-3.3 1.5a1.1 1.1 0 0 0 1.3.9zM467.9 921.6h.8v.8a1.4 1.4 0 0 1 1.3-.9 1.1 1.1 0 0 1 1.1 1 1.6 1.6 0 0 1 1.4-1c.8 0 1.3.6 1.3 1.8v4.2h-.9v-4.1c0-.7-.2-1-.6-1a1.2 1.2 0 0 0-1 .9v4.2h-.8v-4.1c0-.7-.2-1-.7-1a1.2 1.2 0 0 0-1 .9v4.2h-.9v-5.8zM478.2 921.5a2.5 2.5 0 0 1 2.7 2.7 3.4 3.4 0 0 1 0 .5h-4.6a2.1 2.1 0 0 0 2.2 2.1 3.2 3.2 0 0 0 1.8-.5l.3.6a4 4 0 0 1-2.2.7 3.1 3.1 0 0 1-.2-6.1zm1.7 2.6a1.6 1.6 0 0 0-1.7-1.8 2 2 0 0 0-2 1.8h3.8zM494 923.8a1.4 1.4 0 0 0-1.5-1.5 4.1 4.1 0 0 0-2 .7l-.4-.7a5 5 0 0 1 2.6-.8 2.2 2.2 0 0 1 2.4 2.4v3.6h-.8v-.8a4 4 0 0 1-2.3.9 1.8 1.8 0 0 1-2-1.7c-.2-1.2 1-1.9 4-2.1zm-2 3a3.2 3.2 0 0 0 2-.9v-1.5c-2.5.2-3.3.7-3.3 1.5a1.1 1.1 0 0 0 1.3.9zM497.4 926.1a3.8 3.8 0 0 0 2.4.8c1 0 1.6-.4 1.6-.9s-.5-.8-1.9-1.1-2.2-.8-2.2-1.7.8-1.7 2.4-1.7a4.4 4.4 0 0 1 2.3.7l-.5.6a3.2 3.2 0 0 0-1.9-.6c-1.1 0-1.4.4-1.4.8s.7.8 1.8 1 2.3.9 2.3 1.7-.9 1.7-2.6 1.7a5.1 5.1 0 0 1-2.9-.9zM510.5 921.6h1l.7 3.4.3 1.6.3-1.6.7-3h.8l.7 3 .3 1.6.3-1.6.7-3.4h.9l-1.3 5.8h-1.2l-.7-3-.3-1.7-.3 1.7-.7 2.9h-1.2zM518.7 921.6h3.7v5.8h-1v-5h-2.7v-.8zm2.3-2a.8.8 0 1 1 .8.8.7.7 0 0 1-.8-.7zM528.2 921.5a2.6 2.6 0 0 1 1.8.8v-3.3h1v8.5h-.8v-.8a2.8 2.8 0 0 1-1.9.9c-1.5 0-2.5-1.1-2.5-3a2.8 2.8 0 0 1 2.4-3.1zm.1 5.3a2.2 2.2 0 0 0 1.6-.9v-2.9a2.2 2.2 0 0 0-1.5-.7 2 2 0 0 0-1.8 2.2c0 1.4.6 2.3 1.7 2.3zM534.5 922.4h-1.6v-.7h1.7v-1.7h.8v1.6h2.9v.8h-2.9v2.8c0 1 .3 1.6 1.5 1.6a3.8 3.8 0 0 0 1.4-.3l.2.7a5.5 5.5 0 0 1-1.8.3c-1.7 0-2.2-1-2.2-2.4v-2.8zM540.3 918.9h1v3.7a3 3 0 0 1 2.2-1.1c1.4 0 2 .8 2 2.4v3.6h-1v-3.5c0-1.1-.4-1.6-1.3-1.6a2.5 2.5 0 0 0-1.8 1.1v4.1h-1v-8.5zM547.9 929.1a6.4 6.4 0 0 0 0-9.9l.5-.5a6.8 6.8 0 0 1 0 10.9z"/><path class="j" d="M673 856.5v17.5h-346.8v-17.5M499.6 874v23"/><path class="k" d="M0 476.4h1000"/><path class="l" d="M326.3 0v950M673.4 0v950"/></svg>