<svg xmlns="http://www.w3.org/2000/svg" width="1000" height="610" viewBox="0 0 1000 610"><defs><style>.a{fill:#9d35af;}.b{fill:#555;}.c{fill:#672373;}.d{fill:#00675a;}.e{fill:#666;}.f{fill:none;stroke:#ccc;stroke-miterlimit:10;stroke-width:2px;}</style></defs><title>css-parts</title><path class="a" d="M349.3,275.1h3.4v5.3l-0.2,3.1a7.2,7.2,0,0,1,5.1-2.4c3.3,0,4.8,2.1,4.8,5.8v8.8H359v-8.4c0-2.3-.7-3.3-2.7-3.3s-2.4.7-3.7,2v9.7h-3.4V275.1Z"/><path class="a" d="M379.8,292.8v2.7H367v-2.7h5V280.7h-3.9v-2.1a14.6,14.6,0,0,0,4.8-1.5h2.4v15.7h4.5Z"/><path class="b" d="M397.7,289.5c0-1.1-.8-2.2-4.2-2.3v-1.5c3.4,0,4.2-1.1,4.2-2.3s-0.3-3.6-.3-5.6,1.7-3.9,5.4-3.9h1.8v1.4h-1.5c-3,0-3.6.7-3.6,2.6s0.2,3.5.2,5.3-0.6,2.8-2.6,3.2h0c2,0.3,2.6,1.3,2.6,3.2s-0.2,3.5-.2,5.3,0.6,2.6,3.6,2.6h1.5V299h-1.8c-3.7,0-5.4-.9-5.4-3.9S397.7,291.5,397.7,289.5Z"/><path class="b" d="M351.3,371.2c3,0,3.6-.7,3.6-2.6s-0.2-3.3-.2-5.3,0.6-2.8,2.6-3.2h0c-2-.3-2.6-1.3-2.6-3.2s0.2-3.6.2-5.3-0.7-2.6-3.6-2.6h-1.5v-1.4h1.8c3.6,0,5.3.9,5.3,3.9s-0.3,3.8-.3,5.6,0.8,2.2,4.2,2.3v1.5c-3.4,0-4.2,1.1-4.2,2.3s0.3,3.5.3,5.6-1.7,3.9-5.3,3.9h-1.8v-1.4h1.5Z"/><path class="c" d="M402.9,317.9a7.2,7.2,0,0,1,5.1,2.1l-1.2,1.5a5.7,5.7,0,0,0-3.9-1.6,5.2,5.2,0,0,0-5.5,5.5,5.1,5.1,0,0,0,5.4,5.4,6.9,6.9,0,0,0,4.4-1.8l1,1.5a8.4,8.4,0,0,1-5.6,2.2c-4.4,0-7.7-2.7-7.7-7.4S398.6,317.9,402.9,317.9Z"/><path class="c" d="M418.8,317.9c3.7,0,7,2.7,7,7.4s-3.3,7.4-7,7.4-7-2.7-7-7.4S415.1,317.9,418.8,317.9Zm0,12.8c2.7,0,4.5-2.2,4.5-5.4s-1.8-5.5-4.5-5.5-4.5,2.2-4.5,5.5S416.1,330.7,418.8,330.7Z"/><path class="c" d="M429.9,311.7h7.2v16.1c0,2.1,1.1,2.9,2.8,2.9a6.4,6.4,0,0,0,2.7-.7l0.6,1.8a10,10,0,0,1-3.8.8c-3,0-4.6-1.7-4.6-5.1v-14h-4.8v-1.9Z"/><path class="c" d="M453.7,317.9c3.7,0,7,2.7,7,7.4s-3.3,7.4-7,7.4-7-2.7-7-7.4S449.9,317.9,453.7,317.9Zm0,12.8c2.7,0,4.5-2.2,4.5-5.4s-1.8-5.5-4.5-5.5-4.5,2.2-4.5,5.5S451,330.7,453.7,330.7Z"/><path class="c" d="M466.6,318.2h2l0.2,3.3h0.1a7.5,7.5,0,0,1,6.3-3.7,5.8,5.8,0,0,1,2.8.6l-0.5,2.1a6.7,6.7,0,0,0-2.6-.5c-2.1,0-4.1,1.1-5.8,4v8.3h-2.4V318.2Z"/><path class="d" d="M521.3,333.5v4.8h-2.4V318.2h2L521,320h0.1a7.4,7.4,0,0,1,4.9-2.1c3.8,0,5.8,2.8,5.8,7.2s-3,7.6-6.4,7.6a6.8,6.8,0,0,1-4.2-1.8v2.7Zm3.8-2.8c2.5,0,4.4-2.1,4.4-5.6s-1.2-5.2-4-5.2a6.2,6.2,0,0,0-4.2,2.1v7A6.1,6.1,0,0,0,525,330.7Z"/><path class="d" d="M548.3,332.3h-1.9l-0.2-2.5H546a6.9,6.9,0,0,1-5.3,2.8c-3.4,0-4.9-2-4.9-5.7v-8.8h2.4v8.5c0,2.7.9,4,3.3,4s2.8-.8,4.4-2.6v-9.8h2.4v14.1Z"/><path class="d" d="M555.3,318.2h2l0.2,3.3h0.1a7.5,7.5,0,0,1,6.3-3.7,5.8,5.8,0,0,1,2.8.6l-0.5,2.1a6.7,6.7,0,0,0-2.6-.5c-2.1,0-4.1,1.1-5.8,4v8.3h-2.4V318.2Z"/><path class="d" d="M573.5,333.5v4.8h-2.4V318.2h2l0.2,1.8h0.1a7.4,7.4,0,0,1,4.9-2.1c3.8,0,5.8,2.8,5.8,7.2s-3,7.6-6.4,7.6a6.8,6.8,0,0,1-4.2-1.8v2.7Zm3.8-2.8c2.5,0,4.4-2.1,4.4-5.6s-1.2-5.2-4-5.2a6.2,6.2,0,0,0-4.2,2.1v7A6.1,6.1,0,0,0,577.3,330.7Z"/><path class="d" d="M588.2,311.7h7.2v16.1c0,2.1,1.1,2.9,2.8,2.9a6.4,6.4,0,0,0,2.7-.7l0.6,1.8a10,10,0,0,1-3.8.8c-3,0-4.6-1.7-4.6-5.1v-14h-4.8v-1.9Z"/><path class="d" d="M612.5,317.9c4,0,6.4,2.6,6.4,6.6a8.5,8.5,0,0,1-.1,1.3h-11a5.1,5.1,0,0,0,5.4,5,7.8,7.8,0,0,0,4.3-1.3l0.8,1.6a9.8,9.8,0,0,1-5.4,1.7c-4.2,0-7.6-2.8-7.6-7.4A7.2,7.2,0,0,1,612.5,317.9Zm4.2,6.4c0-2.9-1.6-4.5-4.2-4.5a4.8,4.8,0,0,0-4.8,4.5h8.9Z"/><path class="b" d="M626.5,337c2.4-1.1,3.6-2.6,3.7-4.9h-0.6a2.1,2.1,0,0,1-2.3-2.2,2.2,2.2,0,0,1,2.3-2.2c1.7,0,2.6,1.5,2.6,3.7s-1.9,5.8-5.1,7Zm0.6-17.2a2.4,2.4,0,1,1,2.4,2.5A2.3,2.3,0,0,1,627.2,319.8Z"/><path class="b" d="M489,317.4a2.5,2.5,0,1,1-2.4,2.4A2.3,2.3,0,0,1,489,317.4Zm0,10.4a2.5,2.5,0,1,1-2.4,2.5A2.3,2.3,0,0,1,489,327.8Z"/><path class="e" d="M397.9,399.1v2.6h-1.3V390.7h1.1v1h0a4.1,4.1,0,0,1,2.7-1.2c2.1,0,3.2,1.6,3.2,4s-1.7,4.2-3.5,4.2a3.7,3.7,0,0,1-2.3-1v1.5Zm2.1-1.6c1.4,0,2.4-1.2,2.4-3.1s-0.6-2.9-2.2-2.9a3.4,3.4,0,0,0-2.3,1.2v3.9A3.4,3.4,0,0,0,400,397.5Z"/><path class="e" d="M407,390.7h1.1v1.8h0a4.1,4.1,0,0,1,3.5-2,3.2,3.2,0,0,1,1.5.3l-0.3,1.1a3.7,3.7,0,0,0-1.5-.3c-1.2,0-2.3.6-3.2,2.2v4.6H407v-7.8Z"/><path class="e" d="M419.1,390.5a4.1,4.1,0,1,1-3.8,4.1A3.8,3.8,0,0,1,419.1,390.5Zm0,7.1c1.5,0,2.5-1.2,2.5-3s-1-3-2.5-3-2.5,1.2-2.5,3S417.6,397.5,419.1,397.5Z"/><path class="e" d="M426.7,399.1v2.6h-1.3V390.7h1.1v1h0a4.1,4.1,0,0,1,2.7-1.2c2.1,0,3.2,1.6,3.2,4s-1.7,4.2-3.5,4.2a3.7,3.7,0,0,1-2.3-1v1.5Zm2.1-1.6c1.4,0,2.4-1.2,2.4-3.1s-0.6-2.9-2.2-2.9a3.4,3.4,0,0,0-2.3,1.2v3.9A3.4,3.4,0,0,0,428.8,397.5Z"/><path class="e" d="M438.5,390.5a3.3,3.3,0,0,1,3.5,3.6,4.6,4.6,0,0,1,0,.7H436a2.8,2.8,0,0,0,3,2.7,4.3,4.3,0,0,0,2.4-.7l0.5,0.9a5.4,5.4,0,0,1-3,.9A4.1,4.1,0,0,1,438.5,390.5Zm2.3,3.5a2.2,2.2,0,0,0-2.3-2.5,2.6,2.6,0,0,0-2.6,2.5h4.9Z"/><path class="e" d="M445.4,390.7h1.1v1.8h0a4.1,4.1,0,0,1,3.5-2,3.2,3.2,0,0,1,1.5.3l-0.3,1.1a3.7,3.7,0,0,0-1.5-.3c-1.2,0-2.3.6-3.2,2.2v4.6h-1.3v-7.8Z"/><path class="e" d="M456,391.7h-2.2v-1H456l0.2-2.2h1.1v2.2h3.8v1.1h-3.8v3.7c0,1.4.5,2.1,2,2.1a5.1,5.1,0,0,0,1.9-.4l0.3,1a7.3,7.3,0,0,1-2.4.5c-2.3,0-3-1.3-3-3.2v-3.7Z"/><path class="e" d="M464.3,400.7a2.3,2.3,0,0,0,2.1-1.7l0.2-.6-3.6-7.8h1.3l1.9,4.3,1,2.3h0.1l0.8-2.3,1.7-4.3h1.2l-3.4,8.4c-0.6,1.5-1.5,2.7-3.3,2.7l-1-.2,0.3-1h0.7Z"/><path class="e" d="M327.3,214.5a5.1,5.1,0,0,0,3.2,1.1c1.4,0,2.1-.5,2.1-1.2s-0.6-1-2.5-1.5-3-1.1-3-2.2,1.1-2.2,3.3-2.2a5.8,5.8,0,0,1,3.1,1l-0.6.8a4.3,4.3,0,0,0-2.5-.8c-1.5,0-1.9.5-1.9,1.1s1,1,2.4,1.4,3.1,1.1,3.1,2.3-1.2,2.3-3.5,2.3a6.8,6.8,0,0,1-3.8-1.2Z"/><path class="e" d="M340.2,208.5a3.3,3.3,0,0,1,3.5,3.6,4.6,4.6,0,0,1,0,.7h-6.1a2.8,2.8,0,0,0,3,2.7,4.3,4.3,0,0,0,2.4-.7l0.5,0.9a5.4,5.4,0,0,1-3,.9A4.1,4.1,0,0,1,340.2,208.5Zm2.3,3.5a2.2,2.2,0,0,0-2.3-2.5,2.6,2.6,0,0,0-2.6,2.5h4.9Z"/><path class="e" d="M346,205h4v8.9a1.4,1.4,0,0,0,1.5,1.6,3.5,3.5,0,0,0,1.5-.4l0.3,1a5.5,5.5,0,0,1-2.1.5c-1.6,0-2.5-1-2.5-2.8v-7.7H346V205Z"/><path class="e" d="M359.4,208.5a3.3,3.3,0,0,1,3.5,3.6,4.6,4.6,0,0,1,0,.7h-6.1a2.8,2.8,0,0,0,3,2.7,4.3,4.3,0,0,0,2.4-.7l0.5,0.9a5.4,5.4,0,0,1-3,.9A4.1,4.1,0,0,1,359.4,208.5Zm2.3,3.5a2.2,2.2,0,0,0-2.3-2.5,2.6,2.6,0,0,0-2.6,2.5h4.9Z"/><path class="e" d="M369.5,208.5a4,4,0,0,1,2.8,1.1l-0.7.8a3.2,3.2,0,0,0-2.1-.9,2.9,2.9,0,0,0-3,3,2.8,2.8,0,0,0,3,3,3.8,3.8,0,0,0,2.4-1l0.6,0.8a4.6,4.6,0,0,1-3.1,1.2,3.9,3.9,0,0,1-4.3-4.1A4,4,0,0,1,369.5,208.5Z"/><path class="e" d="M376.8,209.7h-2.2v-1h2.2l0.2-2.2h1.1v2.2h3.8v1.1h-3.8v3.7c0,1.4.5,2.1,2,2.1a5.1,5.1,0,0,0,1.9-.4l0.3,1a7.3,7.3,0,0,1-2.4.5c-2.3,0-3-1.3-3-3.2v-3.7Z"/><path class="e" d="M387.9,208.5a4.1,4.1,0,1,1-3.8,4.1A3.8,3.8,0,0,1,387.9,208.5Zm0,7.1c1.5,0,2.5-1.2,2.5-3s-1-3-2.5-3-2.5,1.2-2.5,3S386.4,215.5,387.9,215.5Z"/><path class="e" d="M395,208.7h1.1v1.8h0a4.1,4.1,0,0,1,3.5-2,3.2,3.2,0,0,1,1.5.3l-0.3,1.1a3.7,3.7,0,0,0-1.5-.3c-1.2,0-2.3.6-3.2,2.2v4.6H395v-7.8Z"/><path class="e" d="M691,319.5a3.4,3.4,0,0,1,2.4,1v-4.4h1.3v11.4h-1.1v-1h0a3.7,3.7,0,0,1-2.5,1.2c-2,0-3.4-1.5-3.4-4.1S689.2,319.5,691,319.5Zm0.1,7.1a3,3,0,0,0,2.2-1.2v-3.9a2.9,2.9,0,0,0-2-.9c-1.3,0-2.4,1.2-2.4,3S689.7,326.6,691.1,326.6Z"/><path class="e" d="M701.2,319.5a3.3,3.3,0,0,1,3.5,3.6,4.6,4.6,0,0,1,0,.7h-6.1a2.8,2.8,0,0,0,3,2.7,4.3,4.3,0,0,0,2.4-.7l0.5,0.9a5.4,5.4,0,0,1-3,.9A4.1,4.1,0,0,1,701.2,319.5Zm2.3,3.5a2.2,2.2,0,0,0-2.3-2.5,2.6,2.6,0,0,0-2.6,2.5h4.9Z"/><path class="e" d="M711.3,319.5a4,4,0,0,1,2.8,1.1l-0.7.8a3.1,3.1,0,0,0-2.1-.9,2.9,2.9,0,0,0-3,3,2.8,2.8,0,0,0,3,3,3.8,3.8,0,0,0,2.4-1l0.6,0.8a4.6,4.6,0,0,1-3.1,1.2,3.9,3.9,0,0,1-4.3-4.1A4,4,0,0,1,711.3,319.5Z"/><path class="e" d="M716.6,316.1h4V325a1.4,1.4,0,0,0,1.5,1.6,3.5,3.5,0,0,0,1.5-.4l0.3,1a5.5,5.5,0,0,1-2.1.5c-1.6,0-2.5-1-2.5-2.8v-7.7h-2.7v-1.1Z"/><path class="e" d="M731.8,322.6a1.8,1.8,0,0,0-2.1-2,5.4,5.4,0,0,0-2.7.9l-0.5-.9a6.7,6.7,0,0,1,3.5-1.1,2.9,2.9,0,0,1,3.2,3.2v4.8h-1.1v-1.1h0a5.3,5.3,0,0,1-3.1,1.2c-1.5,0-2.6-.8-2.6-2.2S727.8,322.9,731.8,322.6Zm-2.6,4.1a4.2,4.2,0,0,0,2.6-1.2v-2c-3.3.3-4.4,0.9-4.4,2S728.3,326.6,729.2,326.6Z"/><path class="e" d="M736.8,319.7h1.1v1.8h0a4.1,4.1,0,0,1,3.5-2,3.2,3.2,0,0,1,1.5.3l-0.3,1.1a3.7,3.7,0,0,0-1.5-.3c-1.2,0-2.3.6-3.2,2.2v4.6h-1.3v-7.8Z"/><path class="e" d="M751,322.6a1.8,1.8,0,0,0-2.1-2,5.4,5.4,0,0,0-2.7.9l-0.5-.9a6.7,6.7,0,0,1,3.5-1.1,2.9,2.9,0,0,1,3.2,3.2v4.8h-1.1v-1.1h0a5.3,5.3,0,0,1-3.1,1.2c-1.5,0-2.6-.8-2.6-2.2S747,322.9,751,322.6Zm-2.6,4.1a4.2,4.2,0,0,0,2.6-1.2v-2c-3.3.3-4.4,0.9-4.4,2S747.5,326.6,748.4,326.6Z"/><path class="e" d="M757,320.8h-2.2v-1H757l0.2-2.2h1.1v2.2h3.8v1.1h-3.8v3.7c0,1.4.5,2.1,2,2.1a5.1,5.1,0,0,0,1.9-.4l0.3,1a7.3,7.3,0,0,1-2.4.5c-2.3,0-3-1.3-3-3.2v-3.7Z"/><path class="e" d="M764.7,319.7h4.9v7.8h-1.3v-6.7h-3.6v-1.1Zm3.1-2.6a1.1,1.1,0,1,1,1.1,1A1,1,0,0,1,767.8,317.1Z"/><path class="e" d="M777.7,319.5a4.1,4.1,0,1,1-3.8,4.1A3.8,3.8,0,0,1,777.7,319.5Zm0,7.1c1.5,0,2.5-1.2,2.5-3s-1-3-2.5-3-2.5,1.2-2.5,3S776.2,326.6,777.7,326.6Z"/><path class="e" d="M784,319.7h1.1V321h0.1a4,4,0,0,1,2.9-1.5c1.8,0,2.7,1.1,2.7,3.1v4.8h-1.3v-4.7c0-1.5-.5-2.2-1.8-2.2s-1.6.5-2.5,1.4v5.4H784v-7.8Z"/><polyline class="f" points="639.1 340.6 656.6 340.6 656.6 307.5 639.1 307.5"/><polyline class="f" points="475.3 340.8 475.3 358.3 391.7 358.3 391.7 340.8"/><line class="f" x1="433.5" y1="358.3" x2="433.5" y2="381.3"/><polyline class="f" points="342.2 266 342.2 248.5 385.6 248.5 385.6 266"/><line class="f" x1="363.9" y1="248.5" x2="363.9" y2="225.5"/><path class="e" d="M543.7,392.7h1.3l1.8,4.4,0.9,2.3h0.1l0.8-2.3,1.8-4.4h1.3l-3.2,7.8H547Z"/><path class="e" d="M559.4,395.5a1.8,1.8,0,0,0-2.1-2,5.4,5.4,0,0,0-2.7.9l-0.5-.9a6.7,6.7,0,0,1,3.5-1.1,2.9,2.9,0,0,1,3.2,3.2v4.8h-1.1v-1.1h0a5.3,5.3,0,0,1-3.1,1.2c-1.5,0-2.6-.8-2.6-2.2S555.4,395.8,559.4,395.5Zm-2.6,4.1a4.2,4.2,0,0,0,2.6-1.2v-2c-3.3.3-4.4,0.9-4.4,2S555.9,399.6,556.8,399.6Z"/><path class="e" d="M563.4,389h4v8.9a1.4,1.4,0,0,0,1.5,1.6,3.5,3.5,0,0,0,1.5-.4l0.3,1a5.5,5.5,0,0,1-2.1.5c-1.6,0-2.5-1-2.5-2.8v-7.7h-2.7V389Z"/><path class="e" d="M579.8,400.4h-1.1v-1.4h-0.1a3.8,3.8,0,0,1-2.9,1.6c-1.9,0-2.7-1.1-2.7-3.1v-4.8h1.3v4.7c0,1.5.5,2.2,1.8,2.2a3.1,3.1,0,0,0,2.4-1.4v-5.4h1.3v7.8Z"/><path class="e" d="M586.4,392.5a3.3,3.3,0,0,1,3.5,3.6,4.6,4.6,0,0,1,0,.7h-6.1a2.8,2.8,0,0,0,3,2.7,4.3,4.3,0,0,0,2.4-.7l0.5,0.9a5.4,5.4,0,0,1-3,.9A4.1,4.1,0,0,1,586.4,392.5Zm2.3,3.5a2.2,2.2,0,0,0-2.3-2.5,2.6,2.6,0,0,0-2.6,2.5h4.9Z"/><polyline class="f" points="621.8 340.8 621.8 358.3 512 358.3 512 340.8"/><line class="f" x1="566.9" y1="358.3" x2="566.9" y2="381.3"/><line class="f" x1="656.6" y1="324.1" x2="679.6" y2="324.1"/><path class="e" d="M210.2,320.1h1.1V322h0a4.1,4.1,0,0,1,3.5-2,3.2,3.2,0,0,1,1.5.3l-0.3,1.1a3.7,3.7,0,0,0-1.5-.3c-1.2,0-2.3.6-3.2,2.2v4.6h-1.3v-7.8Z"/><path class="e" d="M225.6,327.9h-1.1v-1.4h-0.1a3.8,3.8,0,0,1-2.9,1.6c-1.9,0-2.7-1.1-2.7-3.1v-4.8h1.3v4.7c0,1.5.5,2.2,1.8,2.2a3.1,3.1,0,0,0,2.4-1.4v-5.4h1.3v7.8Z"/><path class="e" d="M228.4,316.5h4v8.9a1.4,1.4,0,0,0,1.5,1.6,3.5,3.5,0,0,0,1.5-.4l0.3,1a5.5,5.5,0,0,1-2.1.5c-1.6,0-2.5-1-2.5-2.8v-7.7h-2.7v-1.1Z"/><path class="e" d="M241.8,319.9a3.3,3.3,0,0,1,3.5,3.6,4.6,4.6,0,0,1,0,.7h-6.1a2.8,2.8,0,0,0,3,2.7,4.3,4.3,0,0,0,2.4-.7l0.5,0.9a5.4,5.4,0,0,1-3,.9A4.1,4.1,0,0,1,241.8,319.9Zm2.3,3.5a2.2,2.2,0,0,0-2.3-2.5,2.6,2.6,0,0,0-2.6,2.5h4.9Z"/><path class="e" d="M257.7,326a5.1,5.1,0,0,0,3.2,1.1c1.4,0,2.1-.5,2.1-1.2s-0.6-1-2.5-1.5-3-1.1-3-2.2,1.1-2.2,3.3-2.2a5.8,5.8,0,0,1,3.1,1l-0.6.8a4.3,4.3,0,0,0-2.5-.8c-1.5,0-1.9.5-1.9,1.1s1,1,2.4,1.4,3.1,1.1,3.1,2.3-1.2,2.3-3.5,2.3a6.8,6.8,0,0,1-3.8-1.2Z"/><path class="e" d="M270.6,319.9a3.3,3.3,0,0,1,3.5,3.6,4.6,4.6,0,0,1,0,.7H268a2.8,2.8,0,0,0,3,2.7,4.3,4.3,0,0,0,2.4-.7l0.5,0.9a5.4,5.4,0,0,1-3,.9A4.1,4.1,0,0,1,270.6,319.9Zm2.3,3.5a2.2,2.2,0,0,0-2.3-2.5,2.6,2.6,0,0,0-2.6,2.5h4.9Z"/><path class="e" d="M278.4,321.2h-2.2v-1h2.2l0.2-2.2h1.1v2.2h3.8v1.1h-3.8v3.7c0,1.4.5,2.1,2,2.1a5.1,5.1,0,0,0,1.9-.4l0.3,1a7.3,7.3,0,0,1-2.4.5c-2.3,0-3-1.3-3-3.2v-3.7Z"/><polyline class="f" points="330.6 272.3 313.1 272.3 313.1 376.7 330.6 376.7"/><line class="f" x1="313.1" y1="324.5" x2="290.1" y2="324.5"/></svg>