<svg xmlns="http://www.w3.org/2000/svg" width="1000" height="610" viewBox="0 0 1000 610"><defs><style>.a{fill:#9d35af;}.b{fill:#555;}.c{fill:#672373;}.d{fill:#00675a;}</style></defs><title>css</title><path class="a" d="M349.3,275.1h3.4v5.3l-0.2,3.1a7.2,7.2,0,0,1,5.1-2.4c3.3,0,4.8,2.1,4.8,5.8v8.8H359v-8.4c0-2.3-.7-3.3-2.7-3.3s-2.4.7-3.7,2v9.7h-3.4V275.1Z"/><path class="a" d="M379.8,292.8v2.7H367v-2.7h5V280.7h-3.9v-2.1a14.6,14.6,0,0,0,4.8-1.5h2.4v15.7h4.5Z"/><path class="b" d="M397.7,289.5c0-1.1-.8-2.2-4.2-2.3v-1.5c3.4,0,4.2-1.1,4.2-2.3s-0.3-3.6-.3-5.6,1.7-3.9,5.4-3.9h1.8v1.4h-1.5c-3,0-3.6.7-3.6,2.6s0.2,3.5.2,5.3-0.6,2.8-2.6,3.2h0c2,0.3,2.6,1.3,2.6,3.2s-0.2,3.5-.2,5.3,0.6,2.6,3.6,2.6h1.5V299h-1.8c-3.7,0-5.4-.9-5.4-3.9S397.7,291.5,397.7,289.5Z"/><path class="b" d="M351.3,371.2c3,0,3.6-.7,3.6-2.6s-0.2-3.3-.2-5.3,0.6-2.8,2.6-3.2h0c-2-.3-2.6-1.3-2.6-3.2s0.2-3.6.2-5.3-0.7-2.6-3.6-2.6h-1.5v-1.4h1.8c3.6,0,5.3.9,5.3,3.9s-0.3,3.8-.3,5.6,0.8,2.2,4.2,2.3v1.5c-3.4,0-4.2,1.1-4.2,2.3s0.3,3.5.3,5.6-1.7,3.9-5.3,3.9h-1.8v-1.4h1.5Z"/><path class="c" d="M402.9,317.9a7.2,7.2,0,0,1,5.1,2.1l-1.2,1.5a5.7,5.7,0,0,0-3.9-1.6,5.2,5.2,0,0,0-5.5,5.5,5.1,5.1,0,0,0,5.4,5.4,6.9,6.9,0,0,0,4.4-1.8l1,1.5a8.4,8.4,0,0,1-5.6,2.2c-4.4,0-7.7-2.7-7.7-7.4S398.6,317.9,402.9,317.9Z"/><path class="c" d="M418.8,317.9c3.7,0,7,2.7,7,7.4s-3.3,7.4-7,7.4-7-2.7-7-7.4S415.1,317.9,418.8,317.9Zm0,12.8c2.7,0,4.5-2.2,4.5-5.4s-1.8-5.5-4.5-5.5-4.5,2.2-4.5,5.5S416.1,330.7,418.8,330.7Z"/><path class="c" d="M429.9,311.7h7.2v16.1c0,2.1,1.1,2.9,2.8,2.9a6.4,6.4,0,0,0,2.7-.7l0.6,1.8a10,10,0,0,1-3.8.8c-3,0-4.6-1.7-4.6-5.1v-14h-4.8v-1.9Z"/><path class="c" d="M453.7,317.9c3.7,0,7,2.7,7,7.4s-3.3,7.4-7,7.4-7-2.7-7-7.4S449.9,317.9,453.7,317.9Zm0,12.8c2.7,0,4.5-2.2,4.5-5.4s-1.8-5.5-4.5-5.5-4.5,2.2-4.5,5.5S451,330.7,453.7,330.7Z"/><path class="c" d="M466.6,318.2h2l0.2,3.3h0.1a7.5,7.5,0,0,1,6.3-3.7,5.8,5.8,0,0,1,2.8.6l-0.5,2.1a6.7,6.7,0,0,0-2.6-.5c-2.1,0-4.1,1.1-5.8,4v8.3h-2.4V318.2Z"/><path class="d" d="M521.3,333.5v4.8h-2.4V318.2h2L521,320h0.1a7.4,7.4,0,0,1,4.9-2.1c3.8,0,5.8,2.8,5.8,7.2s-3,7.6-6.4,7.6a6.8,6.8,0,0,1-4.2-1.8v2.7Zm3.8-2.8c2.5,0,4.4-2.1,4.4-5.6s-1.2-5.2-4-5.2a6.2,6.2,0,0,0-4.2,2.1v7A6.1,6.1,0,0,0,525,330.7Z"/><path class="d" d="M548.3,332.3h-1.9l-0.2-2.5H546a6.9,6.9,0,0,1-5.3,2.8c-3.4,0-4.9-2-4.9-5.7v-8.8h2.4v8.5c0,2.7.9,4,3.3,4s2.8-.8,4.4-2.6v-9.8h2.4v14.1Z"/><path class="d" d="M555.3,318.2h2l0.2,3.3h0.1a7.5,7.5,0,0,1,6.3-3.7,5.8,5.8,0,0,1,2.8.6l-0.5,2.1a6.7,6.7,0,0,0-2.6-.5c-2.1,0-4.1,1.1-5.8,4v8.3h-2.4V318.2Z"/><path class="d" d="M573.5,333.5v4.8h-2.4V318.2h2l0.2,1.8h0.1a7.4,7.4,0,0,1,4.9-2.1c3.8,0,5.8,2.8,5.8,7.2s-3,7.6-6.4,7.6a6.8,6.8,0,0,1-4.2-1.8v2.7Zm3.8-2.8c2.5,0,4.4-2.1,4.4-5.6s-1.2-5.2-4-5.2a6.2,6.2,0,0,0-4.2,2.1v7A6.1,6.1,0,0,0,577.3,330.7Z"/><path class="d" d="M588.2,311.7h7.2v16.1c0,2.1,1.1,2.9,2.8,2.9a6.4,6.4,0,0,0,2.7-.7l0.6,1.8a10,10,0,0,1-3.8.8c-3,0-4.6-1.7-4.6-5.1v-14h-4.8v-1.9Z"/><path class="d" d="M612.5,317.9c4,0,6.4,2.6,6.4,6.6a8.5,8.5,0,0,1-.1,1.3h-11a5.1,5.1,0,0,0,5.4,5,7.8,7.8,0,0,0,4.3-1.3l0.8,1.6a9.8,9.8,0,0,1-5.4,1.7c-4.2,0-7.6-2.8-7.6-7.4A7.2,7.2,0,0,1,612.5,317.9Zm4.2,6.4c0-2.9-1.6-4.5-4.2-4.5a4.8,4.8,0,0,0-4.8,4.5h8.9Z"/><path class="b" d="M626.5,337c2.4-1.1,3.6-2.6,3.7-4.9h-0.6a2.1,2.1,0,0,1-2.3-2.2,2.2,2.2,0,0,1,2.3-2.2c1.7,0,2.6,1.5,2.6,3.7s-1.9,5.8-5.1,7Zm0.6-17.2a2.4,2.4,0,1,1,2.4,2.5A2.3,2.3,0,0,1,627.2,319.8Z"/><path class="b" d="M489,317.4a2.5,2.5,0,1,1-2.4,2.4A2.3,2.3,0,0,1,489,317.4Zm0,10.4a2.5,2.5,0,1,1-2.4,2.5A2.3,2.3,0,0,1,489,327.8Z"/></svg>